%TF.GenerationSoftware,KiCad,Pcbnew,6.0.9-8da3e8f707~117~ubuntu22.04.1*%
%TF.CreationDate,2022-12-19T03:44:25-03:00*%
%TF.ProjectId,kiproject,6b697072-6f6a-4656-9374-2e6b69636164,rev?*%
%TF.SameCoordinates,Original*%
%TF.FileFunction,Copper,L1,Top*%
%TF.FilePolarity,Positive*%
%FSLAX46Y46*%
G04 Gerber Fmt 4.6, Leading zero omitted, Abs format (unit mm)*
G04 Created by KiCad (PCBNEW 6.0.9-8da3e8f707~117~ubuntu22.04.1) date 2022-12-19 03:44:25*
%MOMM*%
%LPD*%
G01*
G04 APERTURE LIST*
G04 Aperture macros list*
%AMRoundRect*
0 Rectangle with rounded corners*
0 $1 Rounding radius*
0 $2 $3 $4 $5 $6 $7 $8 $9 X,Y pos of 4 corners*
0 Add a 4 corners polygon primitive as box body*
4,1,4,$2,$3,$4,$5,$6,$7,$8,$9,$2,$3,0*
0 Add four circle primitives for the rounded corners*
1,1,$1+$1,$2,$3*
1,1,$1+$1,$4,$5*
1,1,$1+$1,$6,$7*
1,1,$1+$1,$8,$9*
0 Add four rect primitives between the rounded corners*
20,1,$1+$1,$2,$3,$4,$5,0*
20,1,$1+$1,$4,$5,$6,$7,0*
20,1,$1+$1,$6,$7,$8,$9,0*
20,1,$1+$1,$8,$9,$2,$3,0*%
G04 Aperture macros list end*
%TA.AperFunction,SMDPad,CuDef*%
%ADD10RoundRect,0.225000X0.225000X0.250000X-0.225000X0.250000X-0.225000X-0.250000X0.225000X-0.250000X0*%
%TD*%
%TA.AperFunction,SMDPad,CuDef*%
%ADD11RoundRect,0.100000X0.130000X0.100000X-0.130000X0.100000X-0.130000X-0.100000X0.130000X-0.100000X0*%
%TD*%
%TA.AperFunction,SMDPad,CuDef*%
%ADD12RoundRect,0.100000X-0.130000X-0.100000X0.130000X-0.100000X0.130000X0.100000X-0.130000X0.100000X0*%
%TD*%
%TA.AperFunction,SMDPad,CuDef*%
%ADD13RoundRect,0.100000X0.100000X-0.130000X0.100000X0.130000X-0.100000X0.130000X-0.100000X-0.130000X0*%
%TD*%
%TA.AperFunction,SMDPad,CuDef*%
%ADD14RoundRect,0.140000X0.140000X0.170000X-0.140000X0.170000X-0.140000X-0.170000X0.140000X-0.170000X0*%
%TD*%
%TA.AperFunction,SMDPad,CuDef*%
%ADD15C,0.365760*%
%TD*%
%TA.AperFunction,SMDPad,CuDef*%
%ADD16RoundRect,0.200000X0.200000X0.250000X-0.200000X0.250000X-0.200000X-0.250000X0.200000X-0.250000X0*%
%TD*%
%TA.AperFunction,SMDPad,CuDef*%
%ADD17RoundRect,0.100000X-0.100000X0.130000X-0.100000X-0.130000X0.100000X-0.130000X0.100000X0.130000X0*%
%TD*%
%TA.AperFunction,ComponentPad*%
%ADD18C,2.000000*%
%TD*%
%TA.AperFunction,SMDPad,CuDef*%
%ADD19R,0.500000X1.000000*%
%TD*%
%TA.AperFunction,ComponentPad*%
%ADD20R,3.000000X3.000000*%
%TD*%
%TA.AperFunction,ComponentPad*%
%ADD21C,3.000000*%
%TD*%
%TA.AperFunction,SMDPad,CuDef*%
%ADD22RoundRect,0.140000X-0.140000X-0.170000X0.140000X-0.170000X0.140000X0.170000X-0.140000X0.170000X0*%
%TD*%
%TA.AperFunction,ComponentPad*%
%ADD23R,1.905000X1.905000*%
%TD*%
%TA.AperFunction,ComponentPad*%
%ADD24C,1.905000*%
%TD*%
%TA.AperFunction,SMDPad,CuDef*%
%ADD25RoundRect,0.006600X-0.308400X-0.103400X0.308400X-0.103400X0.308400X0.103400X-0.308400X0.103400X0*%
%TD*%
%TA.AperFunction,SMDPad,CuDef*%
%ADD26RoundRect,0.017600X-0.092400X-0.297400X0.092400X-0.297400X0.092400X0.297400X-0.092400X0.297400X0*%
%TD*%
%TA.AperFunction,SMDPad,CuDef*%
%ADD27R,0.760000X0.760000*%
%TD*%
%TA.AperFunction,SMDPad,CuDef*%
%ADD28R,4.400000X1.500000*%
%TD*%
%TA.AperFunction,SMDPad,CuDef*%
%ADD29R,4.700000X1.350000*%
%TD*%
%TA.AperFunction,SMDPad,CuDef*%
%ADD30R,4.700000X1.500000*%
%TD*%
%TA.AperFunction,ViaPad*%
%ADD31C,0.800000*%
%TD*%
%TA.AperFunction,ViaPad*%
%ADD32C,0.300000*%
%TD*%
%TA.AperFunction,Conductor*%
%ADD33C,0.200000*%
%TD*%
%TA.AperFunction,Conductor*%
%ADD34C,1.000000*%
%TD*%
%TA.AperFunction,Conductor*%
%ADD35C,0.250000*%
%TD*%
%TA.AperFunction,Conductor*%
%ADD36C,0.293370*%
%TD*%
%TA.AperFunction,Conductor*%
%ADD37C,0.089000*%
%TD*%
G04 APERTURE END LIST*
D10*
%TO.P,C31,1*%
%TO.N,RFSW PWR*%
X111163400Y-39878000D03*
%TO.P,C31,2*%
%TO.N,GND*%
X109613400Y-39878000D03*
%TD*%
D11*
%TO.P,L3,1,1*%
%TO.N,Net-(C20-Pad1)*%
X93520000Y-71875000D03*
%TO.P,L3,2,2*%
%TO.N,Net-(C22-Pad1)*%
X92880000Y-71875000D03*
%TD*%
D12*
%TO.P,C9,1*%
%TO.N,Net-(C9-Pad1)*%
X76184800Y-88595200D03*
%TO.P,C9,2*%
%TO.N,GND*%
X76824800Y-88595200D03*
%TD*%
D13*
%TO.P,C30,1*%
%TO.N,PA00 XIN32*%
X70967600Y-73827600D03*
%TO.P,C30,2*%
%TO.N,GND*%
X70967600Y-73187600D03*
%TD*%
D12*
%TO.P,C6,1*%
%TO.N,Net-(C6-Pad1)*%
X75780000Y-74800000D03*
%TO.P,C6,2*%
%TO.N,GND*%
X76420000Y-74800000D03*
%TD*%
D14*
%TO.P,R1,1*%
%TO.N,Net-(C3-Pad1)*%
X52448400Y-91236800D03*
%TO.P,R1,2*%
%TO.N,Net-(R1-Pad2)*%
X51488400Y-91236800D03*
%TD*%
D15*
%TO.P,U4,A1,RFI_HF*%
%TO.N,RFI HF*%
X71301100Y-81082800D03*
%TO.P,U4,A2,GND_RF*%
%TO.N,GND*%
X71951100Y-81082800D03*
%TO.P,U4,A3,PA00*%
%TO.N,PA00 XIN32*%
X72601100Y-81082800D03*
%TO.P,U4,A4,PA01*%
%TO.N,PA01 XOUT32*%
X73251100Y-81082800D03*
%TO.P,U4,A5,VDDCORE*%
%TO.N,Net-(C6-Pad1)*%
X73901100Y-81082800D03*
%TO.P,U4,A6,VSW*%
%TO.N,unconnected-(U4-PadA6)*%
X74551100Y-81082800D03*
%TO.P,U4,A7,VDDIN*%
%TO.N,VDD*%
X75201100Y-81082800D03*
%TO.P,U4,A8,VDDIO2*%
X75851100Y-81082800D03*
%TO.P,U4,B1,RFO_HF*%
%TO.N,RFO HF*%
X71301100Y-81732800D03*
%TO.P,U4,B2,GND_RF*%
%TO.N,GND*%
X71951100Y-81732800D03*
%TO.P,U4,B3,GNDANA*%
X72601100Y-81732800D03*
%TO.P,U4,B4,PB02*%
%TO.N,unconnected-(U4-PadB4)*%
X73251100Y-81732800D03*
%TO.P,U4,B5,GND*%
%TO.N,GND*%
X73901100Y-81732800D03*
%TO.P,U4,B6,~{RESET}*%
%TO.N,Net-(C3-Pad1)*%
X74551100Y-81732800D03*
%TO.P,U4,B7,GND*%
%TO.N,GND*%
X75201100Y-81732800D03*
%TO.P,U4,B8,PA24*%
%TO.N,unconnected-(U4-PadB8)*%
X75851100Y-81732800D03*
%TO.P,U4,C1,VBAT_RF*%
%TO.N,VDDA*%
X71301100Y-82382800D03*
%TO.P,U4,C2,VDDANA*%
X71951100Y-82382800D03*
%TO.P,U4,C3,PB03*%
%TO.N,unconnected-(U4-PadC3)*%
X72601100Y-82382800D03*
%TO.P,U4,C4,PA05*%
%TO.N,PA05 S0 UART RX*%
X73251100Y-82382800D03*
%TO.P,U4,C5,PA30*%
%TO.N,unconnected-(U4-PadC5)*%
X73901100Y-82382800D03*
%TO.P,U4,C6,PA28*%
%TO.N,unconnected-(U4-PadC6)*%
X74551100Y-82382800D03*
%TO.P,U4,C7,PB23*%
%TO.N,unconnected-(U4-PadC7)*%
X75201100Y-82382800D03*
%TO.P,U4,C8,PA25*%
%TO.N,unconnected-(U4-PadC8)*%
X75851100Y-82382800D03*
%TO.P,U4,D1,VR_PA*%
%TO.N,VR PA*%
X71301100Y-83032800D03*
%TO.P,U4,D2,RXTX*%
%TO.N,TXRX*%
X71951100Y-83032800D03*
%TO.P,U4,D3,PA04*%
%TO.N,PA04 S0 UART TX*%
X72601100Y-83032800D03*
%TO.P,U4,D4,GND*%
%TO.N,GND*%
X73251100Y-83032800D03*
%TO.P,U4,D5,PA31*%
%TO.N,unconnected-(U4-PadD5)*%
X73901100Y-83032800D03*
%TO.P,U4,D6,GND*%
%TO.N,GND*%
X74551100Y-83032800D03*
%TO.P,U4,D7,PA23*%
%TO.N,unconnected-(U4-PadD7)*%
X75201100Y-83032800D03*
%TO.P,U4,D8,PA22*%
%TO.N,unconnected-(U4-PadD8)*%
X75851100Y-83032800D03*
%TO.P,U4,E1,GND_RF*%
%TO.N,GND*%
X71301100Y-83682800D03*
%TO.P,U4,E2,GNDANA*%
X71951100Y-83682800D03*
%TO.P,U4,E3,PA06*%
%TO.N,unconnected-(U4-PadE3)*%
X72601100Y-83682800D03*
%TO.P,U4,E4,PA27*%
%TO.N,unconnected-(U4-PadE4)*%
X73251100Y-83682800D03*
%TO.P,U4,E5,PB22*%
%TO.N,unconnected-(U4-PadE5)*%
X73901100Y-83682800D03*
%TO.P,U4,E6,PA17*%
%TO.N,unconnected-(U4-PadE6)*%
X74551100Y-83682800D03*
%TO.P,U4,E7,PA18*%
%TO.N,unconnected-(U4-PadE7)*%
X75201100Y-83682800D03*
%TO.P,U4,E8,PA19*%
%TO.N,unconnected-(U4-PadE8)*%
X75851100Y-83682800D03*
%TO.P,U4,F1,PA_BOOST*%
%TO.N,PA BOOST*%
X71301100Y-84332800D03*
%TO.P,U4,F2,GND_RF*%
%TO.N,GND*%
X71951100Y-84332800D03*
%TO.P,U4,F3,PA07*%
%TO.N,unconnected-(U4-PadF3)*%
X72601100Y-84332800D03*
%TO.P,U4,F4,PA08*%
%TO.N,unconnected-(U4-PadF4)*%
X73251100Y-84332800D03*
%TO.P,U4,F5,PA09*%
%TO.N,RFSW PWR*%
X73901100Y-84332800D03*
%TO.P,U4,F6,PA13*%
%TO.N,BAND SEL*%
X74551100Y-84332800D03*
%TO.P,U4,F7,PA16*%
%TO.N,unconnected-(U4-PadF7)*%
X75201100Y-84332800D03*
%TO.P,U4,F8,PA14*%
%TO.N,unconnected-(U4-PadF8)*%
X75851100Y-84332800D03*
%TO.P,U4,G1,RFO_LF*%
%TO.N,unconnected-(U4-PadG1)*%
X71301100Y-84982800D03*
%TO.P,U4,G2,GND_RF*%
%TO.N,GND*%
X71951100Y-84982800D03*
%TO.P,U4,G3,GND_RF*%
X72601100Y-84982800D03*
%TO.P,U4,G4,VDDIO1*%
%TO.N,VDD*%
X73251100Y-84982800D03*
%TO.P,U4,G5,GND_RF*%
%TO.N,GND*%
X73901100Y-84982800D03*
%TO.P,U4,G6,GND_RF*%
X74551100Y-84982800D03*
%TO.P,U4,G7,GND_RF*%
X75201100Y-84982800D03*
%TO.P,U4,G8,PA15*%
%TO.N,unconnected-(U4-PadG8)*%
X75851100Y-84982800D03*
%TO.P,U4,H1,RFI_LF*%
%TO.N,unconnected-(U4-PadH1)*%
X71301100Y-85632800D03*
%TO.P,U4,H2,VR_ANA*%
%TO.N,Net-(C7-Pad1)*%
X71951100Y-85632800D03*
%TO.P,U4,H3,VBAT_ANA*%
%TO.N,VDDA*%
X72601100Y-85632800D03*
%TO.P,U4,H4,VR_DIG*%
%TO.N,Net-(C9-Pad1)*%
X73251100Y-85632800D03*
%TO.P,U4,H5,GND_RF*%
%TO.N,GND*%
X73901100Y-85632800D03*
%TO.P,U4,H6,XTA*%
%TO.N,XTA*%
X74551100Y-85632800D03*
%TO.P,U4,H7,XTB*%
%TO.N,unconnected-(U4-PadH7)*%
X75201100Y-85632800D03*
%TO.P,U4,H8,VBAT_DIG*%
%TO.N,VDD*%
X75851100Y-85632800D03*
%TD*%
D11*
%TO.P,C5,1*%
%TO.N,VDDA*%
X67071200Y-80822800D03*
%TO.P,C5,2*%
%TO.N,GND*%
X66431200Y-80822800D03*
%TD*%
D12*
%TO.P,C15,1*%
%TO.N,RFSW PWR*%
X105805000Y-77325000D03*
%TO.P,C15,2*%
%TO.N,GND*%
X106445000Y-77325000D03*
%TD*%
D11*
%TO.P,C8,1*%
%TO.N,Net-(C7-Pad1)*%
X69052400Y-86410800D03*
%TO.P,C8,2*%
%TO.N,GND*%
X68412400Y-86410800D03*
%TD*%
%TO.P,L4,1,1*%
%TO.N,Net-(C21-Pad1)*%
X100470000Y-82425000D03*
%TO.P,L4,2,2*%
%TO.N,Net-(C23-Pad1)*%
X99830000Y-82425000D03*
%TD*%
D12*
%TO.P,C2,1*%
%TO.N,VDD*%
X75855000Y-79500000D03*
%TO.P,C2,2*%
%TO.N,GND*%
X76495000Y-79500000D03*
%TD*%
D11*
%TO.P,C19,1*%
%TO.N,Net-(C18-Pad2)*%
X107795000Y-76100000D03*
%TO.P,C19,2*%
%TO.N,GND*%
X107155000Y-76100000D03*
%TD*%
D16*
%TO.P,XC1,1,NC*%
%TO.N,unconnected-(XC1-Pad1)*%
X113750200Y-42809000D03*
%TO.P,XC1,2,GND*%
%TO.N,GND*%
X111700201Y-42809000D03*
%TO.P,XC1,3,OUTPUT*%
%TO.N,XTA*%
X111700201Y-44259000D03*
%TO.P,XC1,4,VDD*%
%TO.N,RFSW PWR*%
X113750200Y-44259000D03*
%TD*%
D13*
%TO.P,C21,1*%
%TO.N,Net-(C21-Pad1)*%
X102950000Y-82445000D03*
%TO.P,C21,2*%
%TO.N,GND*%
X102950000Y-81805000D03*
%TD*%
D17*
%TO.P,C11,1*%
%TO.N,VDDA*%
X73914000Y-89646800D03*
%TO.P,C11,2*%
%TO.N,GND*%
X73914000Y-90286800D03*
%TD*%
D13*
%TO.P,C29,1*%
%TO.N,PA01 XOUT32*%
X74472800Y-73776800D03*
%TO.P,C29,2*%
%TO.N,GND*%
X74472800Y-73136800D03*
%TD*%
D11*
%TO.P,L1,1,1*%
%TO.N,Net-(C16-Pad1)*%
X98720000Y-71875000D03*
%TO.P,L1,2,2*%
%TO.N,Net-(C20-Pad1)*%
X98080000Y-71875000D03*
%TD*%
D18*
%TO.P,SW1,1,1*%
%TO.N,GND*%
X46177200Y-84552400D03*
X39677200Y-84552400D03*
%TO.P,SW1,2,2*%
%TO.N,Net-(R1-Pad2)*%
X39677200Y-89052400D03*
X46177200Y-89052400D03*
%TD*%
D17*
%TO.P,C20,1*%
%TO.N,Net-(C20-Pad1)*%
X95700000Y-71880000D03*
%TO.P,C20,2*%
%TO.N,GND*%
X95700000Y-72520000D03*
%TD*%
D19*
%TO.P,Y1,1,1*%
%TO.N,PA01 XOUT32*%
X73752800Y-77520800D03*
%TO.P,Y1,2,2*%
%TO.N,PA00 XIN32*%
X72652800Y-77520800D03*
%TD*%
D11*
%TO.P,C24,1*%
%TO.N,Net-(C22-Pad1)*%
X87920000Y-71875000D03*
%TO.P,C24,2*%
%TO.N,Net-(C24-Pad2)*%
X87280000Y-71875000D03*
%TD*%
D20*
%TO.P,BT1,1,+*%
%TO.N,Net-(BT1-Pad1)*%
X89865200Y-57302400D03*
D21*
%TO.P,BT1,2,-*%
%TO.N,GND*%
X89865200Y-44602400D03*
%TD*%
D11*
%TO.P,L9,1,1*%
%TO.N,Net-(C24-Pad2)*%
X80920000Y-71925000D03*
%TO.P,L9,2,2*%
%TO.N,PA BOOST*%
X80280000Y-71925000D03*
%TD*%
D22*
%TO.P,R2,1*%
%TO.N,VDD*%
X51539200Y-86918800D03*
%TO.P,R2,2*%
%TO.N,Net-(C3-Pad1)*%
X52499200Y-86918800D03*
%TD*%
D17*
%TO.P,C12,1*%
%TO.N,VDDA*%
X77927200Y-89646800D03*
%TO.P,C12,2*%
%TO.N,GND*%
X77927200Y-90286800D03*
%TD*%
D23*
%TO.P,U1,1,GND*%
%TO.N,GND*%
X100533200Y-57861200D03*
D24*
%TO.P,U1,2,VO*%
%TO.N,VDD*%
X100533200Y-60401200D03*
%TO.P,U1,3,VI*%
%TO.N,Net-(BT1-Pad1)*%
X100533200Y-62941200D03*
%TD*%
D13*
%TO.P,C27,1*%
%TO.N,VR PA*%
X80700000Y-76970000D03*
%TO.P,C27,2*%
%TO.N,GND*%
X80700000Y-76330000D03*
%TD*%
D17*
%TO.P,C22,1*%
%TO.N,Net-(C22-Pad1)*%
X90625000Y-71880000D03*
%TO.P,C22,2*%
%TO.N,GND*%
X90625000Y-72520000D03*
%TD*%
%TO.P,C28,1*%
%TO.N,RFO HF*%
X87275000Y-82505000D03*
%TO.P,C28,2*%
%TO.N,GND*%
X87275000Y-83145000D03*
%TD*%
D23*
%TO.P,U2,1,GND*%
%TO.N,GND*%
X100533200Y-38709600D03*
D24*
%TO.P,U2,2,VO*%
%TO.N,VDDA*%
X100533200Y-41249600D03*
%TO.P,U2,3,VI*%
%TO.N,Net-(BT1-Pad1)*%
X100533200Y-43789600D03*
%TD*%
D17*
%TO.P,C18,1*%
%TO.N,Net-(C18-Pad1)*%
X107800000Y-73030000D03*
%TO.P,C18,2*%
%TO.N,Net-(C18-Pad2)*%
X107800000Y-73670000D03*
%TD*%
D12*
%TO.P,C13,1*%
%TO.N,VDD*%
X78680000Y-85625000D03*
%TO.P,C13,2*%
%TO.N,GND*%
X79320000Y-85625000D03*
%TD*%
D11*
%TO.P,L5,1,1*%
%TO.N,Net-(C18-Pad2)*%
X107795000Y-78775000D03*
%TO.P,L5,2,2*%
%TO.N,RFI HF*%
X107155000Y-78775000D03*
%TD*%
%TO.P,C1,1*%
%TO.N,VDD*%
X81600000Y-86614000D03*
%TO.P,C1,2*%
%TO.N,GND*%
X80960000Y-86614000D03*
%TD*%
%TO.P,L6,1,1*%
%TO.N,Net-(C23-Pad1)*%
X94620000Y-82480000D03*
%TO.P,L6,2,2*%
%TO.N,Net-(C26-Pad1)*%
X93980000Y-82480000D03*
%TD*%
D17*
%TO.P,C7,1*%
%TO.N,Net-(C7-Pad1)*%
X71526400Y-87106800D03*
%TO.P,C7,2*%
%TO.N,GND*%
X71526400Y-87746800D03*
%TD*%
%TO.P,L7,1,1*%
%TO.N,Net-(C24-Pad2)*%
X87275000Y-76275000D03*
%TO.P,L7,2,2*%
%TO.N,VR PA*%
X87275000Y-76915000D03*
%TD*%
%TO.P,L8,1,1*%
%TO.N,VR PA*%
X87275000Y-79405000D03*
%TO.P,L8,2,2*%
%TO.N,RFO HF*%
X87275000Y-80045000D03*
%TD*%
%TO.P,C16,1*%
%TO.N,Net-(C16-Pad1)*%
X101525000Y-71880000D03*
%TO.P,C16,2*%
%TO.N,GND*%
X101525000Y-72520000D03*
%TD*%
D12*
%TO.P,C4,1*%
%TO.N,VDD*%
X75830000Y-77200000D03*
%TO.P,C4,2*%
%TO.N,GND*%
X76470000Y-77200000D03*
%TD*%
D13*
%TO.P,C17,1*%
%TO.N,Net-(C17-Pad1)*%
X109325000Y-82445000D03*
%TO.P,C17,2*%
%TO.N,GND*%
X109325000Y-81805000D03*
%TD*%
D25*
%TO.P,U3,1,J1*%
%TO.N,Net-(C16-Pad1)*%
X103910000Y-71900000D03*
%TO.P,U3,2,GND*%
%TO.N,GND*%
X103910000Y-72400000D03*
%TO.P,U3,3,J3*%
%TO.N,Net-(C17-Pad1)*%
X103910000Y-72900000D03*
D26*
%TO.P,U3,4,V1*%
%TO.N,BAND SEL*%
X104450000Y-73440000D03*
%TO.P,U3,5,V2*%
%TO.N,TXRX*%
X104950000Y-73440000D03*
%TO.P,U3,6,VDD*%
%TO.N,RFSW PWR*%
X105450000Y-73440000D03*
D25*
%TO.P,U3,7,GND*%
%TO.N,GND*%
X105990000Y-72900000D03*
%TO.P,U3,8,GND*%
X105990000Y-72400000D03*
%TO.P,U3,9,J2*%
%TO.N,Net-(C18-Pad1)*%
X105990000Y-71900000D03*
D26*
%TO.P,U3,10,GND*%
%TO.N,GND*%
X105450000Y-71360000D03*
%TO.P,U3,11,RFC*%
%TO.N,Net-(J1-Pad1)*%
X104950000Y-71360000D03*
%TO.P,U3,12,GND*%
%TO.N,GND*%
X104450000Y-71360000D03*
D27*
%TO.P,U3,13,GND*%
X104950000Y-72400000D03*
%TD*%
D13*
%TO.P,C23,1*%
%TO.N,Net-(C23-Pad1)*%
X97450000Y-82445000D03*
%TO.P,C23,2*%
%TO.N,GND*%
X97450000Y-81805000D03*
%TD*%
D11*
%TO.P,C26,1*%
%TO.N,Net-(C26-Pad1)*%
X91895000Y-82500000D03*
%TO.P,C26,2*%
%TO.N,RFO HF*%
X91255000Y-82500000D03*
%TD*%
%TO.P,L2,1,1*%
%TO.N,Net-(C17-Pad1)*%
X106420000Y-82425000D03*
%TO.P,L2,2,2*%
%TO.N,Net-(C21-Pad1)*%
X105780000Y-82425000D03*
%TD*%
D12*
%TO.P,C3,1*%
%TO.N,Net-(C3-Pad1)*%
X65821600Y-84328000D03*
%TO.P,C3,2*%
%TO.N,GND*%
X66461600Y-84328000D03*
%TD*%
D28*
%TO.P,J1,1*%
%TO.N,Net-(J1-Pad1)*%
X114053300Y-74980800D03*
D29*
%TO.P,J1,2*%
%TO.N,GND*%
X114076300Y-77805800D03*
D30*
X114076300Y-72155800D03*
%TD*%
D17*
%TO.P,C10,1*%
%TO.N,VDDA*%
X69850000Y-89646800D03*
%TO.P,C10,2*%
%TO.N,GND*%
X69850000Y-90286800D03*
%TD*%
%TO.P,C25,1*%
%TO.N,Net-(C24-Pad2)*%
X84625000Y-71880000D03*
%TO.P,C25,2*%
%TO.N,GND*%
X84625000Y-72520000D03*
%TD*%
D31*
%TO.N,GND*%
X89650000Y-74825000D03*
X86500000Y-85725000D03*
D32*
X80725000Y-73950000D03*
D31*
X63347600Y-90271600D03*
D32*
X73575000Y-81375000D03*
D31*
X104325000Y-69850000D03*
D32*
X74875000Y-81375000D03*
X74900000Y-82725000D03*
D31*
X114250000Y-69850000D03*
D32*
X83700000Y-73950000D03*
D31*
X71625000Y-79425000D03*
X67818000Y-85496400D03*
D32*
X73575000Y-82725000D03*
D31*
X76475000Y-71025000D03*
D32*
%TO.N,RFSW PWR*%
X74250000Y-84000000D03*
X113750200Y-46875200D03*
X105725000Y-76450000D03*
X100050000Y-77325000D03*
%TO.N,Net-(C17-Pad1)*%
X102550000Y-73450000D03*
X111000000Y-82450000D03*
%TO.N,RFO HF*%
X69800000Y-81725000D03*
X62700000Y-85700000D03*
%TO.N,VR PA*%
X71625000Y-82700000D03*
X77725000Y-76975000D03*
%TO.N,RFI HF*%
X108325000Y-80700000D03*
X69900000Y-79650000D03*
%TO.N,PA BOOST*%
X71600000Y-84050000D03*
X71600000Y-84050000D03*
X78975000Y-71925000D03*
%TO.N,TXRX*%
X71625000Y-83325000D03*
X104075000Y-76875000D03*
%TO.N,BAND SEL*%
X74900000Y-84000000D03*
X103650000Y-74525000D03*
%TO.N,XTA*%
X111700000Y-45575000D03*
X74246650Y-85328350D03*
D31*
%TO.N,VDD*%
X78150000Y-80075000D03*
D32*
X83375000Y-86625000D03*
D31*
X81610200Y-84963000D03*
D32*
X73600000Y-84650000D03*
D31*
X51562000Y-84124800D03*
D32*
%TO.N,Net-(C3-Pad1)*%
X65825000Y-85550000D03*
X74225000Y-82050000D03*
D31*
%TO.N,VDDA*%
X66954400Y-89357200D03*
D32*
X72250000Y-82075000D03*
X68300000Y-80825000D03*
%TD*%
D33*
%TO.N,GND*%
X77962800Y-90322400D02*
X77927200Y-90286800D01*
X71951100Y-84332800D02*
X71951100Y-83682800D01*
X80725000Y-73950000D02*
X80725000Y-76305000D01*
X72058900Y-81625000D02*
X71951100Y-81732800D01*
X73575000Y-82725000D02*
X73558900Y-82725000D01*
X86500000Y-83920000D02*
X87275000Y-83145000D01*
X86500000Y-85725000D02*
X86500000Y-83920000D01*
X76470000Y-77200000D02*
X76470000Y-79475000D01*
X74551100Y-84982800D02*
X75201100Y-84982800D01*
X69631600Y-83682800D02*
X67818000Y-85496400D01*
X100533200Y-38709600D02*
X108725000Y-38709600D01*
X104450000Y-71360000D02*
X104450000Y-69975000D01*
X73901100Y-86001100D02*
X74525000Y-86625000D01*
X73901100Y-85632800D02*
X73901100Y-86001100D01*
X71526400Y-87746800D02*
X69338715Y-87746800D01*
X83700000Y-73445000D02*
X84625000Y-72520000D01*
D34*
X114250000Y-71982100D02*
X114076300Y-72155800D01*
D33*
X76420000Y-74800000D02*
X76475000Y-74745000D01*
X79298800Y-88798400D02*
X79298800Y-89865200D01*
X80335200Y-86664800D02*
X80909200Y-86664800D01*
X74472800Y-73136800D02*
X74472800Y-73027200D01*
X109626400Y-40119000D02*
X109867400Y-39878000D01*
X73914000Y-90286800D02*
X77927200Y-90286800D01*
X73575000Y-81406700D02*
X73901100Y-81732800D01*
X107155000Y-76615000D02*
X106445000Y-77325000D01*
X80960000Y-86210000D02*
X80375000Y-85625000D01*
X80960000Y-86614000D02*
X80960000Y-86210000D01*
X104950000Y-72400000D02*
X104450000Y-71900000D01*
X69338715Y-87746800D02*
X68412400Y-86820485D01*
X69850000Y-90286800D02*
X73914000Y-90286800D01*
X71951100Y-81082800D02*
X71951100Y-79751100D01*
X89650000Y-74825000D02*
X91955000Y-72520000D01*
X74900000Y-82725000D02*
X74858900Y-82725000D01*
X91955000Y-72520000D02*
X95700000Y-72520000D01*
X71951100Y-83682800D02*
X71301100Y-83682800D01*
X72493300Y-81625000D02*
X72058900Y-81625000D01*
X68412400Y-86820485D02*
X68412400Y-86410800D01*
X73558900Y-82725000D02*
X73251100Y-83032800D01*
X105990000Y-72400000D02*
X105990000Y-72900000D01*
X79298800Y-87701200D02*
X80335200Y-86664800D01*
X104950000Y-72400000D02*
X105990000Y-72400000D01*
X69834800Y-90271600D02*
X69850000Y-90286800D01*
X72601100Y-84982800D02*
X71951100Y-84982800D01*
X108725000Y-38709600D02*
X109893400Y-39878000D01*
X79298800Y-88595200D02*
X79298800Y-87701200D01*
X79298800Y-88595200D02*
X79298800Y-88798400D01*
X76470000Y-79475000D02*
X76495000Y-79500000D01*
X73575000Y-81375000D02*
X73575000Y-81406700D01*
X71951100Y-84982800D02*
X71951100Y-84332800D01*
X80909200Y-86664800D02*
X80960000Y-86614000D01*
X75400000Y-86625000D02*
X76824800Y-88049800D01*
X110525400Y-42809000D02*
X111700201Y-42809000D01*
X114076300Y-77805800D02*
X113324200Y-77805800D01*
X71018400Y-73136800D02*
X70967600Y-73187600D01*
X73901100Y-85632800D02*
X73901100Y-84982800D01*
X95700000Y-72520000D02*
X101525000Y-72520000D01*
X63347600Y-90271600D02*
X69834800Y-90271600D01*
X89650000Y-74825000D02*
X96630000Y-81805000D01*
X74472800Y-73027200D02*
X76475000Y-71025000D01*
X68412400Y-86410800D02*
X68412400Y-86090800D01*
X113791300Y-72440800D02*
X114076300Y-72155800D01*
X80725000Y-76305000D02*
X80700000Y-76330000D01*
X91275000Y-73200000D02*
X91275000Y-73170000D01*
X74525000Y-86625000D02*
X75400000Y-86625000D01*
X101530000Y-72525000D02*
X101525000Y-72520000D01*
X109613400Y-39878000D02*
X109613400Y-41897000D01*
X74858900Y-82725000D02*
X74551100Y-83032800D01*
X66461600Y-87157600D02*
X63347600Y-90271600D01*
X96630000Y-81805000D02*
X97450000Y-81805000D01*
X103910000Y-72400000D02*
X102925000Y-72400000D01*
X107155000Y-76100000D02*
X107155000Y-76615000D01*
X104450000Y-69975000D02*
X104325000Y-69850000D01*
X66461600Y-80853200D02*
X66431200Y-80822800D01*
X72601100Y-81732800D02*
X72493300Y-81625000D01*
X76824800Y-88595200D02*
X79298800Y-88595200D01*
D34*
X114250000Y-69850000D02*
X114250000Y-71982100D01*
D33*
X76420000Y-74800000D02*
X76420000Y-77150000D01*
X71301100Y-83682800D02*
X69631600Y-83682800D01*
X76475000Y-74745000D02*
X76475000Y-71025000D01*
X103910000Y-72400000D02*
X104950000Y-72400000D01*
X91275000Y-73170000D02*
X90625000Y-72520000D01*
X66461600Y-84328000D02*
X66461600Y-80853200D01*
X113324200Y-77805800D02*
X109325000Y-81805000D01*
X109325000Y-81805000D02*
X102950000Y-81805000D01*
X104450000Y-71900000D02*
X104450000Y-71360000D01*
X102800000Y-72525000D02*
X101530000Y-72525000D01*
X105990000Y-74935000D02*
X107155000Y-76100000D01*
X74472800Y-73136800D02*
X71018400Y-73136800D01*
X80375000Y-85625000D02*
X79320000Y-85625000D01*
X66461600Y-84328000D02*
X66461600Y-87157600D01*
X102925000Y-72400000D02*
X102800000Y-72525000D01*
X78841600Y-90322400D02*
X77962800Y-90322400D01*
X76824800Y-88049800D02*
X76824800Y-88595200D01*
X74875000Y-81406700D02*
X75201100Y-81732800D01*
X68412400Y-86090800D02*
X67818000Y-85496400D01*
X74875000Y-81375000D02*
X74875000Y-81406700D01*
X83700000Y-73950000D02*
X83700000Y-73445000D01*
X109613400Y-41897000D02*
X110525400Y-42809000D01*
X102950000Y-81805000D02*
X97450000Y-81805000D01*
X71951100Y-79751100D02*
X71625000Y-79425000D01*
X71951100Y-81732800D02*
X71951100Y-81082800D01*
X105990000Y-72900000D02*
X105990000Y-74935000D01*
X73901100Y-84982800D02*
X74551100Y-84982800D01*
X76420000Y-77150000D02*
X76470000Y-77200000D01*
X89650000Y-74825000D02*
X91275000Y-73200000D01*
X79298800Y-89865200D02*
X78841600Y-90322400D01*
%TO.N,RFSW PWR*%
X111417400Y-39878000D02*
X113131600Y-39878000D01*
X105725000Y-77245000D02*
X105805000Y-77325000D01*
X74233900Y-84000000D02*
X73910148Y-84323752D01*
X113750200Y-44259000D02*
X113750200Y-46875200D01*
X114909600Y-43383200D02*
X114033800Y-44259000D01*
X113131600Y-39878000D02*
X114909600Y-41656000D01*
X114033800Y-44259000D02*
X113750200Y-44259000D01*
X105725000Y-76450000D02*
X105725000Y-77245000D01*
X105450000Y-76175000D02*
X105450000Y-73440000D01*
X105725000Y-76450000D02*
X105450000Y-76175000D01*
X114909600Y-41656000D02*
X114909600Y-43383200D01*
X74250000Y-84000000D02*
X74233900Y-84000000D01*
X105805000Y-77325000D02*
X100050000Y-77325000D01*
D35*
%TO.N,Net-(C16-Pad1)*%
X101545000Y-71900000D02*
X101525000Y-71880000D01*
D36*
X103910000Y-71900000D02*
X101545000Y-71900000D01*
X101525000Y-71880000D02*
X98725000Y-71880000D01*
D35*
X98725000Y-71880000D02*
X98720000Y-71875000D01*
D33*
%TO.N,Net-(C17-Pad1)*%
X109330000Y-82450000D02*
X109325000Y-82445000D01*
D35*
X109305000Y-82425000D02*
X109325000Y-82445000D01*
D36*
X103910000Y-72900000D02*
X103100000Y-72900000D01*
X111000000Y-82450000D02*
X109330000Y-82450000D01*
X106420000Y-82425000D02*
X109305000Y-82425000D01*
X103100000Y-72900000D02*
X102550000Y-73450000D01*
%TO.N,Net-(C18-Pad1)*%
X106670000Y-71900000D02*
X107800000Y-73030000D01*
X105990000Y-71900000D02*
X106670000Y-71900000D01*
%TO.N,Net-(C18-Pad2)*%
X107795000Y-76100000D02*
X107795000Y-78775000D01*
X107800000Y-73670000D02*
X107800000Y-76095000D01*
D33*
X107800000Y-76095000D02*
X107795000Y-76100000D01*
D36*
%TO.N,Net-(C20-Pad1)*%
X98080000Y-71875000D02*
X95705000Y-71875000D01*
X95700000Y-71880000D02*
X93525000Y-71880000D01*
D35*
X95705000Y-71875000D02*
X95700000Y-71880000D01*
X93525000Y-71880000D02*
X93520000Y-71875000D01*
%TO.N,Net-(C21-Pad1)*%
X102930000Y-82425000D02*
X102950000Y-82445000D01*
D36*
X102950000Y-82445000D02*
X105760000Y-82445000D01*
D35*
X105760000Y-82445000D02*
X105780000Y-82425000D01*
D36*
X100470000Y-82425000D02*
X102930000Y-82425000D01*
D35*
%TO.N,Net-(C22-Pad1)*%
X90630000Y-71875000D02*
X90625000Y-71880000D01*
D36*
X90625000Y-71880000D02*
X87925000Y-71880000D01*
X92880000Y-71875000D02*
X90630000Y-71875000D01*
D35*
X87925000Y-71880000D02*
X87920000Y-71875000D01*
%TO.N,Net-(C23-Pad1)*%
X97415000Y-82480000D02*
X97450000Y-82445000D01*
X99810000Y-82445000D02*
X99830000Y-82425000D01*
D36*
X94620000Y-82480000D02*
X97415000Y-82480000D01*
X97450000Y-82445000D02*
X99810000Y-82445000D01*
D35*
%TO.N,Net-(C24-Pad2)*%
X84630000Y-71875000D02*
X84625000Y-71880000D01*
X84625000Y-71880000D02*
X84580000Y-71925000D01*
D36*
X84580000Y-71925000D02*
X80920000Y-71925000D01*
D35*
X87280000Y-76270000D02*
X87275000Y-76275000D01*
D36*
X87280000Y-71875000D02*
X84630000Y-71875000D01*
X87280000Y-71875000D02*
X87280000Y-76270000D01*
D35*
%TO.N,Net-(C26-Pad1)*%
X93960000Y-82500000D02*
X93980000Y-82480000D01*
D36*
X91895000Y-82500000D02*
X93960000Y-82500000D01*
%TO.N,RFO HF*%
X69800000Y-81725000D02*
X71293300Y-81725000D01*
X87275000Y-80045000D02*
X87275000Y-82505000D01*
X62700000Y-90492328D02*
X62700000Y-85700000D01*
X82255000Y-91500000D02*
X63707672Y-91500000D01*
X91255000Y-82500000D02*
X82255000Y-91500000D01*
X87275000Y-82505000D02*
X91250000Y-82505000D01*
X63707672Y-91500000D02*
X62700000Y-90492328D01*
D35*
X71293300Y-81725000D02*
X71301100Y-81732800D01*
X91250000Y-82505000D02*
X91255000Y-82500000D01*
%TO.N,VR PA*%
X71625000Y-82700000D02*
X71578248Y-82700000D01*
X87275000Y-76915000D02*
X80755000Y-76915000D01*
X80700000Y-76970000D02*
X77730000Y-76970000D01*
X77730000Y-76970000D02*
X77725000Y-76975000D01*
D36*
X87275000Y-76915000D02*
X87275000Y-79405000D01*
D35*
X71578248Y-82700000D02*
X71273274Y-83004974D01*
X80755000Y-76915000D02*
X80700000Y-76970000D01*
D33*
%TO.N,PA01 XOUT32*%
X73752800Y-79206000D02*
X73752800Y-77520800D01*
X73752800Y-74496800D02*
X74472800Y-73776800D01*
X73752800Y-77520800D02*
X73752800Y-74496800D01*
X73251100Y-81082800D02*
X73251100Y-79707700D01*
X73251100Y-79707700D02*
X73752800Y-79206000D01*
%TO.N,PA00 XIN32*%
X72601100Y-81082800D02*
X72601100Y-77733700D01*
X72652800Y-75512800D02*
X70967600Y-73827600D01*
X72601100Y-77733700D02*
X72814000Y-77520800D01*
X72652800Y-77520800D02*
X72652800Y-75512800D01*
D36*
%TO.N,Net-(J1-Pad1)*%
X105525000Y-70225000D02*
X104950000Y-70800000D01*
X111230800Y-74980800D02*
X106475000Y-70225000D01*
X104950000Y-70800000D02*
X104950000Y-71360000D01*
X114053300Y-74980800D02*
X111230800Y-74980800D01*
X106475000Y-70225000D02*
X105525000Y-70225000D01*
D33*
%TO.N,RFI HF*%
X69900000Y-79650000D02*
X69900000Y-79681700D01*
D36*
X69900000Y-79681700D02*
X71301100Y-81082800D01*
X107155000Y-79530000D02*
X108325000Y-80700000D01*
X107155000Y-78775000D02*
X107155000Y-79530000D01*
D33*
%TO.N,PA BOOST*%
X71608900Y-84025000D02*
X71625000Y-84025000D01*
D36*
X71301100Y-84332800D02*
X71600000Y-84050000D01*
D33*
X71600000Y-84050000D02*
X71608900Y-84025000D01*
D36*
X80280000Y-71925000D02*
X78975000Y-71925000D01*
D33*
%TO.N,TXRX*%
X71658900Y-83325000D02*
X71951100Y-83032800D01*
X104950000Y-76000000D02*
X104075000Y-76875000D01*
X71625000Y-83325000D02*
X71658900Y-83325000D01*
X104950000Y-73440000D02*
X104950000Y-76000000D01*
%TO.N,BAND SEL*%
X104450000Y-73440000D02*
X104450000Y-73725000D01*
X104450000Y-73725000D02*
X103650000Y-74525000D01*
X74883900Y-84000000D02*
X74551100Y-84332800D01*
X74900000Y-84000000D02*
X74883900Y-84000000D01*
%TO.N,XTA*%
X111700201Y-44259000D02*
X111700201Y-45574799D01*
X74551100Y-85632800D02*
X74246650Y-85328350D01*
X111700201Y-45574799D02*
X111700000Y-45575000D01*
%TO.N,VDD*%
X79037000Y-84963000D02*
X81610200Y-84963000D01*
X75858900Y-81075000D02*
X75851100Y-81082800D01*
D37*
X75855000Y-79500000D02*
X75851100Y-79503900D01*
D33*
X78680000Y-85320000D02*
X79037000Y-84963000D01*
X81600000Y-86614000D02*
X83364000Y-86614000D01*
X51562000Y-86896000D02*
X51539200Y-86918800D01*
X78672200Y-85632800D02*
X75851100Y-85632800D01*
X75201100Y-77828900D02*
X75201100Y-81082800D01*
X75830000Y-77200000D02*
X75201100Y-77828900D01*
X78680000Y-85625000D02*
X78672200Y-85632800D01*
X75851100Y-81082800D02*
X75219197Y-81082800D01*
D37*
X73583900Y-84650000D02*
X73600000Y-84650000D01*
D33*
X83364000Y-86614000D02*
X83375000Y-86625000D01*
X81600000Y-84973200D02*
X81610200Y-84963000D01*
X78150000Y-80075000D02*
X77150000Y-81075000D01*
X77150000Y-81075000D02*
X75858900Y-81075000D01*
X75219197Y-81082800D02*
X75210148Y-81073751D01*
X81600000Y-86614000D02*
X81600000Y-84973200D01*
X78680000Y-85625000D02*
X78680000Y-85320000D01*
X75851100Y-79503900D02*
X75851100Y-81082800D01*
X51562000Y-84124800D02*
X51562000Y-86896000D01*
X73251100Y-84982800D02*
X73583900Y-84650000D01*
%TO.N,Net-(C3-Pad1)*%
X61823600Y-84328000D02*
X65821600Y-84328000D01*
X52448400Y-86969600D02*
X52499200Y-86918800D01*
X52448400Y-91236800D02*
X52448400Y-86969600D01*
X65821600Y-84328000D02*
X65825000Y-84331400D01*
X59232800Y-86918800D02*
X61823600Y-84328000D01*
X52499200Y-86918800D02*
X59232800Y-86918800D01*
X74551100Y-81732800D02*
X74233900Y-82050000D01*
X65825000Y-84331400D02*
X65825000Y-85550000D01*
X74233900Y-82050000D02*
X74225000Y-82050000D01*
%TO.N,VDDA*%
X72250000Y-82075000D02*
X72250000Y-82083900D01*
X67934400Y-82382800D02*
X71301100Y-82382800D01*
X68681600Y-88290400D02*
X67056000Y-86664800D01*
X72250000Y-82083900D02*
X71951100Y-82382800D01*
X71818300Y-82250000D02*
X71951100Y-82382800D01*
X72601100Y-88333900D02*
X68725100Y-88333900D01*
X67071200Y-80822800D02*
X68297800Y-80822800D01*
X68297800Y-80822800D02*
X68300000Y-80825000D01*
X72601100Y-88333900D02*
X73914000Y-89646800D01*
X67056000Y-83261200D02*
X67934400Y-82382800D01*
X73914000Y-89646800D02*
X69850000Y-89646800D01*
X68725100Y-88333900D02*
X68681600Y-88290400D01*
X67244000Y-89646800D02*
X69850000Y-89646800D01*
X71433900Y-82250000D02*
X71818300Y-82250000D01*
X72601100Y-85632800D02*
X72601100Y-88333900D01*
X73914000Y-89646800D02*
X73797200Y-89646800D01*
X66954400Y-89357200D02*
X67244000Y-89646800D01*
X77927200Y-89646800D02*
X73914000Y-89646800D01*
X71301100Y-82382800D02*
X71433900Y-82250000D01*
X67056000Y-86664800D02*
X67056000Y-83261200D01*
%TO.N,Net-(C6-Pad1)*%
X73901100Y-79768900D02*
X73901100Y-81082800D01*
X74523600Y-75501400D02*
X74523600Y-79146400D01*
X75225000Y-74800000D02*
X74523600Y-75501400D01*
X74523600Y-79146400D02*
X73901100Y-79768900D01*
X75780000Y-74800000D02*
X75225000Y-74800000D01*
%TO.N,Net-(C7-Pad1)*%
X71526400Y-87106800D02*
X69748400Y-87106800D01*
X71951100Y-85632800D02*
X71951100Y-86682100D01*
X69748400Y-87106800D02*
X69052400Y-86410800D01*
X71951100Y-86682100D02*
X71526400Y-87106800D01*
%TO.N,Net-(C9-Pad1)*%
X74472800Y-88595200D02*
X73251100Y-87373500D01*
X73251100Y-87373500D02*
X73251100Y-85632800D01*
X76184800Y-88595200D02*
X74472800Y-88595200D01*
%TO.N,Net-(R1-Pad2)*%
X49304000Y-89052400D02*
X51488400Y-91236800D01*
X46177200Y-89052400D02*
X49304000Y-89052400D01*
X39677200Y-89052400D02*
X46177200Y-89052400D01*
%TD*%
M02*
