%TF.GenerationSoftware,KiCad,Pcbnew,6.0.9-8da3e8f707~117~ubuntu22.04.1*%
%TF.CreationDate,2022-12-19T03:44:25-03:00*%
%TF.ProjectId,kiproject,6b697072-6f6a-4656-9374-2e6b69636164,rev?*%
%TF.SameCoordinates,Original*%
%TF.FileFunction,Copper,L3,Inr*%
%TF.FilePolarity,Positive*%
%FSLAX46Y46*%
G04 Gerber Fmt 4.6, Leading zero omitted, Abs format (unit mm)*
G04 Created by KiCad (PCBNEW 6.0.9-8da3e8f707~117~ubuntu22.04.1) date 2022-12-19 03:44:25*
%MOMM*%
%LPD*%
G01*
G04 APERTURE LIST*
%TA.AperFunction,ComponentPad*%
%ADD10C,2.000000*%
%TD*%
%TA.AperFunction,ComponentPad*%
%ADD11R,3.000000X3.000000*%
%TD*%
%TA.AperFunction,ComponentPad*%
%ADD12C,3.000000*%
%TD*%
%TA.AperFunction,ComponentPad*%
%ADD13R,1.905000X1.905000*%
%TD*%
%TA.AperFunction,ComponentPad*%
%ADD14C,1.905000*%
%TD*%
%TA.AperFunction,ViaPad*%
%ADD15C,0.800000*%
%TD*%
%TA.AperFunction,ViaPad*%
%ADD16C,0.300000*%
%TD*%
%TA.AperFunction,Conductor*%
%ADD17C,1.000000*%
%TD*%
G04 APERTURE END LIST*
D10*
%TO.N,GND*%
%TO.C,SW1*%
X46177200Y-84552400D03*
X39677200Y-84552400D03*
%TO.N,Net-(R1-Pad2)*%
X39677200Y-89052400D03*
X46177200Y-89052400D03*
%TD*%
D11*
%TO.N,Net-(BT1-Pad1)*%
%TO.C,BT1*%
X89865200Y-57302400D03*
D12*
%TO.N,GND*%
X89865200Y-44602400D03*
%TD*%
D13*
%TO.N,GND*%
%TO.C,U1*%
X100533200Y-57861200D03*
D14*
%TO.N,VDD*%
X100533200Y-60401200D03*
%TO.N,Net-(BT1-Pad1)*%
X100533200Y-62941200D03*
%TD*%
D13*
%TO.N,GND*%
%TO.C,U2*%
X100533200Y-38709600D03*
D14*
%TO.N,VDDA*%
X100533200Y-41249600D03*
%TO.N,Net-(BT1-Pad1)*%
X100533200Y-43789600D03*
%TD*%
D15*
%TO.N,GND*%
X89650000Y-74825000D03*
X86500000Y-85725000D03*
D16*
X80725000Y-73950000D03*
D15*
X63347600Y-90271600D03*
D16*
X73575000Y-81375000D03*
D15*
X104325000Y-69850000D03*
D16*
X74875000Y-81375000D03*
X74900000Y-82725000D03*
D15*
X114250000Y-69850000D03*
D16*
X83700000Y-73950000D03*
D15*
X71625000Y-79425000D03*
X67818000Y-85496400D03*
D16*
X73575000Y-82725000D03*
D15*
X76475000Y-71025000D03*
D16*
%TO.N,RFSW PWR*%
X74250000Y-84000000D03*
X113750200Y-46875200D03*
X105725000Y-76450000D03*
X100050000Y-77325000D03*
%TO.N,Net-(C17-Pad1)*%
X102550000Y-73450000D03*
X111000000Y-82450000D03*
%TO.N,RFO HF*%
X69800000Y-81725000D03*
X62700000Y-85700000D03*
%TO.N,VR PA*%
X71625000Y-82700000D03*
X77725000Y-76975000D03*
%TO.N,RFI HF*%
X108325000Y-80700000D03*
X69900000Y-79650000D03*
%TO.N,PA BOOST*%
X71600000Y-84050000D03*
X71600000Y-84050000D03*
X78975000Y-71925000D03*
%TO.N,TXRX*%
X71625000Y-83325000D03*
X104075000Y-76875000D03*
%TO.N,BAND SEL*%
X74900000Y-84000000D03*
X103650000Y-74525000D03*
%TO.N,XTA*%
X111700000Y-45575000D03*
X74246650Y-85328350D03*
D15*
%TO.N,VDD*%
X78150000Y-80075000D03*
D16*
X83375000Y-86625000D03*
D15*
X81610200Y-84963000D03*
D16*
X73600000Y-84650000D03*
D15*
X51562000Y-84124800D03*
D16*
%TO.N,Net-(C3-Pad1)*%
X65825000Y-85550000D03*
X74225000Y-82050000D03*
D15*
%TO.N,VDDA*%
X66954400Y-89357200D03*
D16*
X72250000Y-82075000D03*
X68300000Y-80825000D03*
%TD*%
D17*
%TO.N,Net-(BT1-Pad1)*%
X89865200Y-54457600D02*
X100533200Y-43789600D01*
X94894400Y-57302400D02*
X100533200Y-62941200D01*
X89865200Y-57302400D02*
X89865200Y-54457600D01*
X89865200Y-57302400D02*
X94894400Y-57302400D01*
%TO.N,VDD*%
X102717600Y-62585600D02*
X100533200Y-60401200D01*
X90449400Y-76123800D02*
X78573800Y-76123800D01*
X90449400Y-76123800D02*
X102717600Y-63855600D01*
X102717600Y-63855600D02*
X102717600Y-62585600D01*
X59551200Y-76123800D02*
X55194200Y-80480800D01*
X78575000Y-76125000D02*
X78575000Y-79650000D01*
X81610200Y-84963000D02*
X90449400Y-76123800D01*
X55194200Y-80492600D02*
X51562000Y-84124800D01*
X78573800Y-76123800D02*
X59551200Y-76123800D01*
X78573800Y-76123800D02*
X78575000Y-76125000D01*
X55194200Y-80480800D02*
X55194200Y-80492600D01*
X78575000Y-79650000D02*
X78150000Y-80075000D01*
%TO.N,VDDA*%
X90373200Y-89357200D02*
X66954400Y-89357200D01*
X108915200Y-70815200D02*
X90373200Y-89357200D01*
X108915200Y-49631600D02*
X108915200Y-70815200D01*
X100533200Y-41249600D02*
X108915200Y-49631600D01*
%TD*%
M02*
