%TF.GenerationSoftware,KiCad,Pcbnew,6.0.9-8da3e8f707~117~ubuntu22.04.1*%
%TF.CreationDate,2022-12-19T03:44:25-03:00*%
%TF.ProjectId,kiproject,6b697072-6f6a-4656-9374-2e6b69636164,rev?*%
%TF.SameCoordinates,Original*%
%TF.FileFunction,Copper,L2,Inr*%
%TF.FilePolarity,Positive*%
%FSLAX46Y46*%
G04 Gerber Fmt 4.6, Leading zero omitted, Abs format (unit mm)*
G04 Created by KiCad (PCBNEW 6.0.9-8da3e8f707~117~ubuntu22.04.1) date 2022-12-19 03:44:25*
%MOMM*%
%LPD*%
G01*
G04 APERTURE LIST*
%TA.AperFunction,ComponentPad*%
%ADD10C,2.000000*%
%TD*%
%TA.AperFunction,ComponentPad*%
%ADD11R,3.000000X3.000000*%
%TD*%
%TA.AperFunction,ComponentPad*%
%ADD12C,3.000000*%
%TD*%
%TA.AperFunction,ComponentPad*%
%ADD13R,1.905000X1.905000*%
%TD*%
%TA.AperFunction,ComponentPad*%
%ADD14C,1.905000*%
%TD*%
%TA.AperFunction,ViaPad*%
%ADD15C,0.800000*%
%TD*%
%TA.AperFunction,ViaPad*%
%ADD16C,0.300000*%
%TD*%
%TA.AperFunction,Conductor*%
%ADD17C,1.000000*%
%TD*%
%TA.AperFunction,Conductor*%
%ADD18C,0.200000*%
%TD*%
G04 APERTURE END LIST*
D10*
%TO.N,GND*%
%TO.C,SW1*%
X46177200Y-84552400D03*
X39677200Y-84552400D03*
%TO.N,Net-(R1-Pad2)*%
X39677200Y-89052400D03*
X46177200Y-89052400D03*
%TD*%
D11*
%TO.N,Net-(BT1-Pad1)*%
%TO.C,BT1*%
X89865200Y-57302400D03*
D12*
%TO.N,GND*%
X89865200Y-44602400D03*
%TD*%
D13*
%TO.N,GND*%
%TO.C,U1*%
X100533200Y-57861200D03*
D14*
%TO.N,VDD*%
X100533200Y-60401200D03*
%TO.N,Net-(BT1-Pad1)*%
X100533200Y-62941200D03*
%TD*%
D13*
%TO.N,GND*%
%TO.C,U2*%
X100533200Y-38709600D03*
D14*
%TO.N,VDDA*%
X100533200Y-41249600D03*
%TO.N,Net-(BT1-Pad1)*%
X100533200Y-43789600D03*
%TD*%
D15*
%TO.N,GND*%
X89650000Y-74825000D03*
X86500000Y-85725000D03*
D16*
X80725000Y-73950000D03*
D15*
X63347600Y-90271600D03*
D16*
X73575000Y-81375000D03*
D15*
X104325000Y-69850000D03*
D16*
X74875000Y-81375000D03*
X74900000Y-82725000D03*
D15*
X114250000Y-69850000D03*
D16*
X83700000Y-73950000D03*
D15*
X71625000Y-79425000D03*
X67818000Y-85496400D03*
D16*
X73575000Y-82725000D03*
D15*
X76475000Y-71025000D03*
D16*
%TO.N,RFSW PWR*%
X74250000Y-84000000D03*
X113750200Y-46875200D03*
X105725000Y-76450000D03*
X100050000Y-77325000D03*
%TO.N,Net-(C17-Pad1)*%
X102550000Y-73450000D03*
X111000000Y-82450000D03*
%TO.N,RFO HF*%
X69800000Y-81725000D03*
X62700000Y-85700000D03*
%TO.N,VR PA*%
X71625000Y-82700000D03*
X77725000Y-76975000D03*
%TO.N,RFI HF*%
X108325000Y-80700000D03*
X69900000Y-79650000D03*
%TO.N,PA BOOST*%
X71600000Y-84050000D03*
X71600000Y-84050000D03*
X78975000Y-71925000D03*
%TO.N,TXRX*%
X71625000Y-83325000D03*
X104075000Y-76875000D03*
%TO.N,BAND SEL*%
X74900000Y-84000000D03*
X103650000Y-74525000D03*
%TO.N,XTA*%
X111700000Y-45575000D03*
X74246650Y-85328350D03*
D15*
%TO.N,VDD*%
X78150000Y-80075000D03*
D16*
X83375000Y-86625000D03*
D15*
X81610200Y-84963000D03*
D16*
X73600000Y-84650000D03*
D15*
X51562000Y-84124800D03*
D16*
%TO.N,Net-(C3-Pad1)*%
X65825000Y-85550000D03*
X74225000Y-82050000D03*
D15*
%TO.N,VDDA*%
X66954400Y-89357200D03*
D16*
X72250000Y-82075000D03*
X68300000Y-80825000D03*
%TD*%
D17*
%TO.N,GND*%
X69748400Y-61010800D02*
X69718800Y-61010800D01*
X67818000Y-86004400D02*
X65684400Y-88138000D01*
D18*
X80725000Y-73950000D02*
X83700000Y-73950000D01*
D17*
X97688400Y-60706000D02*
X87506000Y-60706000D01*
X89650000Y-73275000D02*
X89650000Y-82575000D01*
X100533200Y-55270400D02*
X89865200Y-44602400D01*
X103150000Y-69850000D02*
X104325000Y-69850000D01*
D18*
X73575000Y-81375000D02*
X74875000Y-81375000D01*
X74875000Y-81375000D02*
X74875000Y-82700000D01*
X79400000Y-73950000D02*
X80725000Y-73950000D01*
D17*
X69014600Y-68260400D02*
X62469200Y-68260400D01*
X55560400Y-75169200D02*
X55560400Y-82484400D01*
X65684400Y-88138000D02*
X61214000Y-88138000D01*
X87506000Y-60706000D02*
X89650000Y-62850000D01*
X67818000Y-85496400D02*
X67818000Y-86004400D01*
X89650000Y-69850000D02*
X89650000Y-73275000D01*
X62469200Y-68260400D02*
X55560400Y-75169200D01*
X87506000Y-60706000D02*
X70053200Y-60706000D01*
X100533200Y-57861200D02*
X100533200Y-55270400D01*
X95758000Y-38709600D02*
X89865200Y-44602400D01*
X70053200Y-60706000D02*
X69748400Y-61010800D01*
X76475000Y-71025000D02*
X73710400Y-68260400D01*
X69014600Y-68260400D02*
X69014600Y-76814600D01*
X89650000Y-62850000D02*
X89650000Y-69850000D01*
X100533200Y-57861200D02*
X97688400Y-60706000D01*
D18*
X74875000Y-82700000D02*
X74900000Y-82725000D01*
D17*
X100533200Y-38709600D02*
X95758000Y-38709600D01*
D18*
X74875000Y-81375000D02*
X74900000Y-81375000D01*
X71625000Y-79425000D02*
X73575000Y-81375000D01*
X76475000Y-71025000D02*
X79400000Y-73950000D01*
D17*
X55560400Y-75169200D02*
X46177200Y-84552400D01*
X55560400Y-82484400D02*
X61214000Y-88138000D01*
X69014600Y-76814600D02*
X71625000Y-79425000D01*
X73710400Y-68260400D02*
X69014600Y-68260400D01*
X89650000Y-82575000D02*
X86500000Y-85725000D01*
X61214000Y-88138000D02*
X63347600Y-90271600D01*
D18*
X73575000Y-81375000D02*
X73575000Y-82725000D01*
D17*
X46177200Y-84552400D02*
X39677200Y-84552400D01*
X103150000Y-69850000D02*
X114250000Y-69850000D01*
X89650000Y-73275000D02*
X89650000Y-74825000D01*
X89650000Y-69850000D02*
X103150000Y-69850000D01*
X69718800Y-61010800D02*
X62469200Y-68260400D01*
X86500000Y-85725000D02*
X86450000Y-85775000D01*
%TD*%
%TA.AperFunction,Conductor*%
%TO.N,GND*%
G36*
X115629221Y-34650102D02*
G01*
X115675714Y-34703758D01*
X115687100Y-34756100D01*
X115687100Y-92497900D01*
X115667098Y-92566021D01*
X115613442Y-92612514D01*
X115561100Y-92623900D01*
X37854900Y-92623900D01*
X37786779Y-92603898D01*
X37740286Y-92550242D01*
X37728900Y-92497900D01*
X37728900Y-89052400D01*
X38164035Y-89052400D01*
X38182665Y-89289111D01*
X38183819Y-89293918D01*
X38183820Y-89293924D01*
X38200588Y-89363765D01*
X38238095Y-89519994D01*
X38239988Y-89524565D01*
X38239989Y-89524567D01*
X38251935Y-89553406D01*
X38328960Y-89739363D01*
X38331546Y-89743583D01*
X38450441Y-89937602D01*
X38450445Y-89937608D01*
X38453024Y-89941816D01*
X38607231Y-90122369D01*
X38787784Y-90276576D01*
X38791992Y-90279155D01*
X38791998Y-90279159D01*
X38986017Y-90398054D01*
X38990237Y-90400640D01*
X38994807Y-90402533D01*
X38994811Y-90402535D01*
X39205033Y-90489611D01*
X39209606Y-90491505D01*
X39289809Y-90510760D01*
X39435676Y-90545780D01*
X39435682Y-90545781D01*
X39440489Y-90546935D01*
X39677200Y-90565565D01*
X39913911Y-90546935D01*
X39918718Y-90545781D01*
X39918724Y-90545780D01*
X40064591Y-90510760D01*
X40144794Y-90491505D01*
X40149367Y-90489611D01*
X40359589Y-90402535D01*
X40359593Y-90402533D01*
X40364163Y-90400640D01*
X40368383Y-90398054D01*
X40562402Y-90279159D01*
X40562408Y-90279155D01*
X40566616Y-90276576D01*
X40747169Y-90122369D01*
X40901376Y-89941816D01*
X40903955Y-89937608D01*
X40903959Y-89937602D01*
X41022854Y-89743583D01*
X41025440Y-89739363D01*
X41102466Y-89553406D01*
X41114411Y-89524567D01*
X41114412Y-89524565D01*
X41116305Y-89519994D01*
X41153812Y-89363765D01*
X41170580Y-89293924D01*
X41170581Y-89293918D01*
X41171735Y-89289111D01*
X41190365Y-89052400D01*
X44664035Y-89052400D01*
X44682665Y-89289111D01*
X44683819Y-89293918D01*
X44683820Y-89293924D01*
X44700588Y-89363765D01*
X44738095Y-89519994D01*
X44739988Y-89524565D01*
X44739989Y-89524567D01*
X44751935Y-89553406D01*
X44828960Y-89739363D01*
X44831546Y-89743583D01*
X44950441Y-89937602D01*
X44950445Y-89937608D01*
X44953024Y-89941816D01*
X45107231Y-90122369D01*
X45287784Y-90276576D01*
X45291992Y-90279155D01*
X45291998Y-90279159D01*
X45486017Y-90398054D01*
X45490237Y-90400640D01*
X45494807Y-90402533D01*
X45494811Y-90402535D01*
X45705033Y-90489611D01*
X45709606Y-90491505D01*
X45789809Y-90510760D01*
X45935676Y-90545780D01*
X45935682Y-90545781D01*
X45940489Y-90546935D01*
X46177200Y-90565565D01*
X46413911Y-90546935D01*
X46418718Y-90545781D01*
X46418724Y-90545780D01*
X46564591Y-90510760D01*
X46644794Y-90491505D01*
X46649367Y-90489611D01*
X46859589Y-90402535D01*
X46859593Y-90402533D01*
X46864163Y-90400640D01*
X46868383Y-90398054D01*
X47062402Y-90279159D01*
X47062408Y-90279155D01*
X47066616Y-90276576D01*
X47247169Y-90122369D01*
X47401376Y-89941816D01*
X47403955Y-89937608D01*
X47403959Y-89937602D01*
X47522854Y-89743583D01*
X47525440Y-89739363D01*
X47602466Y-89553406D01*
X47614411Y-89524567D01*
X47614412Y-89524565D01*
X47616305Y-89519994D01*
X47653812Y-89363765D01*
X47655388Y-89357200D01*
X66040896Y-89357200D01*
X66060858Y-89547128D01*
X66119873Y-89728756D01*
X66215360Y-89894144D01*
X66219778Y-89899051D01*
X66219779Y-89899052D01*
X66338725Y-90031155D01*
X66343147Y-90036066D01*
X66497648Y-90148318D01*
X66503676Y-90151002D01*
X66503678Y-90151003D01*
X66666081Y-90223309D01*
X66672112Y-90225994D01*
X66765512Y-90245847D01*
X66852456Y-90264328D01*
X66852461Y-90264328D01*
X66858913Y-90265700D01*
X67049887Y-90265700D01*
X67056339Y-90264328D01*
X67056344Y-90264328D01*
X67143288Y-90245847D01*
X67236688Y-90225994D01*
X67242719Y-90223309D01*
X67405122Y-90151003D01*
X67405124Y-90151002D01*
X67411152Y-90148318D01*
X67565653Y-90036066D01*
X67570075Y-90031155D01*
X67689021Y-89899052D01*
X67689022Y-89899051D01*
X67693440Y-89894144D01*
X67788927Y-89728756D01*
X67847942Y-89547128D01*
X67867904Y-89357200D01*
X67847942Y-89167272D01*
X67788927Y-88985644D01*
X67693440Y-88820256D01*
X67565653Y-88678334D01*
X67466557Y-88606336D01*
X67416494Y-88569963D01*
X67416493Y-88569962D01*
X67411152Y-88566082D01*
X67405124Y-88563398D01*
X67405122Y-88563397D01*
X67242719Y-88491091D01*
X67242718Y-88491091D01*
X67236688Y-88488406D01*
X67143287Y-88468553D01*
X67056344Y-88450072D01*
X67056339Y-88450072D01*
X67049887Y-88448700D01*
X66858913Y-88448700D01*
X66852461Y-88450072D01*
X66852456Y-88450072D01*
X66765513Y-88468553D01*
X66672112Y-88488406D01*
X66666082Y-88491091D01*
X66666081Y-88491091D01*
X66503678Y-88563397D01*
X66503676Y-88563398D01*
X66497648Y-88566082D01*
X66492307Y-88569962D01*
X66492306Y-88569963D01*
X66442243Y-88606336D01*
X66343147Y-88678334D01*
X66215360Y-88820256D01*
X66119873Y-88985644D01*
X66060858Y-89167272D01*
X66040896Y-89357200D01*
X47655388Y-89357200D01*
X47670580Y-89293924D01*
X47670581Y-89293918D01*
X47671735Y-89289111D01*
X47690365Y-89052400D01*
X47671735Y-88815689D01*
X47616305Y-88584806D01*
X47610157Y-88569963D01*
X47527335Y-88370011D01*
X47527333Y-88370007D01*
X47525440Y-88365437D01*
X47522854Y-88361217D01*
X47403959Y-88167198D01*
X47403955Y-88167192D01*
X47401376Y-88162984D01*
X47247169Y-87982431D01*
X47066616Y-87828224D01*
X47062408Y-87825645D01*
X47062402Y-87825641D01*
X46868383Y-87706746D01*
X46864163Y-87704160D01*
X46859593Y-87702267D01*
X46859589Y-87702265D01*
X46649367Y-87615189D01*
X46649365Y-87615188D01*
X46644794Y-87613295D01*
X46564591Y-87594040D01*
X46418724Y-87559020D01*
X46418718Y-87559019D01*
X46413911Y-87557865D01*
X46177200Y-87539235D01*
X45940489Y-87557865D01*
X45935682Y-87559019D01*
X45935676Y-87559020D01*
X45789809Y-87594040D01*
X45709606Y-87613295D01*
X45705035Y-87615188D01*
X45705033Y-87615189D01*
X45494811Y-87702265D01*
X45494807Y-87702267D01*
X45490237Y-87704160D01*
X45486017Y-87706746D01*
X45291998Y-87825641D01*
X45291992Y-87825645D01*
X45287784Y-87828224D01*
X45107231Y-87982431D01*
X44953024Y-88162984D01*
X44950445Y-88167192D01*
X44950441Y-88167198D01*
X44831546Y-88361217D01*
X44828960Y-88365437D01*
X44827067Y-88370007D01*
X44827065Y-88370011D01*
X44744243Y-88569963D01*
X44738095Y-88584806D01*
X44682665Y-88815689D01*
X44664035Y-89052400D01*
X41190365Y-89052400D01*
X41171735Y-88815689D01*
X41116305Y-88584806D01*
X41110157Y-88569963D01*
X41027335Y-88370011D01*
X41027333Y-88370007D01*
X41025440Y-88365437D01*
X41022854Y-88361217D01*
X40903959Y-88167198D01*
X40903955Y-88167192D01*
X40901376Y-88162984D01*
X40747169Y-87982431D01*
X40566616Y-87828224D01*
X40562408Y-87825645D01*
X40562402Y-87825641D01*
X40368383Y-87706746D01*
X40364163Y-87704160D01*
X40359593Y-87702267D01*
X40359589Y-87702265D01*
X40149367Y-87615189D01*
X40149365Y-87615188D01*
X40144794Y-87613295D01*
X40064591Y-87594040D01*
X39918724Y-87559020D01*
X39918718Y-87559019D01*
X39913911Y-87557865D01*
X39677200Y-87539235D01*
X39440489Y-87557865D01*
X39435682Y-87559019D01*
X39435676Y-87559020D01*
X39289809Y-87594040D01*
X39209606Y-87613295D01*
X39205035Y-87615188D01*
X39205033Y-87615189D01*
X38994811Y-87702265D01*
X38994807Y-87702267D01*
X38990237Y-87704160D01*
X38986017Y-87706746D01*
X38791998Y-87825641D01*
X38791992Y-87825645D01*
X38787784Y-87828224D01*
X38607231Y-87982431D01*
X38453024Y-88162984D01*
X38450445Y-88167192D01*
X38450441Y-88167198D01*
X38331546Y-88361217D01*
X38328960Y-88365437D01*
X38327067Y-88370007D01*
X38327065Y-88370011D01*
X38244243Y-88569963D01*
X38238095Y-88584806D01*
X38182665Y-88815689D01*
X38164035Y-89052400D01*
X37728900Y-89052400D01*
X37728900Y-86618054D01*
X82711700Y-86618054D01*
X82729190Y-86776473D01*
X82731799Y-86783604D01*
X82731800Y-86783606D01*
X82736586Y-86796684D01*
X82783963Y-86926148D01*
X82788200Y-86932454D01*
X82788202Y-86932457D01*
X82829069Y-86993272D01*
X82872858Y-87058437D01*
X82990742Y-87165704D01*
X83130810Y-87241754D01*
X83284975Y-87282199D01*
X83366226Y-87283475D01*
X83436738Y-87284583D01*
X83436741Y-87284583D01*
X83444337Y-87284702D01*
X83451741Y-87283006D01*
X83451743Y-87283006D01*
X83509386Y-87269804D01*
X83599697Y-87249120D01*
X83621546Y-87238131D01*
X83735302Y-87180919D01*
X83735305Y-87180917D01*
X83742085Y-87177507D01*
X83863280Y-87073996D01*
X83956286Y-86944565D01*
X83963690Y-86926148D01*
X84012901Y-86803729D01*
X84015733Y-86796684D01*
X84038191Y-86638892D01*
X84038336Y-86625000D01*
X84037496Y-86618054D01*
X84020101Y-86474315D01*
X84020101Y-86474314D01*
X84019188Y-86466772D01*
X83977056Y-86355271D01*
X83965536Y-86324784D01*
X83965535Y-86324782D01*
X83962851Y-86317679D01*
X83906433Y-86235590D01*
X83876878Y-86192587D01*
X83876877Y-86192585D01*
X83872576Y-86186328D01*
X83866905Y-86181275D01*
X83759247Y-86085355D01*
X83759244Y-86085353D01*
X83753575Y-86080302D01*
X83690354Y-86046828D01*
X83619431Y-86009276D01*
X83619429Y-86009275D01*
X83612718Y-86005722D01*
X83602944Y-86003267D01*
X83465509Y-85968746D01*
X83465506Y-85968746D01*
X83458138Y-85966895D01*
X83450538Y-85966855D01*
X83450537Y-85966855D01*
X83385179Y-85966513D01*
X83298758Y-85966060D01*
X83291378Y-85967832D01*
X83291376Y-85967832D01*
X83151160Y-86001495D01*
X83151158Y-86001496D01*
X83143780Y-86003267D01*
X83002150Y-86076368D01*
X82996428Y-86081360D01*
X82996426Y-86081361D01*
X82972186Y-86102507D01*
X82882045Y-86181142D01*
X82861973Y-86209702D01*
X82835355Y-86247576D01*
X82790400Y-86311540D01*
X82732504Y-86460035D01*
X82711700Y-86618054D01*
X37728900Y-86618054D01*
X37728900Y-85785070D01*
X38809360Y-85785070D01*
X38815087Y-85792720D01*
X38986242Y-85897605D01*
X38995037Y-85902087D01*
X39205188Y-85989134D01*
X39214573Y-85992183D01*
X39435754Y-86045285D01*
X39445501Y-86046828D01*
X39672270Y-86064675D01*
X39682130Y-86064675D01*
X39908899Y-86046828D01*
X39918646Y-86045285D01*
X40139827Y-85992183D01*
X40149212Y-85989134D01*
X40359363Y-85902087D01*
X40368158Y-85897605D01*
X40535645Y-85794968D01*
X40544600Y-85785070D01*
X45309360Y-85785070D01*
X45315087Y-85792720D01*
X45486242Y-85897605D01*
X45495037Y-85902087D01*
X45705188Y-85989134D01*
X45714573Y-85992183D01*
X45935754Y-86045285D01*
X45945501Y-86046828D01*
X46172270Y-86064675D01*
X46182130Y-86064675D01*
X46408899Y-86046828D01*
X46418646Y-86045285D01*
X46639827Y-85992183D01*
X46649212Y-85989134D01*
X46859363Y-85902087D01*
X46868158Y-85897605D01*
X47035645Y-85794968D01*
X47045107Y-85784510D01*
X47041324Y-85775734D01*
X46958644Y-85693054D01*
X62036700Y-85693054D01*
X62045445Y-85772264D01*
X62052169Y-85833166D01*
X62054190Y-85851473D01*
X62056799Y-85858604D01*
X62056800Y-85858606D01*
X62071072Y-85897605D01*
X62108963Y-86001148D01*
X62113200Y-86007454D01*
X62113202Y-86007457D01*
X62138622Y-86045285D01*
X62197858Y-86133437D01*
X62315742Y-86240704D01*
X62328399Y-86247576D01*
X62434757Y-86305323D01*
X62455810Y-86316754D01*
X62609975Y-86357199D01*
X62691226Y-86358475D01*
X62761738Y-86359583D01*
X62761741Y-86359583D01*
X62769337Y-86359702D01*
X62776741Y-86358006D01*
X62776743Y-86358006D01*
X62834386Y-86344804D01*
X62924697Y-86324120D01*
X62962071Y-86305323D01*
X63060302Y-86255919D01*
X63060305Y-86255917D01*
X63067085Y-86252507D01*
X63188280Y-86148996D01*
X63248871Y-86064675D01*
X63276852Y-86025736D01*
X63276853Y-86025734D01*
X63281286Y-86019565D01*
X63287595Y-86003872D01*
X63337901Y-85878729D01*
X63340733Y-85871684D01*
X63363191Y-85713892D01*
X63363336Y-85700000D01*
X63362496Y-85693054D01*
X63345101Y-85549315D01*
X63345101Y-85549314D01*
X63344343Y-85543054D01*
X65161700Y-85543054D01*
X65162534Y-85550604D01*
X65178261Y-85693054D01*
X65179190Y-85701473D01*
X65181799Y-85708604D01*
X65181800Y-85708606D01*
X65185227Y-85717971D01*
X65233963Y-85851148D01*
X65238200Y-85857454D01*
X65238202Y-85857457D01*
X65265181Y-85897605D01*
X65322858Y-85983437D01*
X65440742Y-86090704D01*
X65453399Y-86097576D01*
X65548104Y-86148996D01*
X65580810Y-86166754D01*
X65734975Y-86207199D01*
X65816226Y-86208475D01*
X65886738Y-86209583D01*
X65886741Y-86209583D01*
X65894337Y-86209702D01*
X65901741Y-86208006D01*
X65901743Y-86208006D01*
X65991905Y-86187356D01*
X66049697Y-86174120D01*
X66120423Y-86138549D01*
X66185302Y-86105919D01*
X66185305Y-86105917D01*
X66192085Y-86102507D01*
X66313280Y-85998996D01*
X66367776Y-85923157D01*
X66401852Y-85875736D01*
X66401853Y-85875734D01*
X66406286Y-85869565D01*
X66410692Y-85858606D01*
X66462901Y-85728729D01*
X66465733Y-85721684D01*
X66488191Y-85563892D01*
X66488336Y-85550000D01*
X66487496Y-85543054D01*
X66470101Y-85399315D01*
X66470101Y-85399314D01*
X66469188Y-85391772D01*
X66452014Y-85346321D01*
X66415536Y-85249784D01*
X66415535Y-85249782D01*
X66412851Y-85242679D01*
X66353526Y-85156361D01*
X66326878Y-85117587D01*
X66326877Y-85117585D01*
X66322576Y-85111328D01*
X66316905Y-85106275D01*
X66209247Y-85010355D01*
X66209244Y-85010353D01*
X66203575Y-85005302D01*
X66184054Y-84994966D01*
X66069431Y-84934276D01*
X66069429Y-84934275D01*
X66062718Y-84930722D01*
X66052944Y-84928267D01*
X65915509Y-84893746D01*
X65915506Y-84893746D01*
X65908138Y-84891895D01*
X65900538Y-84891855D01*
X65900537Y-84891855D01*
X65835179Y-84891513D01*
X65748758Y-84891060D01*
X65741378Y-84892832D01*
X65741376Y-84892832D01*
X65601160Y-84926495D01*
X65601158Y-84926496D01*
X65593780Y-84928267D01*
X65587035Y-84931748D01*
X65587036Y-84931748D01*
X65464554Y-84994966D01*
X65452150Y-85001368D01*
X65446428Y-85006360D01*
X65446426Y-85006361D01*
X65406650Y-85041060D01*
X65332045Y-85106142D01*
X65240400Y-85236540D01*
X65182504Y-85385035D01*
X65181513Y-85392562D01*
X65162756Y-85535035D01*
X65161700Y-85543054D01*
X63344343Y-85543054D01*
X63344188Y-85541772D01*
X63298291Y-85420307D01*
X63290536Y-85399784D01*
X63290535Y-85399782D01*
X63287851Y-85392679D01*
X63197576Y-85261328D01*
X63191905Y-85256275D01*
X63084247Y-85160355D01*
X63084244Y-85160353D01*
X63078575Y-85155302D01*
X63007344Y-85117587D01*
X62944431Y-85084276D01*
X62944429Y-85084275D01*
X62937718Y-85080722D01*
X62927944Y-85078267D01*
X62790509Y-85043746D01*
X62790506Y-85043746D01*
X62783138Y-85041895D01*
X62775538Y-85041855D01*
X62775537Y-85041855D01*
X62710179Y-85041513D01*
X62623758Y-85041060D01*
X62616378Y-85042832D01*
X62616376Y-85042832D01*
X62476160Y-85076495D01*
X62476158Y-85076496D01*
X62468780Y-85078267D01*
X62327150Y-85151368D01*
X62321428Y-85156360D01*
X62321426Y-85156361D01*
X62305652Y-85170122D01*
X62207045Y-85256142D01*
X62198233Y-85268680D01*
X62147225Y-85341258D01*
X62115400Y-85386540D01*
X62057504Y-85535035D01*
X62056513Y-85542562D01*
X62042643Y-85647915D01*
X62036700Y-85693054D01*
X46958644Y-85693054D01*
X46190012Y-84924422D01*
X46176068Y-84916808D01*
X46174235Y-84916939D01*
X46167620Y-84921190D01*
X45316120Y-85772690D01*
X45309360Y-85785070D01*
X40544600Y-85785070D01*
X40545107Y-85784510D01*
X40541324Y-85775734D01*
X39690012Y-84924422D01*
X39676068Y-84916808D01*
X39674235Y-84916939D01*
X39667620Y-84921190D01*
X38816120Y-85772690D01*
X38809360Y-85785070D01*
X37728900Y-85785070D01*
X37728900Y-84557330D01*
X38164925Y-84557330D01*
X38182772Y-84784099D01*
X38184315Y-84793846D01*
X38237417Y-85015027D01*
X38240466Y-85024412D01*
X38327513Y-85234563D01*
X38331995Y-85243358D01*
X38434632Y-85410845D01*
X38445090Y-85420307D01*
X38453866Y-85416524D01*
X39305178Y-84565212D01*
X39311556Y-84553532D01*
X40041608Y-84553532D01*
X40041739Y-84555365D01*
X40045990Y-84561980D01*
X40897490Y-85413480D01*
X40909870Y-85420240D01*
X40917520Y-85414513D01*
X41022405Y-85243358D01*
X41026887Y-85234563D01*
X41113934Y-85024412D01*
X41116983Y-85015027D01*
X41170085Y-84793846D01*
X41171628Y-84784099D01*
X41189475Y-84557330D01*
X44664925Y-84557330D01*
X44682772Y-84784099D01*
X44684315Y-84793846D01*
X44737417Y-85015027D01*
X44740466Y-85024412D01*
X44827513Y-85234563D01*
X44831995Y-85243358D01*
X44934632Y-85410845D01*
X44945090Y-85420307D01*
X44953866Y-85416524D01*
X45805178Y-84565212D01*
X45811556Y-84553532D01*
X46541608Y-84553532D01*
X46541739Y-84555365D01*
X46545990Y-84561980D01*
X47397490Y-85413480D01*
X47409870Y-85420240D01*
X47417520Y-85414513D01*
X47522405Y-85243358D01*
X47526887Y-85234563D01*
X47613934Y-85024412D01*
X47616983Y-85015027D01*
X47670085Y-84793846D01*
X47671628Y-84784099D01*
X47689475Y-84557330D01*
X47689475Y-84547470D01*
X47671628Y-84320701D01*
X47670085Y-84310954D01*
X47625392Y-84124800D01*
X50648496Y-84124800D01*
X50649186Y-84131365D01*
X50665759Y-84289045D01*
X50668458Y-84314728D01*
X50727473Y-84496356D01*
X50730776Y-84502078D01*
X50730777Y-84502079D01*
X50759892Y-84552507D01*
X50822960Y-84661744D01*
X50827378Y-84666651D01*
X50827379Y-84666652D01*
X50917547Y-84766794D01*
X50950747Y-84803666D01*
X51049843Y-84875664D01*
X51077747Y-84895937D01*
X51105248Y-84915918D01*
X51111276Y-84918602D01*
X51111278Y-84918603D01*
X51273681Y-84990909D01*
X51279712Y-84993594D01*
X51358566Y-85010355D01*
X51460056Y-85031928D01*
X51460061Y-85031928D01*
X51466513Y-85033300D01*
X51657487Y-85033300D01*
X51663939Y-85031928D01*
X51663944Y-85031928D01*
X51765434Y-85010355D01*
X51844288Y-84993594D01*
X51850319Y-84990909D01*
X52012722Y-84918603D01*
X52012724Y-84918602D01*
X52018752Y-84915918D01*
X52046254Y-84895937D01*
X52074157Y-84875664D01*
X52173253Y-84803666D01*
X52206453Y-84766794D01*
X52296621Y-84666652D01*
X52296622Y-84666651D01*
X52301040Y-84661744D01*
X52364108Y-84552507D01*
X52393223Y-84502079D01*
X52393224Y-84502078D01*
X52396527Y-84496356D01*
X52455542Y-84314728D01*
X52458242Y-84289045D01*
X52474814Y-84131365D01*
X52475504Y-84124800D01*
X52472571Y-84096891D01*
X52466913Y-84043054D01*
X70936700Y-84043054D01*
X70942644Y-84096891D01*
X70952702Y-84187992D01*
X70954190Y-84201473D01*
X70956799Y-84208604D01*
X70956800Y-84208606D01*
X70961586Y-84221684D01*
X71008963Y-84351148D01*
X71013200Y-84357454D01*
X71013202Y-84357457D01*
X71054069Y-84418272D01*
X71097858Y-84483437D01*
X71215742Y-84590704D01*
X71228399Y-84597576D01*
X71346583Y-84661744D01*
X71355810Y-84666754D01*
X71509975Y-84707199D01*
X71591226Y-84708475D01*
X71661738Y-84709583D01*
X71661741Y-84709583D01*
X71669337Y-84709702D01*
X71676741Y-84708006D01*
X71676743Y-84708006D01*
X71768778Y-84686927D01*
X71824697Y-84674120D01*
X71856096Y-84658328D01*
X71886466Y-84643054D01*
X72936700Y-84643054D01*
X72939663Y-84669892D01*
X72953348Y-84793846D01*
X72954190Y-84801473D01*
X72956799Y-84808604D01*
X72956800Y-84808606D01*
X72978045Y-84866661D01*
X73008963Y-84951148D01*
X73013200Y-84957454D01*
X73013202Y-84957457D01*
X73042964Y-85001747D01*
X73097858Y-85083437D01*
X73215742Y-85190704D01*
X73355810Y-85266754D01*
X73500162Y-85304625D01*
X73560976Y-85341258D01*
X73592331Y-85404955D01*
X73593426Y-85412672D01*
X73594262Y-85420240D01*
X73600840Y-85479823D01*
X73603449Y-85486954D01*
X73603450Y-85486956D01*
X73608203Y-85499944D01*
X73655613Y-85629498D01*
X73659850Y-85635804D01*
X73659852Y-85635807D01*
X73693260Y-85685523D01*
X73744508Y-85761787D01*
X73862392Y-85869054D01*
X74002460Y-85945104D01*
X74156625Y-85985549D01*
X74237876Y-85986825D01*
X74308388Y-85987933D01*
X74308391Y-85987933D01*
X74315987Y-85988052D01*
X74323391Y-85986356D01*
X74323393Y-85986356D01*
X74400282Y-85968746D01*
X74471347Y-85952470D01*
X74493196Y-85941481D01*
X74606952Y-85884269D01*
X74606955Y-85884267D01*
X74613735Y-85880857D01*
X74714297Y-85794968D01*
X74729152Y-85782281D01*
X74734930Y-85777346D01*
X74827936Y-85647915D01*
X74835340Y-85629498D01*
X74884551Y-85507079D01*
X74887383Y-85500034D01*
X74909841Y-85342242D01*
X74909986Y-85328350D01*
X74909146Y-85321404D01*
X74891751Y-85177665D01*
X74891751Y-85177664D01*
X74890838Y-85170122D01*
X74888153Y-85163016D01*
X74837186Y-85028134D01*
X74837185Y-85028132D01*
X74834501Y-85021029D01*
X74794619Y-84963000D01*
X80696696Y-84963000D01*
X80697386Y-84969565D01*
X80712944Y-85117587D01*
X80716658Y-85152928D01*
X80775673Y-85334556D01*
X80778976Y-85340278D01*
X80778977Y-85340279D01*
X80800733Y-85377961D01*
X80871160Y-85499944D01*
X80875578Y-85504851D01*
X80875579Y-85504852D01*
X80987811Y-85629498D01*
X80998947Y-85641866D01*
X81153448Y-85754118D01*
X81159476Y-85756802D01*
X81159478Y-85756803D01*
X81245199Y-85794968D01*
X81327912Y-85831794D01*
X81418965Y-85851148D01*
X81508256Y-85870128D01*
X81508261Y-85870128D01*
X81514713Y-85871500D01*
X81705687Y-85871500D01*
X81712139Y-85870128D01*
X81712144Y-85870128D01*
X81801435Y-85851148D01*
X81892488Y-85831794D01*
X81975201Y-85794968D01*
X82060922Y-85756803D01*
X82060924Y-85756802D01*
X82066952Y-85754118D01*
X82221453Y-85641866D01*
X82232589Y-85629498D01*
X82344821Y-85504852D01*
X82344822Y-85504851D01*
X82349240Y-85499944D01*
X82419667Y-85377961D01*
X82441423Y-85340279D01*
X82441424Y-85340278D01*
X82444727Y-85334556D01*
X82503742Y-85152928D01*
X82507457Y-85117587D01*
X82523014Y-84969565D01*
X82523704Y-84963000D01*
X82520419Y-84931748D01*
X82504432Y-84779635D01*
X82504432Y-84779633D01*
X82503742Y-84773072D01*
X82444727Y-84591444D01*
X82422839Y-84553532D01*
X82385320Y-84488549D01*
X82349240Y-84426056D01*
X82275015Y-84343620D01*
X82225875Y-84289045D01*
X82225874Y-84289044D01*
X82221453Y-84284134D01*
X82097289Y-84193923D01*
X82072294Y-84175763D01*
X82072293Y-84175762D01*
X82066952Y-84171882D01*
X82060924Y-84169198D01*
X82060922Y-84169197D01*
X81898519Y-84096891D01*
X81898518Y-84096891D01*
X81892488Y-84094206D01*
X81799088Y-84074353D01*
X81712144Y-84055872D01*
X81712139Y-84055872D01*
X81705687Y-84054500D01*
X81514713Y-84054500D01*
X81508261Y-84055872D01*
X81508256Y-84055872D01*
X81421312Y-84074353D01*
X81327912Y-84094206D01*
X81321882Y-84096891D01*
X81321881Y-84096891D01*
X81159478Y-84169197D01*
X81159476Y-84169198D01*
X81153448Y-84171882D01*
X81148107Y-84175762D01*
X81148106Y-84175763D01*
X81123111Y-84193923D01*
X80998947Y-84284134D01*
X80994526Y-84289044D01*
X80994525Y-84289045D01*
X80945386Y-84343620D01*
X80871160Y-84426056D01*
X80835080Y-84488549D01*
X80797562Y-84553532D01*
X80775673Y-84591444D01*
X80716658Y-84773072D01*
X80715968Y-84779633D01*
X80715968Y-84779635D01*
X80699981Y-84931748D01*
X80696696Y-84963000D01*
X74794619Y-84963000D01*
X74771163Y-84928872D01*
X74748528Y-84895937D01*
X74748527Y-84895935D01*
X74744226Y-84889678D01*
X74730398Y-84877357D01*
X74692842Y-84817108D01*
X74693821Y-84746118D01*
X74733025Y-84686927D01*
X74798007Y-84658328D01*
X74816195Y-84657297D01*
X74961738Y-84659583D01*
X74961741Y-84659583D01*
X74969337Y-84659702D01*
X74976741Y-84658006D01*
X74976743Y-84658006D01*
X75042026Y-84643054D01*
X75124697Y-84624120D01*
X75167670Y-84602507D01*
X75260302Y-84555919D01*
X75260305Y-84555917D01*
X75267085Y-84552507D01*
X75388280Y-84448996D01*
X75481286Y-84319565D01*
X75540733Y-84171684D01*
X75563191Y-84013892D01*
X75563336Y-84000000D01*
X75562805Y-83995606D01*
X75545101Y-83849315D01*
X75545101Y-83849314D01*
X75544188Y-83841772D01*
X75512390Y-83757620D01*
X75490536Y-83699784D01*
X75490535Y-83699782D01*
X75487851Y-83692679D01*
X75397576Y-83561328D01*
X75391905Y-83556275D01*
X75284247Y-83460355D01*
X75284244Y-83460353D01*
X75278575Y-83455302D01*
X75260882Y-83445934D01*
X75144431Y-83384276D01*
X75144429Y-83384275D01*
X75137718Y-83380722D01*
X75127944Y-83378267D01*
X74990509Y-83343746D01*
X74990506Y-83343746D01*
X74983138Y-83341895D01*
X74975538Y-83341855D01*
X74975537Y-83341855D01*
X74910179Y-83341513D01*
X74823758Y-83341060D01*
X74816378Y-83342832D01*
X74816376Y-83342832D01*
X74676160Y-83376495D01*
X74676158Y-83376496D01*
X74668780Y-83378267D01*
X74662038Y-83381747D01*
X74662032Y-83381749D01*
X74633280Y-83396589D01*
X74563573Y-83410058D01*
X74516533Y-83395978D01*
X74494433Y-83384277D01*
X74494430Y-83384276D01*
X74487718Y-83380722D01*
X74440196Y-83368785D01*
X74340509Y-83343746D01*
X74340506Y-83343746D01*
X74333138Y-83341895D01*
X74325538Y-83341855D01*
X74325537Y-83341855D01*
X74260179Y-83341513D01*
X74173758Y-83341060D01*
X74166378Y-83342832D01*
X74166376Y-83342832D01*
X74026160Y-83376495D01*
X74026158Y-83376496D01*
X74018780Y-83378267D01*
X73877150Y-83451368D01*
X73871428Y-83456360D01*
X73871426Y-83456361D01*
X73840195Y-83483606D01*
X73757045Y-83556142D01*
X73718366Y-83611177D01*
X73677672Y-83669079D01*
X73665400Y-83686540D01*
X73607504Y-83835035D01*
X73606513Y-83842563D01*
X73600329Y-83889533D01*
X73571606Y-83954461D01*
X73512341Y-83993552D01*
X73504821Y-83995606D01*
X73376160Y-84026495D01*
X73376158Y-84026496D01*
X73368780Y-84028267D01*
X73227150Y-84101368D01*
X73221428Y-84106360D01*
X73221426Y-84106361D01*
X73155164Y-84164165D01*
X73107045Y-84206142D01*
X73096122Y-84221684D01*
X73026532Y-84320701D01*
X73015400Y-84336540D01*
X72957504Y-84485035D01*
X72956513Y-84492562D01*
X72938970Y-84625815D01*
X72936700Y-84643054D01*
X71886466Y-84643054D01*
X71960302Y-84605919D01*
X71960305Y-84605917D01*
X71967085Y-84602507D01*
X72088280Y-84498996D01*
X72181286Y-84369565D01*
X72188690Y-84351148D01*
X72237901Y-84228729D01*
X72240733Y-84221684D01*
X72263191Y-84063892D01*
X72263336Y-84050000D01*
X72262496Y-84043054D01*
X72245101Y-83899315D01*
X72245101Y-83899314D01*
X72244188Y-83891772D01*
X72193496Y-83757618D01*
X72188128Y-83686826D01*
X72200949Y-83652378D01*
X72201852Y-83650736D01*
X72206286Y-83644565D01*
X72213690Y-83626148D01*
X72262901Y-83503729D01*
X72265733Y-83496684D01*
X72288191Y-83338892D01*
X72288336Y-83325000D01*
X72287699Y-83319730D01*
X72270101Y-83174315D01*
X72270101Y-83174314D01*
X72269188Y-83166772D01*
X72247578Y-83109583D01*
X72227402Y-83056187D01*
X72222034Y-82985394D01*
X72228360Y-82964654D01*
X72262901Y-82878729D01*
X72265733Y-82871684D01*
X72271878Y-82828509D01*
X72301280Y-82763887D01*
X72360951Y-82725418D01*
X72368492Y-82723444D01*
X72474697Y-82699120D01*
X72501732Y-82685523D01*
X72610302Y-82630919D01*
X72610305Y-82630917D01*
X72617085Y-82627507D01*
X72738280Y-82523996D01*
X72831286Y-82394565D01*
X72890733Y-82246684D01*
X72913191Y-82088892D01*
X72913336Y-82075000D01*
X72912486Y-82067971D01*
X72909471Y-82043054D01*
X73561700Y-82043054D01*
X73562576Y-82050988D01*
X73574439Y-82158437D01*
X73579190Y-82201473D01*
X73581799Y-82208604D01*
X73581800Y-82208606D01*
X73586586Y-82221684D01*
X73633963Y-82351148D01*
X73638200Y-82357454D01*
X73638202Y-82357457D01*
X73658403Y-82387518D01*
X73722858Y-82483437D01*
X73840742Y-82590704D01*
X73980810Y-82666754D01*
X74134975Y-82707199D01*
X74216226Y-82708475D01*
X74286738Y-82709583D01*
X74286741Y-82709583D01*
X74294337Y-82709702D01*
X74301741Y-82708006D01*
X74301743Y-82708006D01*
X74367026Y-82693054D01*
X74449697Y-82674120D01*
X74471546Y-82663131D01*
X74585302Y-82605919D01*
X74585305Y-82605917D01*
X74592085Y-82602507D01*
X74713280Y-82498996D01*
X74753479Y-82443054D01*
X110336700Y-82443054D01*
X110354190Y-82601473D01*
X110356799Y-82608604D01*
X110356800Y-82608606D01*
X110378045Y-82666661D01*
X110408963Y-82751148D01*
X110413200Y-82757454D01*
X110413202Y-82757457D01*
X110454069Y-82818272D01*
X110497858Y-82883437D01*
X110615742Y-82990704D01*
X110755810Y-83066754D01*
X110909975Y-83107199D01*
X110991226Y-83108475D01*
X111061738Y-83109583D01*
X111061741Y-83109583D01*
X111069337Y-83109702D01*
X111076741Y-83108006D01*
X111076743Y-83108006D01*
X111134386Y-83094804D01*
X111224697Y-83074120D01*
X111260353Y-83056187D01*
X111360302Y-83005919D01*
X111360305Y-83005917D01*
X111367085Y-83002507D01*
X111488280Y-82898996D01*
X111581286Y-82769565D01*
X111588690Y-82751148D01*
X111637901Y-82628729D01*
X111640733Y-82621684D01*
X111663191Y-82463892D01*
X111663336Y-82450000D01*
X111662496Y-82443054D01*
X111645101Y-82299315D01*
X111645101Y-82299314D01*
X111644188Y-82291772D01*
X111633073Y-82262356D01*
X111590536Y-82149784D01*
X111590535Y-82149782D01*
X111587851Y-82142679D01*
X111541337Y-82075000D01*
X111501878Y-82017587D01*
X111501877Y-82017585D01*
X111497576Y-82011328D01*
X111491905Y-82006275D01*
X111384247Y-81910355D01*
X111384244Y-81910353D01*
X111378575Y-81905302D01*
X111364567Y-81897885D01*
X111244431Y-81834276D01*
X111244429Y-81834275D01*
X111237718Y-81830722D01*
X111227944Y-81828267D01*
X111090509Y-81793746D01*
X111090506Y-81793746D01*
X111083138Y-81791895D01*
X111075538Y-81791855D01*
X111075537Y-81791855D01*
X111010179Y-81791513D01*
X110923758Y-81791060D01*
X110916378Y-81792832D01*
X110916376Y-81792832D01*
X110776160Y-81826495D01*
X110776158Y-81826496D01*
X110768780Y-81828267D01*
X110627150Y-81901368D01*
X110621428Y-81906360D01*
X110621426Y-81906361D01*
X110616848Y-81910355D01*
X110507045Y-82006142D01*
X110498000Y-82019012D01*
X110461528Y-82070907D01*
X110415400Y-82136540D01*
X110357504Y-82285035D01*
X110356513Y-82292562D01*
X110343084Y-82394565D01*
X110336700Y-82443054D01*
X74753479Y-82443054D01*
X74789001Y-82393620D01*
X74801852Y-82375736D01*
X74801853Y-82375734D01*
X74806286Y-82369565D01*
X74813690Y-82351148D01*
X74862901Y-82228729D01*
X74865733Y-82221684D01*
X74888191Y-82063892D01*
X74888336Y-82050000D01*
X74887679Y-82044565D01*
X74870101Y-81899315D01*
X74870101Y-81899314D01*
X74869188Y-81891772D01*
X74846507Y-81831748D01*
X74815536Y-81749784D01*
X74815535Y-81749782D01*
X74812851Y-81742679D01*
X74736194Y-81631142D01*
X74726878Y-81617587D01*
X74726877Y-81617585D01*
X74722576Y-81611328D01*
X74716905Y-81606275D01*
X74609247Y-81510355D01*
X74609244Y-81510353D01*
X74603575Y-81505302D01*
X74589567Y-81497885D01*
X74469431Y-81434276D01*
X74469429Y-81434275D01*
X74462718Y-81430722D01*
X74452944Y-81428267D01*
X74315509Y-81393746D01*
X74315506Y-81393746D01*
X74308138Y-81391895D01*
X74300538Y-81391855D01*
X74300537Y-81391855D01*
X74235179Y-81391513D01*
X74148758Y-81391060D01*
X74141378Y-81392832D01*
X74141376Y-81392832D01*
X74001160Y-81426495D01*
X74001158Y-81426496D01*
X73993780Y-81428267D01*
X73905012Y-81474084D01*
X73889059Y-81482318D01*
X73852150Y-81501368D01*
X73846428Y-81506360D01*
X73846426Y-81506361D01*
X73823492Y-81526368D01*
X73732045Y-81606142D01*
X73640400Y-81736540D01*
X73582504Y-81885035D01*
X73581513Y-81892562D01*
X73563926Y-82026148D01*
X73561700Y-82043054D01*
X72909471Y-82043054D01*
X72895101Y-81924315D01*
X72895101Y-81924314D01*
X72894188Y-81916772D01*
X72887051Y-81897885D01*
X72840536Y-81774784D01*
X72840535Y-81774782D01*
X72837851Y-81767679D01*
X72747576Y-81636328D01*
X72741905Y-81631275D01*
X72634247Y-81535355D01*
X72634244Y-81535353D01*
X72628575Y-81530302D01*
X72590902Y-81510355D01*
X72494431Y-81459276D01*
X72494429Y-81459275D01*
X72487718Y-81455722D01*
X72477944Y-81453267D01*
X72340509Y-81418746D01*
X72340506Y-81418746D01*
X72333138Y-81416895D01*
X72325538Y-81416855D01*
X72325537Y-81416855D01*
X72260179Y-81416513D01*
X72173758Y-81416060D01*
X72166378Y-81417832D01*
X72166376Y-81417832D01*
X72026160Y-81451495D01*
X72026158Y-81451496D01*
X72018780Y-81453267D01*
X71877150Y-81526368D01*
X71871428Y-81531360D01*
X71871426Y-81531361D01*
X71830834Y-81566772D01*
X71757045Y-81631142D01*
X71718366Y-81686177D01*
X71678656Y-81742679D01*
X71665400Y-81761540D01*
X71607504Y-81910035D01*
X71606513Y-81917562D01*
X71602912Y-81944915D01*
X71574190Y-82009842D01*
X71514925Y-82048934D01*
X71507404Y-82050988D01*
X71401160Y-82076495D01*
X71401158Y-82076496D01*
X71393780Y-82078267D01*
X71387035Y-82081748D01*
X71387036Y-82081748D01*
X71268985Y-82142679D01*
X71252150Y-82151368D01*
X71246428Y-82156360D01*
X71246426Y-82156361D01*
X71233288Y-82167822D01*
X71132045Y-82256142D01*
X71040400Y-82386540D01*
X70982504Y-82535035D01*
X70981513Y-82542562D01*
X70963970Y-82675815D01*
X70961700Y-82693054D01*
X70962534Y-82700604D01*
X70976655Y-82828509D01*
X70979190Y-82851473D01*
X70981799Y-82858604D01*
X70981800Y-82858606D01*
X71022679Y-82970313D01*
X71027305Y-83041159D01*
X71021746Y-83059383D01*
X70985263Y-83152958D01*
X70982504Y-83160035D01*
X70981513Y-83167562D01*
X70970050Y-83254634D01*
X70961700Y-83318054D01*
X70968152Y-83376495D01*
X70977411Y-83460355D01*
X70979190Y-83476473D01*
X70981799Y-83483604D01*
X70981800Y-83483606D01*
X71031535Y-83619514D01*
X71036161Y-83690360D01*
X71021810Y-83722803D01*
X71023357Y-83723632D01*
X71019768Y-83730324D01*
X71015400Y-83736540D01*
X71012641Y-83743615D01*
X71012640Y-83743618D01*
X70960262Y-83877961D01*
X70957504Y-83885035D01*
X70956513Y-83892562D01*
X70938647Y-84028267D01*
X70936700Y-84043054D01*
X52466913Y-84043054D01*
X52456232Y-83941435D01*
X52456232Y-83941433D01*
X52455542Y-83934872D01*
X52396527Y-83753244D01*
X52390970Y-83743618D01*
X52356872Y-83684560D01*
X52301040Y-83587856D01*
X52272605Y-83556275D01*
X52177675Y-83450845D01*
X52177674Y-83450844D01*
X52173253Y-83445934D01*
X52018752Y-83333682D01*
X52012724Y-83330998D01*
X52012722Y-83330997D01*
X51850319Y-83258691D01*
X51850318Y-83258691D01*
X51844288Y-83256006D01*
X51750887Y-83236153D01*
X51663944Y-83217672D01*
X51663939Y-83217672D01*
X51657487Y-83216300D01*
X51466513Y-83216300D01*
X51460061Y-83217672D01*
X51460056Y-83217672D01*
X51373113Y-83236153D01*
X51279712Y-83256006D01*
X51273682Y-83258691D01*
X51273681Y-83258691D01*
X51111278Y-83330997D01*
X51111276Y-83330998D01*
X51105248Y-83333682D01*
X50950747Y-83445934D01*
X50946326Y-83450844D01*
X50946325Y-83450845D01*
X50851396Y-83556275D01*
X50822960Y-83587856D01*
X50767128Y-83684560D01*
X50733031Y-83743618D01*
X50727473Y-83753244D01*
X50668458Y-83934872D01*
X50667768Y-83941433D01*
X50667768Y-83941435D01*
X50651429Y-84096891D01*
X50648496Y-84124800D01*
X47625392Y-84124800D01*
X47616983Y-84089773D01*
X47613934Y-84080388D01*
X47526887Y-83870237D01*
X47522405Y-83861442D01*
X47419768Y-83693955D01*
X47409310Y-83684493D01*
X47400534Y-83688276D01*
X46549222Y-84539588D01*
X46541608Y-84553532D01*
X45811556Y-84553532D01*
X45812792Y-84551268D01*
X45812661Y-84549435D01*
X45808410Y-84542820D01*
X44956910Y-83691320D01*
X44944530Y-83684560D01*
X44936880Y-83690287D01*
X44831995Y-83861442D01*
X44827513Y-83870237D01*
X44740466Y-84080388D01*
X44737417Y-84089773D01*
X44684315Y-84310954D01*
X44682772Y-84320701D01*
X44664925Y-84547470D01*
X44664925Y-84557330D01*
X41189475Y-84557330D01*
X41189475Y-84547470D01*
X41171628Y-84320701D01*
X41170085Y-84310954D01*
X41116983Y-84089773D01*
X41113934Y-84080388D01*
X41026887Y-83870237D01*
X41022405Y-83861442D01*
X40919768Y-83693955D01*
X40909310Y-83684493D01*
X40900534Y-83688276D01*
X40049222Y-84539588D01*
X40041608Y-84553532D01*
X39311556Y-84553532D01*
X39312792Y-84551268D01*
X39312661Y-84549435D01*
X39308410Y-84542820D01*
X38456910Y-83691320D01*
X38444530Y-83684560D01*
X38436880Y-83690287D01*
X38331995Y-83861442D01*
X38327513Y-83870237D01*
X38240466Y-84080388D01*
X38237417Y-84089773D01*
X38184315Y-84310954D01*
X38182772Y-84320701D01*
X38164925Y-84547470D01*
X38164925Y-84557330D01*
X37728900Y-84557330D01*
X37728900Y-83320290D01*
X38809293Y-83320290D01*
X38813076Y-83329066D01*
X39664388Y-84180378D01*
X39678332Y-84187992D01*
X39680165Y-84187861D01*
X39686780Y-84183610D01*
X40538280Y-83332110D01*
X40544734Y-83320290D01*
X45309293Y-83320290D01*
X45313076Y-83329066D01*
X46164388Y-84180378D01*
X46178332Y-84187992D01*
X46180165Y-84187861D01*
X46186780Y-84183610D01*
X47038280Y-83332110D01*
X47045040Y-83319730D01*
X47039313Y-83312080D01*
X46868158Y-83207195D01*
X46859363Y-83202713D01*
X46649212Y-83115666D01*
X46639827Y-83112617D01*
X46418646Y-83059515D01*
X46408899Y-83057972D01*
X46182130Y-83040125D01*
X46172270Y-83040125D01*
X45945501Y-83057972D01*
X45935754Y-83059515D01*
X45714573Y-83112617D01*
X45705188Y-83115666D01*
X45495037Y-83202713D01*
X45486242Y-83207195D01*
X45318755Y-83309832D01*
X45309293Y-83320290D01*
X40544734Y-83320290D01*
X40545040Y-83319730D01*
X40539313Y-83312080D01*
X40368158Y-83207195D01*
X40359363Y-83202713D01*
X40149212Y-83115666D01*
X40139827Y-83112617D01*
X39918646Y-83059515D01*
X39908899Y-83057972D01*
X39682130Y-83040125D01*
X39672270Y-83040125D01*
X39445501Y-83057972D01*
X39435754Y-83059515D01*
X39214573Y-83112617D01*
X39205188Y-83115666D01*
X38995037Y-83202713D01*
X38986242Y-83207195D01*
X38818755Y-83309832D01*
X38809293Y-83320290D01*
X37728900Y-83320290D01*
X37728900Y-81718054D01*
X69136700Y-81718054D01*
X69137534Y-81725604D01*
X69148935Y-81828872D01*
X69154190Y-81876473D01*
X69156799Y-81883604D01*
X69156800Y-81883606D01*
X69162549Y-81899315D01*
X69208963Y-82026148D01*
X69213200Y-82032454D01*
X69213202Y-82032457D01*
X69251125Y-82088892D01*
X69297858Y-82158437D01*
X69415742Y-82265704D01*
X69555810Y-82341754D01*
X69709975Y-82382199D01*
X69791226Y-82383475D01*
X69861738Y-82384583D01*
X69861741Y-82384583D01*
X69869337Y-82384702D01*
X69876741Y-82383006D01*
X69876743Y-82383006D01*
X69935429Y-82369565D01*
X70024697Y-82349120D01*
X70046546Y-82338131D01*
X70160302Y-82280919D01*
X70160305Y-82280917D01*
X70167085Y-82277507D01*
X70288280Y-82173996D01*
X70370360Y-82059770D01*
X70376852Y-82050736D01*
X70376853Y-82050734D01*
X70381286Y-82044565D01*
X70388690Y-82026148D01*
X70437901Y-81903729D01*
X70440733Y-81896684D01*
X70463191Y-81738892D01*
X70463336Y-81725000D01*
X70462496Y-81718054D01*
X70445101Y-81574315D01*
X70445101Y-81574314D01*
X70444188Y-81566772D01*
X70432317Y-81535355D01*
X70390536Y-81424784D01*
X70390535Y-81424782D01*
X70387851Y-81417679D01*
X70297576Y-81286328D01*
X70291905Y-81281275D01*
X70184247Y-81185355D01*
X70184244Y-81185353D01*
X70178575Y-81180302D01*
X70122735Y-81150736D01*
X70044431Y-81109276D01*
X70044429Y-81109275D01*
X70037718Y-81105722D01*
X70027944Y-81103267D01*
X69890509Y-81068746D01*
X69890506Y-81068746D01*
X69883138Y-81066895D01*
X69875538Y-81066855D01*
X69875537Y-81066855D01*
X69810179Y-81066513D01*
X69723758Y-81066060D01*
X69716378Y-81067832D01*
X69716376Y-81067832D01*
X69576160Y-81101495D01*
X69576158Y-81101496D01*
X69568780Y-81103267D01*
X69427150Y-81176368D01*
X69307045Y-81281142D01*
X69284563Y-81313131D01*
X69227906Y-81393746D01*
X69215400Y-81411540D01*
X69157504Y-81560035D01*
X69156513Y-81567562D01*
X69146636Y-81642587D01*
X69136700Y-81718054D01*
X37728900Y-81718054D01*
X37728900Y-80818054D01*
X67636700Y-80818054D01*
X67642303Y-80868803D01*
X67650734Y-80945166D01*
X67654190Y-80976473D01*
X67656799Y-80983604D01*
X67656800Y-80983606D01*
X67669959Y-81019565D01*
X67708963Y-81126148D01*
X67713200Y-81132454D01*
X67713202Y-81132457D01*
X67742964Y-81176747D01*
X67797858Y-81258437D01*
X67915742Y-81365704D01*
X68055810Y-81441754D01*
X68209975Y-81482199D01*
X68291226Y-81483475D01*
X68361738Y-81484583D01*
X68361741Y-81484583D01*
X68369337Y-81484702D01*
X68376741Y-81483006D01*
X68376743Y-81483006D01*
X68480353Y-81459276D01*
X68524697Y-81449120D01*
X68566159Y-81428267D01*
X68660302Y-81380919D01*
X68660305Y-81380917D01*
X68667085Y-81377507D01*
X68773841Y-81286328D01*
X68782502Y-81278931D01*
X68788280Y-81273996D01*
X68881286Y-81144565D01*
X68885760Y-81133437D01*
X68937901Y-81003729D01*
X68940733Y-80996684D01*
X68963191Y-80838892D01*
X68963336Y-80825000D01*
X68962496Y-80818054D01*
X68945101Y-80674315D01*
X68945101Y-80674314D01*
X68944188Y-80666772D01*
X68925325Y-80616852D01*
X68890536Y-80524784D01*
X68890535Y-80524782D01*
X68887851Y-80517679D01*
X68797576Y-80386328D01*
X68791905Y-80381275D01*
X68684247Y-80285355D01*
X68684244Y-80285353D01*
X68678575Y-80280302D01*
X68654561Y-80267587D01*
X68544431Y-80209276D01*
X68544429Y-80209275D01*
X68537718Y-80205722D01*
X68527944Y-80203267D01*
X68390509Y-80168746D01*
X68390506Y-80168746D01*
X68383138Y-80166895D01*
X68375538Y-80166855D01*
X68375537Y-80166855D01*
X68310179Y-80166513D01*
X68223758Y-80166060D01*
X68216378Y-80167832D01*
X68216376Y-80167832D01*
X68076160Y-80201495D01*
X68076158Y-80201496D01*
X68068780Y-80203267D01*
X68062035Y-80206748D01*
X68062036Y-80206748D01*
X67949315Y-80264928D01*
X67927150Y-80276368D01*
X67921428Y-80281360D01*
X67921426Y-80281361D01*
X67889075Y-80309583D01*
X67807045Y-80381142D01*
X67715400Y-80511540D01*
X67657504Y-80660035D01*
X67656513Y-80667562D01*
X67645151Y-80753866D01*
X67636700Y-80818054D01*
X37728900Y-80818054D01*
X37728900Y-79643054D01*
X69236700Y-79643054D01*
X69254190Y-79801473D01*
X69256799Y-79808604D01*
X69256800Y-79808606D01*
X69261586Y-79821684D01*
X69308963Y-79951148D01*
X69313200Y-79957454D01*
X69313202Y-79957457D01*
X69354069Y-80018272D01*
X69397858Y-80083437D01*
X69515742Y-80190704D01*
X69655810Y-80266754D01*
X69809975Y-80307199D01*
X69891226Y-80308475D01*
X69961738Y-80309583D01*
X69961741Y-80309583D01*
X69969337Y-80309702D01*
X69976741Y-80308006D01*
X69976743Y-80308006D01*
X70075642Y-80285355D01*
X70124697Y-80274120D01*
X70170372Y-80251148D01*
X70260302Y-80205919D01*
X70260305Y-80205917D01*
X70267085Y-80202507D01*
X70388280Y-80098996D01*
X70405523Y-80075000D01*
X77236496Y-80075000D01*
X77237186Y-80081565D01*
X77255549Y-80256275D01*
X77256458Y-80264928D01*
X77315473Y-80446556D01*
X77410960Y-80611944D01*
X77415378Y-80616851D01*
X77415379Y-80616852D01*
X77490246Y-80700000D01*
X77538747Y-80753866D01*
X77616728Y-80810523D01*
X77682909Y-80858606D01*
X77693248Y-80866118D01*
X77699276Y-80868802D01*
X77699278Y-80868803D01*
X77861681Y-80941109D01*
X77867712Y-80943794D01*
X77961112Y-80963647D01*
X78048056Y-80982128D01*
X78048061Y-80982128D01*
X78054513Y-80983500D01*
X78245487Y-80983500D01*
X78251939Y-80982128D01*
X78251944Y-80982128D01*
X78338888Y-80963647D01*
X78432288Y-80943794D01*
X78438319Y-80941109D01*
X78600722Y-80868803D01*
X78600724Y-80868802D01*
X78606752Y-80866118D01*
X78617092Y-80858606D01*
X78683272Y-80810523D01*
X78761253Y-80753866D01*
X78809754Y-80700000D01*
X78816008Y-80693054D01*
X107661700Y-80693054D01*
X107679190Y-80851473D01*
X107681799Y-80858604D01*
X107681800Y-80858606D01*
X107684549Y-80866118D01*
X107733963Y-81001148D01*
X107738200Y-81007454D01*
X107738202Y-81007457D01*
X107778143Y-81066895D01*
X107822858Y-81133437D01*
X107940742Y-81240704D01*
X108080810Y-81316754D01*
X108234975Y-81357199D01*
X108316226Y-81358475D01*
X108386738Y-81359583D01*
X108386741Y-81359583D01*
X108394337Y-81359702D01*
X108401741Y-81358006D01*
X108401743Y-81358006D01*
X108459386Y-81344804D01*
X108549697Y-81324120D01*
X108634886Y-81281275D01*
X108685302Y-81255919D01*
X108685305Y-81255917D01*
X108692085Y-81252507D01*
X108813280Y-81148996D01*
X108870946Y-81068746D01*
X108901852Y-81025736D01*
X108901853Y-81025734D01*
X108906286Y-81019565D01*
X108913690Y-81001148D01*
X108962901Y-80878729D01*
X108965733Y-80871684D01*
X108988191Y-80713892D01*
X108988336Y-80700000D01*
X108987496Y-80693054D01*
X108970101Y-80549315D01*
X108970101Y-80549314D01*
X108969188Y-80541772D01*
X108960084Y-80517679D01*
X108915536Y-80399784D01*
X108915535Y-80399782D01*
X108912851Y-80392679D01*
X108852777Y-80305271D01*
X108826878Y-80267587D01*
X108826877Y-80267585D01*
X108822576Y-80261328D01*
X108816905Y-80256275D01*
X108709247Y-80160355D01*
X108709244Y-80160353D01*
X108703575Y-80155302D01*
X108689567Y-80147885D01*
X108569431Y-80084276D01*
X108569429Y-80084275D01*
X108562718Y-80080722D01*
X108552944Y-80078267D01*
X108415509Y-80043746D01*
X108415506Y-80043746D01*
X108408138Y-80041895D01*
X108400538Y-80041855D01*
X108400537Y-80041855D01*
X108335179Y-80041513D01*
X108248758Y-80041060D01*
X108241378Y-80042832D01*
X108241376Y-80042832D01*
X108101160Y-80076495D01*
X108101158Y-80076496D01*
X108093780Y-80078267D01*
X107952150Y-80151368D01*
X107946428Y-80156360D01*
X107946426Y-80156361D01*
X107885769Y-80209276D01*
X107832045Y-80256142D01*
X107823233Y-80268680D01*
X107747704Y-80376148D01*
X107740400Y-80386540D01*
X107682504Y-80535035D01*
X107681513Y-80542562D01*
X107666096Y-80659666D01*
X107661700Y-80693054D01*
X78816008Y-80693054D01*
X78884621Y-80616852D01*
X78884622Y-80616851D01*
X78889040Y-80611944D01*
X78984527Y-80446556D01*
X79043542Y-80264928D01*
X79044452Y-80256275D01*
X79062814Y-80081565D01*
X79063504Y-80075000D01*
X79053071Y-79975736D01*
X79044232Y-79891635D01*
X79044232Y-79891633D01*
X79043542Y-79885072D01*
X78984527Y-79703444D01*
X78889040Y-79538056D01*
X78854158Y-79499315D01*
X78765675Y-79401045D01*
X78765674Y-79401044D01*
X78761253Y-79396134D01*
X78606752Y-79283882D01*
X78600724Y-79281198D01*
X78600722Y-79281197D01*
X78438319Y-79208891D01*
X78438318Y-79208891D01*
X78432288Y-79206206D01*
X78338887Y-79186353D01*
X78251944Y-79167872D01*
X78251939Y-79167872D01*
X78245487Y-79166500D01*
X78054513Y-79166500D01*
X78048061Y-79167872D01*
X78048056Y-79167872D01*
X77961113Y-79186353D01*
X77867712Y-79206206D01*
X77861682Y-79208891D01*
X77861681Y-79208891D01*
X77699278Y-79281197D01*
X77699276Y-79281198D01*
X77693248Y-79283882D01*
X77538747Y-79396134D01*
X77534326Y-79401044D01*
X77534325Y-79401045D01*
X77445843Y-79499315D01*
X77410960Y-79538056D01*
X77315473Y-79703444D01*
X77256458Y-79885072D01*
X77255768Y-79891633D01*
X77255768Y-79891635D01*
X77246929Y-79975736D01*
X77236496Y-80075000D01*
X70405523Y-80075000D01*
X70481286Y-79969565D01*
X70488690Y-79951148D01*
X70537901Y-79828729D01*
X70540733Y-79821684D01*
X70563191Y-79663892D01*
X70563336Y-79650000D01*
X70562496Y-79643054D01*
X70545101Y-79499315D01*
X70545101Y-79499314D01*
X70544188Y-79491772D01*
X70538969Y-79477961D01*
X70490536Y-79349784D01*
X70490535Y-79349782D01*
X70487851Y-79342679D01*
X70397576Y-79211328D01*
X70391905Y-79206275D01*
X70284247Y-79110355D01*
X70284244Y-79110353D01*
X70278575Y-79105302D01*
X70264567Y-79097885D01*
X70144431Y-79034276D01*
X70144429Y-79034275D01*
X70137718Y-79030722D01*
X70127944Y-79028267D01*
X69990509Y-78993746D01*
X69990506Y-78993746D01*
X69983138Y-78991895D01*
X69975538Y-78991855D01*
X69975537Y-78991855D01*
X69910179Y-78991513D01*
X69823758Y-78991060D01*
X69816378Y-78992832D01*
X69816376Y-78992832D01*
X69676160Y-79026495D01*
X69676158Y-79026496D01*
X69668780Y-79028267D01*
X69527150Y-79101368D01*
X69407045Y-79206142D01*
X69368366Y-79261177D01*
X69352409Y-79283882D01*
X69315400Y-79336540D01*
X69257504Y-79485035D01*
X69256513Y-79492562D01*
X69250524Y-79538056D01*
X69236700Y-79643054D01*
X37728900Y-79643054D01*
X37728900Y-76968054D01*
X77061700Y-76968054D01*
X77079190Y-77126473D01*
X77081799Y-77133604D01*
X77081800Y-77133606D01*
X77086586Y-77146684D01*
X77133963Y-77276148D01*
X77138200Y-77282454D01*
X77138202Y-77282457D01*
X77176125Y-77338892D01*
X77222858Y-77408437D01*
X77340742Y-77515704D01*
X77480810Y-77591754D01*
X77634975Y-77632199D01*
X77716226Y-77633475D01*
X77786738Y-77634583D01*
X77786741Y-77634583D01*
X77794337Y-77634702D01*
X77801741Y-77633006D01*
X77801743Y-77633006D01*
X77859386Y-77619804D01*
X77949697Y-77599120D01*
X77971546Y-77588131D01*
X78085302Y-77530919D01*
X78085305Y-77530917D01*
X78092085Y-77527507D01*
X78213280Y-77423996D01*
X78281455Y-77329121D01*
X78289408Y-77318054D01*
X99386700Y-77318054D01*
X99387534Y-77325604D01*
X99399161Y-77430919D01*
X99404190Y-77476473D01*
X99406799Y-77483604D01*
X99406800Y-77483606D01*
X99413098Y-77500815D01*
X99458963Y-77626148D01*
X99463200Y-77632454D01*
X99463202Y-77632457D01*
X99504069Y-77693272D01*
X99547858Y-77758437D01*
X99665742Y-77865704D01*
X99805810Y-77941754D01*
X99959975Y-77982199D01*
X100041226Y-77983475D01*
X100111738Y-77984583D01*
X100111741Y-77984583D01*
X100119337Y-77984702D01*
X100126741Y-77983006D01*
X100126743Y-77983006D01*
X100184386Y-77969804D01*
X100274697Y-77949120D01*
X100296546Y-77938131D01*
X100410302Y-77880919D01*
X100410305Y-77880917D01*
X100417085Y-77877507D01*
X100538280Y-77773996D01*
X100631286Y-77644565D01*
X100638690Y-77626148D01*
X100687901Y-77503729D01*
X100690733Y-77496684D01*
X100713191Y-77338892D01*
X100713336Y-77325000D01*
X100712496Y-77318054D01*
X100695101Y-77174315D01*
X100695101Y-77174314D01*
X100694188Y-77166772D01*
X100688969Y-77152961D01*
X100640536Y-77024784D01*
X100640535Y-77024782D01*
X100637851Y-77017679D01*
X100559674Y-76903931D01*
X100551878Y-76892587D01*
X100551877Y-76892585D01*
X100547576Y-76886328D01*
X100541905Y-76881275D01*
X100527066Y-76868054D01*
X103411700Y-76868054D01*
X103414451Y-76892971D01*
X103426921Y-77005919D01*
X103429190Y-77026473D01*
X103431799Y-77033604D01*
X103431800Y-77033606D01*
X103453045Y-77091661D01*
X103483963Y-77176148D01*
X103488200Y-77182454D01*
X103488202Y-77182457D01*
X103529069Y-77243272D01*
X103572858Y-77308437D01*
X103690742Y-77415704D01*
X103830810Y-77491754D01*
X103984975Y-77532199D01*
X104066226Y-77533475D01*
X104136738Y-77534583D01*
X104136741Y-77534583D01*
X104144337Y-77534702D01*
X104151741Y-77533006D01*
X104151743Y-77533006D01*
X104227287Y-77515704D01*
X104299697Y-77499120D01*
X104321546Y-77488131D01*
X104435302Y-77430919D01*
X104435305Y-77430917D01*
X104442085Y-77427507D01*
X104550665Y-77334770D01*
X104557502Y-77328931D01*
X104563280Y-77323996D01*
X104656286Y-77194565D01*
X104663690Y-77176148D01*
X104712901Y-77053729D01*
X104715733Y-77046684D01*
X104738191Y-76888892D01*
X104738336Y-76875000D01*
X104737496Y-76868054D01*
X104720101Y-76724315D01*
X104720101Y-76724314D01*
X104719188Y-76716772D01*
X104700695Y-76667832D01*
X104665536Y-76574784D01*
X104665535Y-76574782D01*
X104662851Y-76567679D01*
X104581973Y-76450000D01*
X104577199Y-76443054D01*
X105061700Y-76443054D01*
X105079190Y-76601473D01*
X105081799Y-76608604D01*
X105081800Y-76608606D01*
X105086586Y-76621684D01*
X105133963Y-76751148D01*
X105138200Y-76757454D01*
X105138202Y-76757457D01*
X105154265Y-76781361D01*
X105222858Y-76883437D01*
X105340742Y-76990704D01*
X105480810Y-77066754D01*
X105634975Y-77107199D01*
X105716226Y-77108475D01*
X105786738Y-77109583D01*
X105786741Y-77109583D01*
X105794337Y-77109702D01*
X105801741Y-77108006D01*
X105801743Y-77108006D01*
X105859386Y-77094804D01*
X105949697Y-77074120D01*
X105971546Y-77063131D01*
X106085302Y-77005919D01*
X106085305Y-77005917D01*
X106092085Y-77002507D01*
X106213280Y-76898996D01*
X106277470Y-76809666D01*
X106301852Y-76775736D01*
X106301853Y-76775734D01*
X106306286Y-76769565D01*
X106313690Y-76751148D01*
X106362901Y-76628729D01*
X106365733Y-76621684D01*
X106388191Y-76463892D01*
X106388336Y-76450000D01*
X106387496Y-76443054D01*
X106370101Y-76299315D01*
X106370101Y-76299314D01*
X106369188Y-76291772D01*
X106312851Y-76142679D01*
X106222576Y-76011328D01*
X106216905Y-76006275D01*
X106109247Y-75910355D01*
X106109244Y-75910353D01*
X106103575Y-75905302D01*
X106089567Y-75897885D01*
X105969431Y-75834276D01*
X105969429Y-75834275D01*
X105962718Y-75830722D01*
X105952944Y-75828267D01*
X105815509Y-75793746D01*
X105815506Y-75793746D01*
X105808138Y-75791895D01*
X105800538Y-75791855D01*
X105800537Y-75791855D01*
X105735179Y-75791513D01*
X105648758Y-75791060D01*
X105641378Y-75792832D01*
X105641376Y-75792832D01*
X105501160Y-75826495D01*
X105501158Y-75826496D01*
X105493780Y-75828267D01*
X105352150Y-75901368D01*
X105232045Y-76006142D01*
X105140400Y-76136540D01*
X105082504Y-76285035D01*
X105081513Y-76292562D01*
X105062714Y-76435355D01*
X105061700Y-76443054D01*
X104577199Y-76443054D01*
X104576878Y-76442587D01*
X104576877Y-76442585D01*
X104572576Y-76436328D01*
X104566905Y-76431275D01*
X104459247Y-76335355D01*
X104459244Y-76335353D01*
X104453575Y-76330302D01*
X104431750Y-76318746D01*
X104319431Y-76259276D01*
X104319429Y-76259275D01*
X104312718Y-76255722D01*
X104302944Y-76253267D01*
X104165509Y-76218746D01*
X104165506Y-76218746D01*
X104158138Y-76216895D01*
X104150538Y-76216855D01*
X104150537Y-76216855D01*
X104085179Y-76216513D01*
X103998758Y-76216060D01*
X103991378Y-76217832D01*
X103991376Y-76217832D01*
X103851160Y-76251495D01*
X103851158Y-76251496D01*
X103843780Y-76253267D01*
X103782946Y-76284666D01*
X103720504Y-76316895D01*
X103702150Y-76326368D01*
X103696428Y-76331360D01*
X103696426Y-76331361D01*
X103664427Y-76359276D01*
X103582045Y-76431142D01*
X103568367Y-76450604D01*
X103507397Y-76537356D01*
X103490400Y-76561540D01*
X103432504Y-76710035D01*
X103431513Y-76717562D01*
X103418348Y-76817562D01*
X103411700Y-76868054D01*
X100527066Y-76868054D01*
X100434247Y-76785355D01*
X100434244Y-76785353D01*
X100428575Y-76780302D01*
X100421145Y-76776368D01*
X100294431Y-76709276D01*
X100294429Y-76709275D01*
X100287718Y-76705722D01*
X100276726Y-76702961D01*
X100140509Y-76668746D01*
X100140506Y-76668746D01*
X100133138Y-76666895D01*
X100125538Y-76666855D01*
X100125537Y-76666855D01*
X100060179Y-76666513D01*
X99973758Y-76666060D01*
X99966378Y-76667832D01*
X99966376Y-76667832D01*
X99826160Y-76701495D01*
X99826158Y-76701496D01*
X99818780Y-76703267D01*
X99739838Y-76744012D01*
X99690331Y-76769565D01*
X99677150Y-76776368D01*
X99671428Y-76781360D01*
X99671426Y-76781361D01*
X99630834Y-76816772D01*
X99557045Y-76881142D01*
X99544497Y-76898996D01*
X99480044Y-76990704D01*
X99465400Y-77011540D01*
X99407504Y-77160035D01*
X99406513Y-77167562D01*
X99391387Y-77282457D01*
X99386700Y-77318054D01*
X78289408Y-77318054D01*
X78301852Y-77300736D01*
X78301853Y-77300734D01*
X78306286Y-77294565D01*
X78313690Y-77276148D01*
X78362901Y-77153729D01*
X78365733Y-77146684D01*
X78388191Y-76988892D01*
X78388336Y-76975000D01*
X78387496Y-76968054D01*
X78370101Y-76824315D01*
X78370101Y-76824314D01*
X78369188Y-76816772D01*
X78357317Y-76785355D01*
X78315536Y-76674784D01*
X78315535Y-76674782D01*
X78312851Y-76667679D01*
X78222576Y-76536328D01*
X78216905Y-76531275D01*
X78109247Y-76435355D01*
X78109244Y-76435353D01*
X78103575Y-76430302D01*
X78096145Y-76426368D01*
X77969431Y-76359276D01*
X77969429Y-76359275D01*
X77962718Y-76355722D01*
X77952944Y-76353267D01*
X77815509Y-76318746D01*
X77815506Y-76318746D01*
X77808138Y-76316895D01*
X77800538Y-76316855D01*
X77800537Y-76316855D01*
X77735179Y-76316513D01*
X77648758Y-76316060D01*
X77641378Y-76317832D01*
X77641376Y-76317832D01*
X77501160Y-76351495D01*
X77501158Y-76351496D01*
X77493780Y-76353267D01*
X77352150Y-76426368D01*
X77346428Y-76431360D01*
X77346426Y-76431361D01*
X77320336Y-76454121D01*
X77232045Y-76531142D01*
X77205705Y-76568620D01*
X77173696Y-76614165D01*
X77140400Y-76661540D01*
X77082504Y-76810035D01*
X77081513Y-76817562D01*
X77071605Y-76892822D01*
X77061700Y-76968054D01*
X37728900Y-76968054D01*
X37728900Y-73443054D01*
X101886700Y-73443054D01*
X101904190Y-73601473D01*
X101906799Y-73608604D01*
X101906800Y-73608606D01*
X101911586Y-73621684D01*
X101958963Y-73751148D01*
X101963200Y-73757454D01*
X101963202Y-73757457D01*
X101975483Y-73775732D01*
X102047858Y-73883437D01*
X102165742Y-73990704D01*
X102305810Y-74066754D01*
X102459975Y-74107199D01*
X102541226Y-74108475D01*
X102611738Y-74109583D01*
X102611741Y-74109583D01*
X102619337Y-74109702D01*
X102626741Y-74108006D01*
X102626743Y-74108006D01*
X102694065Y-74092587D01*
X102774697Y-74074120D01*
X102917085Y-74002507D01*
X102917269Y-74002350D01*
X102982082Y-73982240D01*
X103050500Y-74001200D01*
X103097806Y-74054140D01*
X103108981Y-74124252D01*
X103087092Y-74180674D01*
X103069771Y-74205320D01*
X103065400Y-74211540D01*
X103007504Y-74360035D01*
X102986700Y-74518054D01*
X103004190Y-74676473D01*
X103006799Y-74683604D01*
X103006800Y-74683606D01*
X103011586Y-74696684D01*
X103058963Y-74826148D01*
X103063200Y-74832454D01*
X103063202Y-74832457D01*
X103104069Y-74893272D01*
X103147858Y-74958437D01*
X103265742Y-75065704D01*
X103405810Y-75141754D01*
X103559975Y-75182199D01*
X103641226Y-75183475D01*
X103711738Y-75184583D01*
X103711741Y-75184583D01*
X103719337Y-75184702D01*
X103726741Y-75183006D01*
X103726743Y-75183006D01*
X103784386Y-75169804D01*
X103874697Y-75149120D01*
X103896546Y-75138131D01*
X104010302Y-75080919D01*
X104010305Y-75080917D01*
X104017085Y-75077507D01*
X104138280Y-74973996D01*
X104231286Y-74844565D01*
X104238690Y-74826148D01*
X104287901Y-74703729D01*
X104290733Y-74696684D01*
X104313191Y-74538892D01*
X104313336Y-74525000D01*
X104312496Y-74518054D01*
X104295101Y-74374315D01*
X104295101Y-74374314D01*
X104294188Y-74366772D01*
X104237851Y-74217679D01*
X104192714Y-74152004D01*
X104151878Y-74092587D01*
X104151877Y-74092585D01*
X104147576Y-74086328D01*
X104141905Y-74081275D01*
X104034247Y-73985355D01*
X104034244Y-73985353D01*
X104028575Y-73980302D01*
X104021145Y-73976368D01*
X103894431Y-73909276D01*
X103894429Y-73909275D01*
X103887718Y-73905722D01*
X103877944Y-73903267D01*
X103740509Y-73868746D01*
X103740506Y-73868746D01*
X103733138Y-73866895D01*
X103725538Y-73866855D01*
X103725537Y-73866855D01*
X103660179Y-73866513D01*
X103573758Y-73866060D01*
X103566378Y-73867832D01*
X103566376Y-73867832D01*
X103426160Y-73901495D01*
X103426158Y-73901496D01*
X103418780Y-73903267D01*
X103277150Y-73976368D01*
X103275906Y-73973957D01*
X103220490Y-73991776D01*
X103151882Y-73973518D01*
X103104035Y-73921065D01*
X103092143Y-73851072D01*
X103114955Y-73792292D01*
X103131286Y-73769565D01*
X103138690Y-73751148D01*
X103187901Y-73628729D01*
X103190733Y-73621684D01*
X103213191Y-73463892D01*
X103213336Y-73450000D01*
X103212496Y-73443054D01*
X103195101Y-73299315D01*
X103195101Y-73299314D01*
X103194188Y-73291772D01*
X103137851Y-73142679D01*
X103047576Y-73011328D01*
X103041905Y-73006275D01*
X102934247Y-72910355D01*
X102934244Y-72910353D01*
X102928575Y-72905302D01*
X102914567Y-72897885D01*
X102794431Y-72834276D01*
X102794429Y-72834275D01*
X102787718Y-72830722D01*
X102777944Y-72828267D01*
X102640509Y-72793746D01*
X102640506Y-72793746D01*
X102633138Y-72791895D01*
X102625538Y-72791855D01*
X102625537Y-72791855D01*
X102560179Y-72791513D01*
X102473758Y-72791060D01*
X102466378Y-72792832D01*
X102466376Y-72792832D01*
X102326160Y-72826495D01*
X102326158Y-72826496D01*
X102318780Y-72828267D01*
X102177150Y-72901368D01*
X102057045Y-73006142D01*
X101965400Y-73136540D01*
X101907504Y-73285035D01*
X101886700Y-73443054D01*
X37728900Y-73443054D01*
X37728900Y-71918054D01*
X78311700Y-71918054D01*
X78329190Y-72076473D01*
X78331799Y-72083604D01*
X78331800Y-72083606D01*
X78336586Y-72096684D01*
X78383963Y-72226148D01*
X78388200Y-72232454D01*
X78388202Y-72232457D01*
X78429069Y-72293272D01*
X78472858Y-72358437D01*
X78590742Y-72465704D01*
X78730810Y-72541754D01*
X78884975Y-72582199D01*
X78966226Y-72583475D01*
X79036738Y-72584583D01*
X79036741Y-72584583D01*
X79044337Y-72584702D01*
X79051741Y-72583006D01*
X79051743Y-72583006D01*
X79109386Y-72569804D01*
X79199697Y-72549120D01*
X79221546Y-72538131D01*
X79335302Y-72480919D01*
X79335305Y-72480917D01*
X79342085Y-72477507D01*
X79463280Y-72373996D01*
X79556286Y-72244565D01*
X79563690Y-72226148D01*
X79612901Y-72103729D01*
X79615733Y-72096684D01*
X79638191Y-71938892D01*
X79638336Y-71925000D01*
X79637496Y-71918054D01*
X79620101Y-71774315D01*
X79620101Y-71774314D01*
X79619188Y-71766772D01*
X79562851Y-71617679D01*
X79472576Y-71486328D01*
X79466905Y-71481275D01*
X79359247Y-71385355D01*
X79359244Y-71385353D01*
X79353575Y-71380302D01*
X79339567Y-71372885D01*
X79219431Y-71309276D01*
X79219429Y-71309275D01*
X79212718Y-71305722D01*
X79202944Y-71303267D01*
X79065509Y-71268746D01*
X79065506Y-71268746D01*
X79058138Y-71266895D01*
X79050538Y-71266855D01*
X79050537Y-71266855D01*
X78985179Y-71266513D01*
X78898758Y-71266060D01*
X78891378Y-71267832D01*
X78891376Y-71267832D01*
X78751160Y-71301495D01*
X78751158Y-71301496D01*
X78743780Y-71303267D01*
X78602150Y-71376368D01*
X78482045Y-71481142D01*
X78390400Y-71611540D01*
X78332504Y-71760035D01*
X78311700Y-71918054D01*
X37728900Y-71918054D01*
X37728900Y-62163116D01*
X63905012Y-62163116D01*
X63941260Y-62429463D01*
X63942568Y-62433949D01*
X63942568Y-62433951D01*
X63962383Y-62501934D01*
X64016478Y-62687526D01*
X64018438Y-62691779D01*
X64018439Y-62691780D01*
X64023041Y-62701763D01*
X64129015Y-62931637D01*
X64131578Y-62935546D01*
X64273831Y-63152519D01*
X64273835Y-63152524D01*
X64276397Y-63156432D01*
X64455388Y-63356974D01*
X64662054Y-63528856D01*
X64891856Y-63668304D01*
X64896170Y-63670113D01*
X64896174Y-63670115D01*
X65135431Y-63770443D01*
X65139745Y-63772252D01*
X65400277Y-63838419D01*
X65623534Y-63860900D01*
X65783437Y-63860900D01*
X65785762Y-63860727D01*
X65785768Y-63860727D01*
X65978608Y-63846396D01*
X65978609Y-63846396D01*
X65983263Y-63846050D01*
X65987816Y-63845020D01*
X65987821Y-63845019D01*
X66240869Y-63787761D01*
X66240874Y-63787760D01*
X66245437Y-63786727D01*
X66495962Y-63689302D01*
X66729336Y-63555918D01*
X66940431Y-63389505D01*
X67124609Y-63193717D01*
X67277826Y-62972857D01*
X67296226Y-62935546D01*
X67311101Y-62905382D01*
X99067631Y-62905382D01*
X99067928Y-62910535D01*
X99067928Y-62910538D01*
X99071521Y-62972857D01*
X99081460Y-63145229D01*
X99082597Y-63150275D01*
X99082598Y-63150281D01*
X99105297Y-63251004D01*
X99134277Y-63379596D01*
X99136219Y-63384378D01*
X99136220Y-63384382D01*
X99222719Y-63597403D01*
X99224663Y-63602190D01*
X99350191Y-63807032D01*
X99507489Y-63988622D01*
X99692333Y-64142083D01*
X99899759Y-64263293D01*
X99904579Y-64265133D01*
X99904584Y-64265136D01*
X100011949Y-64306134D01*
X100124197Y-64348997D01*
X100129263Y-64350028D01*
X100129264Y-64350028D01*
X100185591Y-64361488D01*
X100359619Y-64396894D01*
X100494627Y-64401845D01*
X100594538Y-64405509D01*
X100594542Y-64405509D01*
X100599702Y-64405698D01*
X100604822Y-64405042D01*
X100604824Y-64405042D01*
X100680389Y-64395362D01*
X100838000Y-64375171D01*
X100842951Y-64373686D01*
X100842954Y-64373685D01*
X101063162Y-64307619D01*
X101063161Y-64307619D01*
X101068112Y-64306134D01*
X101283858Y-64200441D01*
X101479445Y-64060930D01*
X101649620Y-63891348D01*
X101789813Y-63696249D01*
X101896259Y-63480873D01*
X101925053Y-63386103D01*
X101964595Y-63255956D01*
X101964596Y-63255950D01*
X101966099Y-63251004D01*
X101997457Y-63012814D01*
X101998340Y-62976699D01*
X101999125Y-62944565D01*
X101999125Y-62944561D01*
X101999207Y-62941200D01*
X101979522Y-62701763D01*
X101920994Y-62468756D01*
X101825197Y-62248437D01*
X101694702Y-62046723D01*
X101533014Y-61869030D01*
X101407693Y-61770058D01*
X101366631Y-61712142D01*
X101363399Y-61641219D01*
X101399024Y-61579808D01*
X101412617Y-61568598D01*
X101475242Y-61523928D01*
X101479445Y-61520930D01*
X101649620Y-61351348D01*
X101789813Y-61156249D01*
X101896259Y-60940873D01*
X101912251Y-60888236D01*
X101964595Y-60715956D01*
X101964596Y-60715950D01*
X101966099Y-60711004D01*
X101997457Y-60472814D01*
X101998285Y-60438922D01*
X101999125Y-60404565D01*
X101999125Y-60404561D01*
X101999207Y-60401200D01*
X101979522Y-60161763D01*
X101920994Y-59928756D01*
X101825197Y-59708437D01*
X101694702Y-59506723D01*
X101691228Y-59502905D01*
X101691221Y-59502896D01*
X101664590Y-59473629D01*
X101633538Y-59409783D01*
X101641934Y-59339285D01*
X101687111Y-59284516D01*
X101713554Y-59270848D01*
X101723754Y-59267024D01*
X101739349Y-59258486D01*
X101841424Y-59181985D01*
X101853985Y-59169424D01*
X101930486Y-59067349D01*
X101939024Y-59051754D01*
X101984178Y-58931306D01*
X101987805Y-58916051D01*
X101993331Y-58865186D01*
X101993700Y-58858372D01*
X101993700Y-58133315D01*
X101989225Y-58118076D01*
X101987835Y-58116871D01*
X101980152Y-58115200D01*
X99090816Y-58115200D01*
X99075577Y-58119675D01*
X99074372Y-58121065D01*
X99072701Y-58128748D01*
X99072701Y-58858369D01*
X99073071Y-58865190D01*
X99078595Y-58916052D01*
X99082221Y-58931304D01*
X99127376Y-59051754D01*
X99135914Y-59067349D01*
X99212415Y-59169424D01*
X99224976Y-59181985D01*
X99327051Y-59258486D01*
X99342644Y-59267023D01*
X99350487Y-59269963D01*
X99407252Y-59312604D01*
X99431953Y-59379166D01*
X99416746Y-59448515D01*
X99400513Y-59470684D01*
X99400725Y-59470856D01*
X99397472Y-59474873D01*
X99393899Y-59478612D01*
X99258514Y-59677078D01*
X99256340Y-59681761D01*
X99256338Y-59681765D01*
X99159542Y-59890295D01*
X99157363Y-59894990D01*
X99093160Y-60126498D01*
X99067631Y-60365382D01*
X99067928Y-60370535D01*
X99067928Y-60370538D01*
X99070654Y-60417818D01*
X99081460Y-60605229D01*
X99082597Y-60610275D01*
X99082598Y-60610281D01*
X99105297Y-60711004D01*
X99134277Y-60839596D01*
X99136219Y-60844378D01*
X99136220Y-60844382D01*
X99222719Y-61057403D01*
X99224663Y-61062190D01*
X99350191Y-61267032D01*
X99507489Y-61448622D01*
X99511464Y-61451922D01*
X99511467Y-61451925D01*
X99660275Y-61575468D01*
X99699910Y-61634371D01*
X99701408Y-61705352D01*
X99664293Y-61765874D01*
X99655443Y-61773172D01*
X99559880Y-61844923D01*
X99393899Y-62018612D01*
X99258514Y-62217078D01*
X99256340Y-62221761D01*
X99256338Y-62221765D01*
X99159542Y-62430295D01*
X99157363Y-62434990D01*
X99093160Y-62666498D01*
X99067631Y-62905382D01*
X67311101Y-62905382D01*
X67394649Y-62735964D01*
X67394650Y-62735961D01*
X67396714Y-62731776D01*
X67478662Y-62475770D01*
X67479805Y-62468756D01*
X67521119Y-62215074D01*
X67521870Y-62210463D01*
X67525388Y-61941684D01*
X67489140Y-61675337D01*
X67487775Y-61670652D01*
X67458029Y-61568598D01*
X67413922Y-61417274D01*
X67301385Y-61173163D01*
X67267521Y-61121512D01*
X67156569Y-60952281D01*
X67156565Y-60952276D01*
X67154003Y-60948368D01*
X66975012Y-60747826D01*
X66768346Y-60575944D01*
X66538544Y-60436496D01*
X66534230Y-60434687D01*
X66534226Y-60434685D01*
X66294969Y-60334357D01*
X66290655Y-60332548D01*
X66030123Y-60266381D01*
X65806866Y-60243900D01*
X65646963Y-60243900D01*
X65644638Y-60244073D01*
X65644632Y-60244073D01*
X65451792Y-60258404D01*
X65451791Y-60258404D01*
X65447137Y-60258750D01*
X65442584Y-60259780D01*
X65442579Y-60259781D01*
X65189531Y-60317039D01*
X65189526Y-60317040D01*
X65184963Y-60318073D01*
X64934438Y-60415498D01*
X64701064Y-60548882D01*
X64489969Y-60715295D01*
X64305791Y-60911083D01*
X64152574Y-61131943D01*
X64150507Y-61136133D01*
X64150506Y-61136136D01*
X64046447Y-61347148D01*
X64033686Y-61373024D01*
X63951738Y-61629030D01*
X63950988Y-61633637D01*
X63950987Y-61633640D01*
X63928770Y-61770059D01*
X63908530Y-61894337D01*
X63905012Y-62163116D01*
X37728900Y-62163116D01*
X37728900Y-58850534D01*
X87856700Y-58850534D01*
X87863455Y-58912716D01*
X87914585Y-59049105D01*
X88001939Y-59165661D01*
X88118495Y-59253015D01*
X88254884Y-59304145D01*
X88317066Y-59310900D01*
X91413334Y-59310900D01*
X91475516Y-59304145D01*
X91611905Y-59253015D01*
X91728461Y-59165661D01*
X91815815Y-59049105D01*
X91866945Y-58912716D01*
X91873700Y-58850534D01*
X91873700Y-57589085D01*
X99072700Y-57589085D01*
X99077175Y-57604324D01*
X99078565Y-57605529D01*
X99086248Y-57607200D01*
X100261085Y-57607200D01*
X100276324Y-57602725D01*
X100277529Y-57601335D01*
X100279200Y-57593652D01*
X100279200Y-57589085D01*
X100787200Y-57589085D01*
X100791675Y-57604324D01*
X100793065Y-57605529D01*
X100800748Y-57607200D01*
X101975584Y-57607200D01*
X101990823Y-57602725D01*
X101992028Y-57601335D01*
X101993699Y-57593652D01*
X101993699Y-56864031D01*
X101993329Y-56857210D01*
X101987805Y-56806348D01*
X101984179Y-56791096D01*
X101939024Y-56670646D01*
X101930486Y-56655051D01*
X101853985Y-56552976D01*
X101841424Y-56540415D01*
X101739349Y-56463914D01*
X101723754Y-56455376D01*
X101603306Y-56410222D01*
X101588051Y-56406595D01*
X101537186Y-56401069D01*
X101530372Y-56400700D01*
X100805315Y-56400700D01*
X100790076Y-56405175D01*
X100788871Y-56406565D01*
X100787200Y-56414248D01*
X100787200Y-57589085D01*
X100279200Y-57589085D01*
X100279200Y-56418816D01*
X100274725Y-56403577D01*
X100273335Y-56402372D01*
X100265652Y-56400701D01*
X99536031Y-56400701D01*
X99529210Y-56401071D01*
X99478348Y-56406595D01*
X99463096Y-56410221D01*
X99342646Y-56455376D01*
X99327051Y-56463914D01*
X99224976Y-56540415D01*
X99212415Y-56552976D01*
X99135914Y-56655051D01*
X99127376Y-56670646D01*
X99082222Y-56791094D01*
X99078595Y-56806349D01*
X99073069Y-56857214D01*
X99072700Y-56864028D01*
X99072700Y-57589085D01*
X91873700Y-57589085D01*
X91873700Y-55754266D01*
X91866945Y-55692084D01*
X91815815Y-55555695D01*
X91728461Y-55439139D01*
X91611905Y-55351785D01*
X91475516Y-55300655D01*
X91413334Y-55293900D01*
X88317066Y-55293900D01*
X88254884Y-55300655D01*
X88118495Y-55351785D01*
X88001939Y-55439139D01*
X87914585Y-55555695D01*
X87863455Y-55692084D01*
X87856700Y-55754266D01*
X87856700Y-58850534D01*
X37728900Y-58850534D01*
X37728900Y-46868254D01*
X113086900Y-46868254D01*
X113104390Y-47026673D01*
X113106999Y-47033804D01*
X113107000Y-47033806D01*
X113111786Y-47046884D01*
X113159163Y-47176348D01*
X113163400Y-47182654D01*
X113163402Y-47182657D01*
X113204269Y-47243472D01*
X113248058Y-47308637D01*
X113365942Y-47415904D01*
X113506010Y-47491954D01*
X113660175Y-47532399D01*
X113741426Y-47533675D01*
X113811938Y-47534783D01*
X113811941Y-47534783D01*
X113819537Y-47534902D01*
X113826941Y-47533206D01*
X113826943Y-47533206D01*
X113884586Y-47520004D01*
X113974897Y-47499320D01*
X113996746Y-47488331D01*
X114110502Y-47431119D01*
X114110505Y-47431117D01*
X114117285Y-47427707D01*
X114238480Y-47324196D01*
X114331486Y-47194765D01*
X114338890Y-47176348D01*
X114388101Y-47053929D01*
X114390933Y-47046884D01*
X114413391Y-46889092D01*
X114413536Y-46875200D01*
X114412696Y-46868254D01*
X114395301Y-46724515D01*
X114395301Y-46724514D01*
X114394388Y-46716972D01*
X114338051Y-46567879D01*
X114247776Y-46436528D01*
X114242105Y-46431475D01*
X114134447Y-46335555D01*
X114134444Y-46335553D01*
X114128775Y-46330502D01*
X114114767Y-46323085D01*
X113994631Y-46259476D01*
X113994629Y-46259475D01*
X113987918Y-46255922D01*
X113978144Y-46253467D01*
X113840709Y-46218946D01*
X113840706Y-46218946D01*
X113833338Y-46217095D01*
X113825738Y-46217055D01*
X113825737Y-46217055D01*
X113760379Y-46216713D01*
X113673958Y-46216260D01*
X113666578Y-46218032D01*
X113666576Y-46218032D01*
X113526360Y-46251695D01*
X113526358Y-46251696D01*
X113518980Y-46253467D01*
X113377350Y-46326568D01*
X113257245Y-46431342D01*
X113165600Y-46561740D01*
X113107704Y-46710235D01*
X113086900Y-46868254D01*
X37728900Y-46868254D01*
X37728900Y-46192054D01*
X88640818Y-46192054D01*
X88647873Y-46202027D01*
X88678879Y-46227951D01*
X88685798Y-46232979D01*
X88910472Y-46373915D01*
X88918007Y-46377956D01*
X89159720Y-46487094D01*
X89167751Y-46490080D01*
X89422032Y-46565402D01*
X89430384Y-46567269D01*
X89692540Y-46607384D01*
X89701074Y-46608100D01*
X89966245Y-46612267D01*
X89974796Y-46611818D01*
X90238083Y-46579957D01*
X90246484Y-46578355D01*
X90503024Y-46511053D01*
X90511126Y-46508326D01*
X90756149Y-46406834D01*
X90763817Y-46403028D01*
X90992798Y-46269222D01*
X90999879Y-46264409D01*
X91079855Y-46201701D01*
X91088325Y-46189842D01*
X91081808Y-46178218D01*
X89878012Y-44974422D01*
X89864068Y-44966808D01*
X89862235Y-44966939D01*
X89855620Y-44971190D01*
X88648110Y-46178700D01*
X88640818Y-46192054D01*
X37728900Y-46192054D01*
X37728900Y-44585604D01*
X87852865Y-44585604D01*
X87868132Y-44850369D01*
X87869205Y-44858870D01*
X87920265Y-45119122D01*
X87922476Y-45127374D01*
X88008384Y-45378294D01*
X88011699Y-45386179D01*
X88130864Y-45623113D01*
X88135220Y-45630479D01*
X88264547Y-45818650D01*
X88274801Y-45826994D01*
X88288542Y-45819848D01*
X89493178Y-44615212D01*
X89499556Y-44603532D01*
X90229608Y-44603532D01*
X90229739Y-44605365D01*
X90233990Y-44611980D01*
X91440930Y-45818920D01*
X91453139Y-45825587D01*
X91464639Y-45816897D01*
X91562031Y-45684313D01*
X91566618Y-45677085D01*
X91625817Y-45568054D01*
X111036700Y-45568054D01*
X111054190Y-45726473D01*
X111056799Y-45733604D01*
X111056800Y-45733606D01*
X111061586Y-45746684D01*
X111108963Y-45876148D01*
X111113200Y-45882454D01*
X111113202Y-45882457D01*
X111154069Y-45943272D01*
X111197858Y-46008437D01*
X111315742Y-46115704D01*
X111328399Y-46122576D01*
X111430880Y-46178218D01*
X111455810Y-46191754D01*
X111609975Y-46232199D01*
X111691226Y-46233475D01*
X111761738Y-46234583D01*
X111761741Y-46234583D01*
X111769337Y-46234702D01*
X111776741Y-46233006D01*
X111776743Y-46233006D01*
X111842122Y-46218032D01*
X111924697Y-46199120D01*
X111965298Y-46178700D01*
X112060302Y-46130919D01*
X112060305Y-46130917D01*
X112067085Y-46127507D01*
X112188280Y-46023996D01*
X112281286Y-45894565D01*
X112288690Y-45876148D01*
X112337901Y-45753729D01*
X112340733Y-45746684D01*
X112363191Y-45588892D01*
X112363336Y-45575000D01*
X112362496Y-45568054D01*
X112345101Y-45424315D01*
X112345101Y-45424314D01*
X112344188Y-45416772D01*
X112287851Y-45267679D01*
X112233192Y-45188150D01*
X112201878Y-45142587D01*
X112201877Y-45142585D01*
X112197576Y-45136328D01*
X112191905Y-45131275D01*
X112084247Y-45035355D01*
X112084244Y-45035353D01*
X112078575Y-45030302D01*
X112064567Y-45022885D01*
X111944431Y-44959276D01*
X111944429Y-44959275D01*
X111937718Y-44955722D01*
X111927944Y-44953267D01*
X111790509Y-44918746D01*
X111790506Y-44918746D01*
X111783138Y-44916895D01*
X111775538Y-44916855D01*
X111775537Y-44916855D01*
X111710179Y-44916513D01*
X111623758Y-44916060D01*
X111616378Y-44917832D01*
X111616376Y-44917832D01*
X111476160Y-44951495D01*
X111476158Y-44951496D01*
X111468780Y-44953267D01*
X111327150Y-45026368D01*
X111321428Y-45031360D01*
X111321426Y-45031361D01*
X111298778Y-45051118D01*
X111207045Y-45131142D01*
X111168366Y-45186177D01*
X111127542Y-45244264D01*
X111115400Y-45261540D01*
X111057504Y-45410035D01*
X111056513Y-45417562D01*
X111053030Y-45444021D01*
X111036700Y-45568054D01*
X91625817Y-45568054D01*
X91693162Y-45444021D01*
X91696730Y-45436227D01*
X91790471Y-45188150D01*
X91792948Y-45179944D01*
X91852154Y-44921438D01*
X91853494Y-44912977D01*
X91877231Y-44647016D01*
X91877477Y-44642077D01*
X91877866Y-44604885D01*
X91877723Y-44599919D01*
X91859562Y-44333523D01*
X91858401Y-44325049D01*
X91804619Y-44065344D01*
X91802320Y-44057109D01*
X91713788Y-43807105D01*
X91710391Y-43799254D01*
X91686921Y-43753782D01*
X99067631Y-43753782D01*
X99081460Y-43993629D01*
X99082597Y-43998675D01*
X99082598Y-43998681D01*
X99105297Y-44099404D01*
X99134277Y-44227996D01*
X99136219Y-44232778D01*
X99136220Y-44232782D01*
X99173686Y-44325049D01*
X99224663Y-44450590D01*
X99350191Y-44655432D01*
X99507489Y-44837022D01*
X99692333Y-44990483D01*
X99899759Y-45111693D01*
X99904579Y-45113533D01*
X99904584Y-45113536D01*
X100011949Y-45154534D01*
X100124197Y-45197397D01*
X100129263Y-45198428D01*
X100129264Y-45198428D01*
X100185591Y-45209888D01*
X100359619Y-45245294D01*
X100494627Y-45250245D01*
X100594538Y-45253909D01*
X100594542Y-45253909D01*
X100599702Y-45254098D01*
X100604822Y-45253442D01*
X100604824Y-45253442D01*
X100680389Y-45243762D01*
X100838000Y-45223571D01*
X100842951Y-45222086D01*
X100842954Y-45222085D01*
X101063162Y-45156019D01*
X101063161Y-45156019D01*
X101068112Y-45154534D01*
X101283858Y-45048841D01*
X101388190Y-44974422D01*
X101475242Y-44912328D01*
X101479445Y-44909330D01*
X101530082Y-44858870D01*
X101645960Y-44743395D01*
X101649620Y-44739748D01*
X101789813Y-44544649D01*
X101896259Y-44329273D01*
X101912251Y-44276636D01*
X101964595Y-44104356D01*
X101964596Y-44104350D01*
X101966099Y-44099404D01*
X101997457Y-43861214D01*
X101999207Y-43789600D01*
X101979522Y-43550163D01*
X101920994Y-43317156D01*
X101825197Y-43096837D01*
X101694702Y-42895123D01*
X101533014Y-42717430D01*
X101407693Y-42618458D01*
X101366631Y-42560542D01*
X101363399Y-42489619D01*
X101399024Y-42428208D01*
X101412617Y-42416998D01*
X101475242Y-42372328D01*
X101479445Y-42369330D01*
X101649620Y-42199748D01*
X101789813Y-42004649D01*
X101896259Y-41789273D01*
X101912251Y-41736636D01*
X101964595Y-41564356D01*
X101964596Y-41564350D01*
X101966099Y-41559404D01*
X101996451Y-41328856D01*
X101997020Y-41324535D01*
X101997020Y-41324531D01*
X101997457Y-41321214D01*
X101999207Y-41249600D01*
X101979522Y-41010163D01*
X101920994Y-40777156D01*
X101825197Y-40556837D01*
X101694702Y-40355123D01*
X101691228Y-40351305D01*
X101691221Y-40351296D01*
X101664590Y-40322029D01*
X101633538Y-40258183D01*
X101641934Y-40187685D01*
X101687111Y-40132916D01*
X101713554Y-40119248D01*
X101723754Y-40115424D01*
X101739349Y-40106886D01*
X101841424Y-40030385D01*
X101853985Y-40017824D01*
X101930486Y-39915749D01*
X101939024Y-39900154D01*
X101984178Y-39779706D01*
X101987805Y-39764451D01*
X101993331Y-39713586D01*
X101993700Y-39706772D01*
X101993700Y-38981715D01*
X101989225Y-38966476D01*
X101987835Y-38965271D01*
X101980152Y-38963600D01*
X99090816Y-38963600D01*
X99075577Y-38968075D01*
X99074372Y-38969465D01*
X99072701Y-38977148D01*
X99072701Y-39706769D01*
X99073071Y-39713590D01*
X99078595Y-39764452D01*
X99082221Y-39779704D01*
X99127376Y-39900154D01*
X99135914Y-39915749D01*
X99212415Y-40017824D01*
X99224976Y-40030385D01*
X99327051Y-40106886D01*
X99342644Y-40115423D01*
X99350487Y-40118363D01*
X99407252Y-40161004D01*
X99431953Y-40227566D01*
X99416746Y-40296915D01*
X99400513Y-40319084D01*
X99400725Y-40319256D01*
X99397472Y-40323273D01*
X99393899Y-40327012D01*
X99258514Y-40525478D01*
X99256340Y-40530161D01*
X99256338Y-40530165D01*
X99161004Y-40735546D01*
X99157363Y-40743390D01*
X99093160Y-40974898D01*
X99067631Y-41213782D01*
X99067928Y-41218935D01*
X99067928Y-41218938D01*
X99075659Y-41353026D01*
X99081460Y-41453629D01*
X99082597Y-41458675D01*
X99082598Y-41458681D01*
X99105297Y-41559404D01*
X99134277Y-41687996D01*
X99136219Y-41692778D01*
X99136220Y-41692782D01*
X99175401Y-41789273D01*
X99224663Y-41910590D01*
X99350191Y-42115432D01*
X99507489Y-42297022D01*
X99511464Y-42300322D01*
X99511467Y-42300325D01*
X99660275Y-42423868D01*
X99699910Y-42482771D01*
X99701408Y-42553752D01*
X99664293Y-42614274D01*
X99655443Y-42621572D01*
X99559880Y-42693323D01*
X99393899Y-42867012D01*
X99258514Y-43065478D01*
X99256340Y-43070161D01*
X99256338Y-43070165D01*
X99159542Y-43278695D01*
X99157363Y-43283390D01*
X99093160Y-43514898D01*
X99067631Y-43753782D01*
X91686921Y-43753782D01*
X91588750Y-43563578D01*
X91584322Y-43556266D01*
X91465231Y-43386817D01*
X91454709Y-43378437D01*
X91441321Y-43385489D01*
X90237222Y-44589588D01*
X90229608Y-44603532D01*
X89499556Y-44603532D01*
X89500792Y-44601268D01*
X89500661Y-44599435D01*
X89496410Y-44592820D01*
X88289014Y-43385424D01*
X88277004Y-43378866D01*
X88265264Y-43387834D01*
X88157135Y-43538311D01*
X88152618Y-43545596D01*
X88028525Y-43779967D01*
X88025039Y-43787795D01*
X87933900Y-44036846D01*
X87931511Y-44045070D01*
X87875012Y-44304195D01*
X87873763Y-44312650D01*
X87852954Y-44577053D01*
X87852865Y-44585604D01*
X37728900Y-44585604D01*
X37728900Y-43014900D01*
X88641784Y-43014900D01*
X88648180Y-43026170D01*
X89852388Y-44230378D01*
X89866332Y-44237992D01*
X89868165Y-44237861D01*
X89874780Y-44233610D01*
X91081804Y-43026586D01*
X91088995Y-43013417D01*
X91081673Y-43003180D01*
X91034433Y-42964515D01*
X91027461Y-42959560D01*
X90801322Y-42820982D01*
X90793752Y-42817024D01*
X90550904Y-42710422D01*
X90542844Y-42707520D01*
X90287792Y-42634867D01*
X90279414Y-42633085D01*
X90016856Y-42595718D01*
X90008311Y-42595091D01*
X89743108Y-42593702D01*
X89734574Y-42594239D01*
X89471633Y-42628856D01*
X89463235Y-42630549D01*
X89207438Y-42700527D01*
X89199343Y-42703346D01*
X88955399Y-42807397D01*
X88947777Y-42811281D01*
X88720213Y-42947475D01*
X88713181Y-42952362D01*
X88650253Y-43002777D01*
X88641784Y-43014900D01*
X37728900Y-43014900D01*
X37728900Y-39963116D01*
X49155012Y-39963116D01*
X49191260Y-40229463D01*
X49192568Y-40233949D01*
X49192568Y-40233951D01*
X49210920Y-40296915D01*
X49266478Y-40487526D01*
X49379015Y-40731637D01*
X49403291Y-40768664D01*
X49523831Y-40952519D01*
X49523835Y-40952524D01*
X49526397Y-40956432D01*
X49705388Y-41156974D01*
X49767521Y-41208649D01*
X49906859Y-41324535D01*
X49912054Y-41328856D01*
X50141856Y-41468304D01*
X50146170Y-41470113D01*
X50146174Y-41470115D01*
X50359106Y-41559404D01*
X50389745Y-41572252D01*
X50650277Y-41638419D01*
X50873534Y-41660900D01*
X51033437Y-41660900D01*
X51035762Y-41660727D01*
X51035768Y-41660727D01*
X51228608Y-41646396D01*
X51228609Y-41646396D01*
X51233263Y-41646050D01*
X51237816Y-41645020D01*
X51237821Y-41645019D01*
X51490869Y-41587761D01*
X51490874Y-41587760D01*
X51495437Y-41586727D01*
X51745962Y-41489302D01*
X51979336Y-41355918D01*
X52019146Y-41324535D01*
X52153095Y-41218938D01*
X52190431Y-41189505D01*
X52374609Y-40993717D01*
X52527826Y-40772857D01*
X52546226Y-40735546D01*
X52644649Y-40535964D01*
X52644650Y-40535961D01*
X52646714Y-40531776D01*
X52728662Y-40275770D01*
X52771870Y-40010463D01*
X52772490Y-39963116D01*
X77155012Y-39963116D01*
X77191260Y-40229463D01*
X77192568Y-40233949D01*
X77192568Y-40233951D01*
X77210920Y-40296915D01*
X77266478Y-40487526D01*
X77379015Y-40731637D01*
X77403291Y-40768664D01*
X77523831Y-40952519D01*
X77523835Y-40952524D01*
X77526397Y-40956432D01*
X77705388Y-41156974D01*
X77767521Y-41208649D01*
X77906859Y-41324535D01*
X77912054Y-41328856D01*
X78141856Y-41468304D01*
X78146170Y-41470113D01*
X78146174Y-41470115D01*
X78359106Y-41559404D01*
X78389745Y-41572252D01*
X78650277Y-41638419D01*
X78873534Y-41660900D01*
X79033437Y-41660900D01*
X79035762Y-41660727D01*
X79035768Y-41660727D01*
X79228608Y-41646396D01*
X79228609Y-41646396D01*
X79233263Y-41646050D01*
X79237816Y-41645020D01*
X79237821Y-41645019D01*
X79490869Y-41587761D01*
X79490874Y-41587760D01*
X79495437Y-41586727D01*
X79745962Y-41489302D01*
X79979336Y-41355918D01*
X80019146Y-41324535D01*
X80153095Y-41218938D01*
X80190431Y-41189505D01*
X80374609Y-40993717D01*
X80527826Y-40772857D01*
X80546226Y-40735546D01*
X80644649Y-40535964D01*
X80644650Y-40535961D01*
X80646714Y-40531776D01*
X80728662Y-40275770D01*
X80771870Y-40010463D01*
X80774890Y-39779706D01*
X80775327Y-39746361D01*
X80775327Y-39746358D01*
X80775388Y-39741684D01*
X80739140Y-39475337D01*
X80724346Y-39424579D01*
X80665233Y-39221773D01*
X80663922Y-39217274D01*
X80551385Y-38973163D01*
X80517521Y-38921512D01*
X80406569Y-38752281D01*
X80406565Y-38752276D01*
X80404003Y-38748368D01*
X80225012Y-38547826D01*
X80092341Y-38437485D01*
X99072700Y-38437485D01*
X99077175Y-38452724D01*
X99078565Y-38453929D01*
X99086248Y-38455600D01*
X100261085Y-38455600D01*
X100276324Y-38451125D01*
X100277529Y-38449735D01*
X100279200Y-38442052D01*
X100279200Y-38437485D01*
X100787200Y-38437485D01*
X100791675Y-38452724D01*
X100793065Y-38453929D01*
X100800748Y-38455600D01*
X101975584Y-38455600D01*
X101990823Y-38451125D01*
X101992028Y-38449735D01*
X101993699Y-38442052D01*
X101993699Y-37712431D01*
X101993329Y-37705610D01*
X101987805Y-37654748D01*
X101984179Y-37639496D01*
X101939024Y-37519046D01*
X101930486Y-37503451D01*
X101853985Y-37401376D01*
X101841424Y-37388815D01*
X101739349Y-37312314D01*
X101723754Y-37303776D01*
X101603306Y-37258622D01*
X101588051Y-37254995D01*
X101537186Y-37249469D01*
X101530372Y-37249100D01*
X100805315Y-37249100D01*
X100790076Y-37253575D01*
X100788871Y-37254965D01*
X100787200Y-37262648D01*
X100787200Y-38437485D01*
X100279200Y-38437485D01*
X100279200Y-37267216D01*
X100274725Y-37251977D01*
X100273335Y-37250772D01*
X100265652Y-37249101D01*
X99536031Y-37249101D01*
X99529210Y-37249471D01*
X99478348Y-37254995D01*
X99463096Y-37258621D01*
X99342646Y-37303776D01*
X99327051Y-37312314D01*
X99224976Y-37388815D01*
X99212415Y-37401376D01*
X99135914Y-37503451D01*
X99127376Y-37519046D01*
X99082222Y-37639494D01*
X99078595Y-37654749D01*
X99073069Y-37705614D01*
X99072700Y-37712428D01*
X99072700Y-38437485D01*
X80092341Y-38437485D01*
X80018346Y-38375944D01*
X79788544Y-38236496D01*
X79784230Y-38234687D01*
X79784226Y-38234685D01*
X79544969Y-38134357D01*
X79540655Y-38132548D01*
X79280123Y-38066381D01*
X79056866Y-38043900D01*
X78896963Y-38043900D01*
X78894638Y-38044073D01*
X78894632Y-38044073D01*
X78701792Y-38058404D01*
X78701791Y-38058404D01*
X78697137Y-38058750D01*
X78692584Y-38059780D01*
X78692579Y-38059781D01*
X78439531Y-38117039D01*
X78439526Y-38117040D01*
X78434963Y-38118073D01*
X78184438Y-38215498D01*
X77951064Y-38348882D01*
X77739969Y-38515295D01*
X77555791Y-38711083D01*
X77402574Y-38931943D01*
X77400507Y-38936133D01*
X77400506Y-38936136D01*
X77380153Y-38977409D01*
X77283686Y-39173024D01*
X77201738Y-39429030D01*
X77158530Y-39694337D01*
X77155012Y-39963116D01*
X52772490Y-39963116D01*
X52774890Y-39779706D01*
X52775327Y-39746361D01*
X52775327Y-39746358D01*
X52775388Y-39741684D01*
X52739140Y-39475337D01*
X52724346Y-39424579D01*
X52665233Y-39221773D01*
X52663922Y-39217274D01*
X52551385Y-38973163D01*
X52517521Y-38921512D01*
X52406569Y-38752281D01*
X52406565Y-38752276D01*
X52404003Y-38748368D01*
X52225012Y-38547826D01*
X52018346Y-38375944D01*
X51788544Y-38236496D01*
X51784230Y-38234687D01*
X51784226Y-38234685D01*
X51544969Y-38134357D01*
X51540655Y-38132548D01*
X51280123Y-38066381D01*
X51056866Y-38043900D01*
X50896963Y-38043900D01*
X50894638Y-38044073D01*
X50894632Y-38044073D01*
X50701792Y-38058404D01*
X50701791Y-38058404D01*
X50697137Y-38058750D01*
X50692584Y-38059780D01*
X50692579Y-38059781D01*
X50439531Y-38117039D01*
X50439526Y-38117040D01*
X50434963Y-38118073D01*
X50184438Y-38215498D01*
X49951064Y-38348882D01*
X49739969Y-38515295D01*
X49555791Y-38711083D01*
X49402574Y-38931943D01*
X49400507Y-38936133D01*
X49400506Y-38936136D01*
X49380153Y-38977409D01*
X49283686Y-39173024D01*
X49201738Y-39429030D01*
X49158530Y-39694337D01*
X49155012Y-39963116D01*
X37728900Y-39963116D01*
X37728900Y-34756100D01*
X37748902Y-34687979D01*
X37802558Y-34641486D01*
X37854900Y-34630100D01*
X115561100Y-34630100D01*
X115629221Y-34650102D01*
G37*
%TD.AperFunction*%
%TD*%
M02*
