%TF.GenerationSoftware,KiCad,Pcbnew,6.0.9-8da3e8f707~117~ubuntu22.04.1*%
%TF.CreationDate,2022-12-19T03:44:25-03:00*%
%TF.ProjectId,kiproject,6b697072-6f6a-4656-9374-2e6b69636164,rev?*%
%TF.SameCoordinates,Original*%
%TF.FileFunction,Legend,Bot*%
%TF.FilePolarity,Positive*%
%FSLAX46Y46*%
G04 Gerber Fmt 4.6, Leading zero omitted, Abs format (unit mm)*
G04 Created by KiCad (PCBNEW 6.0.9-8da3e8f707~117~ubuntu22.04.1) date 2022-12-19 03:44:25*
%MOMM*%
%LPD*%
G01*
G04 APERTURE LIST*
%ADD10C,0.150000*%
G04 APERTURE END LIST*
D10*
%TO.C,U4*%
X75732052Y-79820838D02*
X75684433Y-79916076D01*
X75636814Y-79963695D01*
X75541576Y-80011314D01*
X75493957Y-80011314D01*
X75398719Y-79963695D01*
X75351100Y-79916076D01*
X75303480Y-79820838D01*
X75303480Y-79630361D01*
X75351100Y-79535123D01*
X75398719Y-79487504D01*
X75493957Y-79439885D01*
X75541576Y-79439885D01*
X75636814Y-79487504D01*
X75684433Y-79535123D01*
X75732052Y-79630361D01*
X75732052Y-79820838D01*
X75779671Y-79916076D01*
X75827290Y-79963695D01*
X75922528Y-80011314D01*
X76113004Y-80011314D01*
X76208242Y-79963695D01*
X76255861Y-79916076D01*
X76303480Y-79820838D01*
X76303480Y-79630361D01*
X76255861Y-79535123D01*
X76208242Y-79487504D01*
X76113004Y-79439885D01*
X75922528Y-79439885D01*
X75827290Y-79487504D01*
X75779671Y-79535123D01*
X75732052Y-79630361D01*
X69658185Y-86085180D02*
X69658185Y-85085180D01*
X69658185Y-85561371D02*
X70229614Y-85561371D01*
X70229614Y-86085180D02*
X70229614Y-85085180D01*
X69705804Y-81249466D02*
X70181995Y-81249466D01*
X69610566Y-81535180D02*
X69943900Y-80535180D01*
X70277233Y-81535180D01*
X71753480Y-79439885D02*
X71753480Y-80011314D01*
X71753480Y-79725600D02*
X70753480Y-79725600D01*
X70896338Y-79820838D01*
X70991576Y-79916076D01*
X71039195Y-80011314D01*
%TD*%
M02*
