%TF.GenerationSoftware,KiCad,Pcbnew,6.0.9-8da3e8f707~117~ubuntu22.04.1*%
%TF.CreationDate,2022-12-19T03:44:25-03:00*%
%TF.ProjectId,kiproject,6b697072-6f6a-4656-9374-2e6b69636164,rev?*%
%TF.SameCoordinates,Original*%
%TF.FileFunction,Copper,L4,Bot*%
%TF.FilePolarity,Positive*%
%FSLAX46Y46*%
G04 Gerber Fmt 4.6, Leading zero omitted, Abs format (unit mm)*
G04 Created by KiCad (PCBNEW 6.0.9-8da3e8f707~117~ubuntu22.04.1) date 2022-12-19 03:44:25*
%MOMM*%
%LPD*%
G01*
G04 APERTURE LIST*
%TA.AperFunction,ComponentPad*%
%ADD10C,2.000000*%
%TD*%
%TA.AperFunction,ComponentPad*%
%ADD11R,3.000000X3.000000*%
%TD*%
%TA.AperFunction,ComponentPad*%
%ADD12C,3.000000*%
%TD*%
%TA.AperFunction,ComponentPad*%
%ADD13R,1.905000X1.905000*%
%TD*%
%TA.AperFunction,ComponentPad*%
%ADD14C,1.905000*%
%TD*%
%TA.AperFunction,SMDPad,CuDef*%
%ADD15R,4.700000X1.350000*%
%TD*%
%TA.AperFunction,SMDPad,CuDef*%
%ADD16R,4.700000X1.500000*%
%TD*%
%TA.AperFunction,ViaPad*%
%ADD17C,0.800000*%
%TD*%
%TA.AperFunction,ViaPad*%
%ADD18C,0.300000*%
%TD*%
%TA.AperFunction,Conductor*%
%ADD19C,0.200000*%
%TD*%
%TA.AperFunction,Conductor*%
%ADD20C,0.293370*%
%TD*%
%TA.AperFunction,Conductor*%
%ADD21C,0.250000*%
%TD*%
G04 APERTURE END LIST*
D10*
%TO.P,SW1,1,1*%
%TO.N,GND*%
X46177200Y-84552400D03*
X39677200Y-84552400D03*
%TO.P,SW1,2,2*%
%TO.N,Net-(R1-Pad2)*%
X39677200Y-89052400D03*
X46177200Y-89052400D03*
%TD*%
D11*
%TO.P,BT1,1,+*%
%TO.N,Net-(BT1-Pad1)*%
X89865200Y-57302400D03*
D12*
%TO.P,BT1,2,-*%
%TO.N,GND*%
X89865200Y-44602400D03*
%TD*%
D13*
%TO.P,U1,1,GND*%
%TO.N,GND*%
X100533200Y-57861200D03*
D14*
%TO.P,U1,2,VO*%
%TO.N,VDD*%
X100533200Y-60401200D03*
%TO.P,U1,3,VI*%
%TO.N,Net-(BT1-Pad1)*%
X100533200Y-62941200D03*
%TD*%
D13*
%TO.P,U2,1,GND*%
%TO.N,GND*%
X100533200Y-38709600D03*
D14*
%TO.P,U2,2,VO*%
%TO.N,VDDA*%
X100533200Y-41249600D03*
%TO.P,U2,3,VI*%
%TO.N,Net-(BT1-Pad1)*%
X100533200Y-43789600D03*
%TD*%
D15*
%TO.P,J1,2*%
%TO.N,GND*%
X114076300Y-77805800D03*
D16*
X114076300Y-72155800D03*
%TD*%
D17*
%TO.N,GND*%
X89650000Y-74825000D03*
X86500000Y-85725000D03*
D18*
X80725000Y-73950000D03*
D17*
X63347600Y-90271600D03*
D18*
X73575000Y-81375000D03*
D17*
X104325000Y-69850000D03*
D18*
X74875000Y-81375000D03*
X74900000Y-82725000D03*
D17*
X114250000Y-69850000D03*
D18*
X83700000Y-73950000D03*
D17*
X71625000Y-79425000D03*
X67818000Y-85496400D03*
D18*
X73575000Y-82725000D03*
D17*
X76475000Y-71025000D03*
D18*
%TO.N,RFSW PWR*%
X74250000Y-84000000D03*
X113750200Y-46875200D03*
X105725000Y-76450000D03*
X100050000Y-77325000D03*
%TO.N,Net-(C17-Pad1)*%
X102550000Y-73450000D03*
X111000000Y-82450000D03*
%TO.N,RFO HF*%
X69800000Y-81725000D03*
X62700000Y-85700000D03*
%TO.N,VR PA*%
X71625000Y-82700000D03*
X77725000Y-76975000D03*
%TO.N,RFI HF*%
X108325000Y-80700000D03*
X69900000Y-79650000D03*
%TO.N,PA BOOST*%
X71600000Y-84050000D03*
X71600000Y-84050000D03*
X78975000Y-71925000D03*
%TO.N,TXRX*%
X71625000Y-83325000D03*
X104075000Y-76875000D03*
%TO.N,BAND SEL*%
X74900000Y-84000000D03*
X103650000Y-74525000D03*
%TO.N,XTA*%
X111700000Y-45575000D03*
X74246650Y-85328350D03*
D17*
%TO.N,VDD*%
X78150000Y-80075000D03*
D18*
X83375000Y-86625000D03*
D17*
X81610200Y-84963000D03*
D18*
X73600000Y-84650000D03*
D17*
X51562000Y-84124800D03*
D18*
%TO.N,Net-(C3-Pad1)*%
X65825000Y-85550000D03*
X74225000Y-82050000D03*
D17*
%TO.N,VDDA*%
X66954400Y-89357200D03*
D18*
X72250000Y-82075000D03*
X68300000Y-80825000D03*
%TD*%
D19*
%TO.N,RFSW PWR*%
X105725000Y-76450000D02*
X105725000Y-74250000D01*
X105725000Y-74250000D02*
X113750200Y-66224800D01*
X113750200Y-66224800D02*
X113750200Y-46875200D01*
X76300000Y-83550000D02*
X74700000Y-83550000D01*
X74700000Y-83550000D02*
X74250000Y-84000000D01*
X100050000Y-77325000D02*
X82525000Y-77325000D01*
X82525000Y-77325000D02*
X76300000Y-83550000D01*
D20*
%TO.N,Net-(C17-Pad1)*%
X102550000Y-73450000D02*
X103211397Y-73450000D01*
X109025000Y-79700000D02*
X111000000Y-81675000D01*
X111000000Y-81675000D02*
X111000000Y-82450000D01*
X106275000Y-79700000D02*
X109025000Y-79700000D01*
X105200000Y-75438603D02*
X105200000Y-78625000D01*
X103211397Y-73450000D02*
X105200000Y-75438603D01*
X105200000Y-78625000D02*
X106275000Y-79700000D01*
%TO.N,RFO HF*%
X66675000Y-81725000D02*
X69800000Y-81725000D01*
X62700000Y-85700000D02*
X66675000Y-81725000D01*
D21*
%TO.N,VR PA*%
X72725000Y-80500000D02*
X72725000Y-82271752D01*
X76250000Y-76975000D02*
X72725000Y-80500000D01*
X72296752Y-82700000D02*
X71625000Y-82700000D01*
X77725000Y-76975000D02*
X76250000Y-76975000D01*
X72725000Y-82271752D02*
X72296752Y-82700000D01*
D20*
%TO.N,RFI HF*%
X64767428Y-92524400D02*
X62125000Y-89881972D01*
X62125000Y-89881972D02*
X62125000Y-85425000D01*
D19*
X64950000Y-92524400D02*
X64767428Y-92524400D01*
D20*
X108325000Y-80700000D02*
X96500600Y-92524400D01*
X62125000Y-85425000D02*
X67900000Y-79650000D01*
X67900000Y-79650000D02*
X69900000Y-79650000D01*
D19*
X69900000Y-79650000D02*
X69925000Y-79650000D01*
D20*
X96500600Y-92524400D02*
X64950000Y-92524400D01*
%TO.N,PA BOOST*%
X72350000Y-84050000D02*
X72600000Y-83800000D01*
X73039000Y-80686000D02*
X76300000Y-77425000D01*
X73039000Y-82401816D02*
X73039000Y-80686000D01*
X72600000Y-82840816D02*
X73039000Y-82401816D01*
X78975000Y-76361397D02*
X78975000Y-71925000D01*
X71600000Y-84050000D02*
X72350000Y-84050000D01*
X76300000Y-77425000D02*
X77911397Y-77425000D01*
X72600000Y-83800000D02*
X72600000Y-82840816D01*
X77911397Y-77425000D02*
X78975000Y-76361397D01*
D19*
%TO.N,TXRX*%
X104075000Y-76875000D02*
X90500000Y-90450000D01*
X90500000Y-90450000D02*
X67214228Y-90450000D01*
X71625000Y-83325000D02*
X71675000Y-83325000D01*
X64875000Y-88110772D02*
X64875000Y-84200000D01*
X65750000Y-83325000D02*
X71625000Y-83325000D01*
X67214228Y-90450000D02*
X64875000Y-88110772D01*
X64875000Y-84200000D02*
X65750000Y-83325000D01*
%TO.N,BAND SEL*%
X103650000Y-74525000D02*
X94175000Y-84000000D01*
X94175000Y-84000000D02*
X74900000Y-84000000D01*
%TO.N,XTA*%
X101340300Y-59259700D02*
X100060375Y-59259700D01*
X74352603Y-83261000D02*
X73150000Y-84463603D01*
X111700000Y-48900000D02*
X101340300Y-59259700D01*
X76064000Y-83261000D02*
X74352603Y-83261000D01*
X99391700Y-59928375D02*
X99391700Y-59933300D01*
X111700000Y-45575000D02*
X111700000Y-48900000D01*
X73150000Y-84836397D02*
X73641953Y-85328350D01*
X100060375Y-59259700D02*
X99391700Y-59928375D01*
X99391700Y-59933300D02*
X76064000Y-83261000D01*
X73641953Y-85328350D02*
X74246650Y-85328350D01*
X73150000Y-84463603D02*
X73150000Y-84836397D01*
%TO.N,VDD*%
X73600000Y-84650000D02*
X81400000Y-84650000D01*
X81400000Y-84650000D02*
X83375000Y-86625000D01*
%TO.N,Net-(C3-Pad1)*%
X66467600Y-84907400D02*
X65825000Y-85550000D01*
X74225000Y-82975000D02*
X72575000Y-84625000D01*
X72300000Y-84625000D02*
X72017600Y-84907400D01*
X74225000Y-82050000D02*
X74225000Y-82975000D01*
X72017600Y-84907400D02*
X66467600Y-84907400D01*
X72575000Y-84625000D02*
X72300000Y-84625000D01*
%TO.N,VDDA*%
X68300000Y-80825000D02*
X71000000Y-80825000D01*
X71000000Y-80825000D02*
X72250000Y-82075000D01*
%TD*%
M02*
