%TF.GenerationSoftware,KiCad,Pcbnew,6.0.9-8da3e8f707~117~ubuntu22.04.1*%
%TF.CreationDate,2022-12-19T03:44:25-03:00*%
%TF.ProjectId,kiproject,6b697072-6f6a-4656-9374-2e6b69636164,rev?*%
%TF.SameCoordinates,Original*%
%TF.FileFunction,Paste,Top*%
%TF.FilePolarity,Positive*%
%FSLAX46Y46*%
G04 Gerber Fmt 4.6, Leading zero omitted, Abs format (unit mm)*
G04 Created by KiCad (PCBNEW 6.0.9-8da3e8f707~117~ubuntu22.04.1) date 2022-12-19 03:44:25*
%MOMM*%
%LPD*%
G01*
G04 APERTURE LIST*
G04 Aperture macros list*
%AMRoundRect*
0 Rectangle with rounded corners*
0 $1 Rounding radius*
0 $2 $3 $4 $5 $6 $7 $8 $9 X,Y pos of 4 corners*
0 Add a 4 corners polygon primitive as box body*
4,1,4,$2,$3,$4,$5,$6,$7,$8,$9,$2,$3,0*
0 Add four circle primitives for the rounded corners*
1,1,$1+$1,$2,$3*
1,1,$1+$1,$4,$5*
1,1,$1+$1,$6,$7*
1,1,$1+$1,$8,$9*
0 Add four rect primitives between the rounded corners*
20,1,$1+$1,$2,$3,$4,$5,0*
20,1,$1+$1,$4,$5,$6,$7,0*
20,1,$1+$1,$6,$7,$8,$9,0*
20,1,$1+$1,$8,$9,$2,$3,0*%
G04 Aperture macros list end*
%ADD10C,0.010000*%
%ADD11RoundRect,0.225000X0.225000X0.250000X-0.225000X0.250000X-0.225000X-0.250000X0.225000X-0.250000X0*%
%ADD12RoundRect,0.079500X0.079500X0.100500X-0.079500X0.100500X-0.079500X-0.100500X0.079500X-0.100500X0*%
%ADD13RoundRect,0.079500X-0.079500X-0.100500X0.079500X-0.100500X0.079500X0.100500X-0.079500X0.100500X0*%
%ADD14RoundRect,0.079500X0.100500X-0.079500X0.100500X0.079500X-0.100500X0.079500X-0.100500X-0.079500X0*%
%ADD15RoundRect,0.140000X0.140000X0.170000X-0.140000X0.170000X-0.140000X-0.170000X0.140000X-0.170000X0*%
%ADD16C,0.365760*%
%ADD17RoundRect,0.180000X0.200000X0.250000X-0.200000X0.250000X-0.200000X-0.250000X0.200000X-0.250000X0*%
%ADD18RoundRect,0.170000X0.200000X0.250000X-0.200000X0.250000X-0.200000X-0.250000X0.200000X-0.250000X0*%
%ADD19RoundRect,0.079500X-0.100500X0.079500X-0.100500X-0.079500X0.100500X-0.079500X0.100500X0.079500X0*%
%ADD20R,0.500000X1.000000*%
%ADD21RoundRect,0.140000X-0.140000X-0.170000X0.140000X-0.170000X0.140000X0.170000X-0.140000X0.170000X0*%
%ADD22RoundRect,0.006600X-0.308400X-0.103400X0.308400X-0.103400X0.308400X0.103400X-0.308400X0.103400X0*%
%ADD23RoundRect,0.017600X-0.092400X-0.297400X0.092400X-0.297400X0.092400X0.297400X-0.092400X0.297400X0*%
%ADD24R,4.400000X1.500000*%
%ADD25R,4.700000X1.350000*%
%ADD26R,4.700000X1.500000*%
G04 APERTURE END LIST*
%TO.C,U3*%
G36*
X105190000Y-72640000D02*
G01*
X104710000Y-72640000D01*
X104710000Y-72160000D01*
X105190000Y-72160000D01*
X105190000Y-72640000D01*
G37*
D10*
X105190000Y-72640000D02*
X104710000Y-72640000D01*
X104710000Y-72160000D01*
X105190000Y-72160000D01*
X105190000Y-72640000D01*
%TD*%
D11*
%TO.C,C31*%
X111163400Y-39878000D03*
X109613400Y-39878000D03*
%TD*%
D12*
%TO.C,L3*%
X92855000Y-71875000D03*
X93545000Y-71875000D03*
%TD*%
D13*
%TO.C,C9*%
X76849800Y-88595200D03*
X76159800Y-88595200D03*
%TD*%
D14*
%TO.C,C30*%
X70967600Y-73162600D03*
X70967600Y-73852600D03*
%TD*%
D13*
%TO.C,C6*%
X75755000Y-74800000D03*
X76445000Y-74800000D03*
%TD*%
D15*
%TO.C,R1*%
X52448400Y-91236800D03*
X51488400Y-91236800D03*
%TD*%
D16*
%TO.C,U4*%
X71301100Y-81082800D03*
X71951100Y-81082800D03*
X72601100Y-81082800D03*
X73251100Y-81082800D03*
X73901100Y-81082800D03*
X74551100Y-81082800D03*
X75201100Y-81082800D03*
X75851100Y-81082800D03*
X71301100Y-81732800D03*
X71951100Y-81732800D03*
X72601100Y-81732800D03*
X73251100Y-81732800D03*
X73901100Y-81732800D03*
X74551100Y-81732800D03*
X75201100Y-81732800D03*
X75851100Y-81732800D03*
X71301100Y-82382800D03*
X71951100Y-82382800D03*
X72601100Y-82382800D03*
X73251100Y-82382800D03*
X73901100Y-82382800D03*
X74551100Y-82382800D03*
X75201100Y-82382800D03*
X75851100Y-82382800D03*
X71301100Y-83032800D03*
X71951100Y-83032800D03*
X72601100Y-83032800D03*
X73251100Y-83032800D03*
X73901100Y-83032800D03*
X74551100Y-83032800D03*
X75201100Y-83032800D03*
X75851100Y-83032800D03*
X71301100Y-83682800D03*
X71951100Y-83682800D03*
X72601100Y-83682800D03*
X73251100Y-83682800D03*
X73901100Y-83682800D03*
X74551100Y-83682800D03*
X75201100Y-83682800D03*
X75851100Y-83682800D03*
X71301100Y-84332800D03*
X71951100Y-84332800D03*
X72601100Y-84332800D03*
X73251100Y-84332800D03*
X73901100Y-84332800D03*
X74551100Y-84332800D03*
X75201100Y-84332800D03*
X75851100Y-84332800D03*
X71301100Y-84982800D03*
X71951100Y-84982800D03*
X72601100Y-84982800D03*
X73251100Y-84982800D03*
X73901100Y-84982800D03*
X74551100Y-84982800D03*
X75201100Y-84982800D03*
X75851100Y-84982800D03*
X71301100Y-85632800D03*
X71951100Y-85632800D03*
X72601100Y-85632800D03*
X73251100Y-85632800D03*
X73901100Y-85632800D03*
X74551100Y-85632800D03*
X75201100Y-85632800D03*
X75851100Y-85632800D03*
%TD*%
D12*
%TO.C,C5*%
X66406200Y-80822800D03*
X67096200Y-80822800D03*
%TD*%
D13*
%TO.C,C15*%
X105780000Y-77325000D03*
X106470000Y-77325000D03*
%TD*%
D12*
%TO.C,C8*%
X69077400Y-86410800D03*
X68387400Y-86410800D03*
%TD*%
%TO.C,L4*%
X100495000Y-82425000D03*
X99805000Y-82425000D03*
%TD*%
D13*
%TO.C,C2*%
X75830000Y-79500000D03*
X76520000Y-79500000D03*
%TD*%
D12*
%TO.C,C19*%
X107820000Y-76100000D03*
X107130000Y-76100000D03*
%TD*%
D17*
%TO.C,XC1*%
X113750200Y-42809000D03*
X111700201Y-42809000D03*
D18*
X111700201Y-44259000D03*
D17*
X113750200Y-44259000D03*
%TD*%
D14*
%TO.C,C21*%
X102950000Y-81780000D03*
X102950000Y-82470000D03*
%TD*%
D19*
%TO.C,C11*%
X73914000Y-90311800D03*
X73914000Y-89621800D03*
%TD*%
D14*
%TO.C,C29*%
X74472800Y-73801800D03*
X74472800Y-73111800D03*
%TD*%
D12*
%TO.C,L1*%
X98055000Y-71875000D03*
X98745000Y-71875000D03*
%TD*%
D19*
%TO.C,C20*%
X95700000Y-72545000D03*
X95700000Y-71855000D03*
%TD*%
D20*
%TO.C,Y1*%
X73752800Y-77520800D03*
X72652800Y-77520800D03*
%TD*%
D12*
%TO.C,C24*%
X87255000Y-71875000D03*
X87945000Y-71875000D03*
%TD*%
%TO.C,L9*%
X80945000Y-71925000D03*
X80255000Y-71925000D03*
%TD*%
D21*
%TO.C,R2*%
X51539200Y-86918800D03*
X52499200Y-86918800D03*
%TD*%
D19*
%TO.C,C12*%
X77927200Y-90311800D03*
X77927200Y-89621800D03*
%TD*%
D14*
%TO.C,C27*%
X80700000Y-76995000D03*
X80700000Y-76305000D03*
%TD*%
D19*
%TO.C,C22*%
X90625000Y-72545000D03*
X90625000Y-71855000D03*
%TD*%
%TO.C,C28*%
X87275000Y-82480000D03*
X87275000Y-83170000D03*
%TD*%
%TO.C,C18*%
X107800000Y-73005000D03*
X107800000Y-73695000D03*
%TD*%
D13*
%TO.C,C13*%
X79345000Y-85625000D03*
X78655000Y-85625000D03*
%TD*%
D12*
%TO.C,L5*%
X107130000Y-78775000D03*
X107820000Y-78775000D03*
%TD*%
%TO.C,C1*%
X81625000Y-86614000D03*
X80935000Y-86614000D03*
%TD*%
%TO.C,L6*%
X94645000Y-82480000D03*
X93955000Y-82480000D03*
%TD*%
D19*
%TO.C,C7*%
X71526400Y-87771800D03*
X71526400Y-87081800D03*
%TD*%
%TO.C,L7*%
X87275000Y-76940000D03*
X87275000Y-76250000D03*
%TD*%
%TO.C,L8*%
X87275000Y-79380000D03*
X87275000Y-80070000D03*
%TD*%
%TO.C,C16*%
X101525000Y-72545000D03*
X101525000Y-71855000D03*
%TD*%
D13*
%TO.C,C4*%
X75805000Y-77200000D03*
X76495000Y-77200000D03*
%TD*%
D14*
%TO.C,C17*%
X109325000Y-82470000D03*
X109325000Y-81780000D03*
%TD*%
D22*
%TO.C,U3*%
X103910000Y-71900000D03*
X103910000Y-72400000D03*
X103910000Y-72900000D03*
D23*
X104450000Y-73440000D03*
X104950000Y-73440000D03*
X105450000Y-73440000D03*
D22*
X105990000Y-72900000D03*
X105990000Y-72400000D03*
X105990000Y-71900000D03*
D23*
X105450000Y-71360000D03*
X104950000Y-71360000D03*
X104450000Y-71360000D03*
%TD*%
D14*
%TO.C,C23*%
X97450000Y-82470000D03*
X97450000Y-81780000D03*
%TD*%
D12*
%TO.C,C26*%
X91230000Y-82500000D03*
X91920000Y-82500000D03*
%TD*%
%TO.C,L2*%
X106445000Y-82425000D03*
X105755000Y-82425000D03*
%TD*%
D13*
%TO.C,C3*%
X66486600Y-84328000D03*
X65796600Y-84328000D03*
%TD*%
D24*
%TO.C,J1*%
X114053300Y-74980800D03*
D25*
X114076300Y-77805800D03*
D26*
X114076300Y-72155800D03*
%TD*%
D19*
%TO.C,C10*%
X69850000Y-90311800D03*
X69850000Y-89621800D03*
%TD*%
%TO.C,C25*%
X84625000Y-71855000D03*
X84625000Y-72545000D03*
%TD*%
M02*
