%TF.GenerationSoftware,KiCad,Pcbnew,6.0.9-8da3e8f707~117~ubuntu22.04.1*%
%TF.CreationDate,2022-12-19T03:44:25-03:00*%
%TF.ProjectId,kiproject,6b697072-6f6a-4656-9374-2e6b69636164,rev?*%
%TF.SameCoordinates,Original*%
%TF.FileFunction,Legend,Top*%
%TF.FilePolarity,Positive*%
%FSLAX46Y46*%
G04 Gerber Fmt 4.6, Leading zero omitted, Abs format (unit mm)*
G04 Created by KiCad (PCBNEW 6.0.9-8da3e8f707~117~ubuntu22.04.1) date 2022-12-19 03:44:25*
%MOMM*%
%LPD*%
G01*
G04 APERTURE LIST*
%ADD10C,0.150000*%
%ADD11C,0.254000*%
%ADD12C,0.120000*%
%ADD13C,0.200000*%
%ADD14C,0.100000*%
%ADD15C,0.152400*%
%ADD16C,0.127000*%
G04 APERTURE END LIST*
D10*
%TO.C,C31*%
X109745542Y-41665142D02*
X109697923Y-41712761D01*
X109555066Y-41760380D01*
X109459828Y-41760380D01*
X109316971Y-41712761D01*
X109221733Y-41617523D01*
X109174114Y-41522285D01*
X109126495Y-41331809D01*
X109126495Y-41188952D01*
X109174114Y-40998476D01*
X109221733Y-40903238D01*
X109316971Y-40808000D01*
X109459828Y-40760380D01*
X109555066Y-40760380D01*
X109697923Y-40808000D01*
X109745542Y-40855619D01*
X110078876Y-40760380D02*
X110697923Y-40760380D01*
X110364590Y-41141333D01*
X110507447Y-41141333D01*
X110602685Y-41188952D01*
X110650304Y-41236571D01*
X110697923Y-41331809D01*
X110697923Y-41569904D01*
X110650304Y-41665142D01*
X110602685Y-41712761D01*
X110507447Y-41760380D01*
X110221733Y-41760380D01*
X110126495Y-41712761D01*
X110078876Y-41665142D01*
X111650304Y-41760380D02*
X111078876Y-41760380D01*
X111364590Y-41760380D02*
X111364590Y-40760380D01*
X111269352Y-40903238D01*
X111174114Y-40998476D01*
X111078876Y-41046095D01*
%TO.C,L3*%
X93677380Y-73966666D02*
X93677380Y-74442857D01*
X92677380Y-74442857D01*
X92677380Y-73728571D02*
X92677380Y-73109523D01*
X93058333Y-73442857D01*
X93058333Y-73300000D01*
X93105952Y-73204761D01*
X93153571Y-73157142D01*
X93248809Y-73109523D01*
X93486904Y-73109523D01*
X93582142Y-73157142D01*
X93629761Y-73204761D01*
X93677380Y-73300000D01*
X93677380Y-73585714D01*
X93629761Y-73680952D01*
X93582142Y-73728571D01*
%TO.C,C9*%
X76338133Y-87902342D02*
X76290514Y-87949961D01*
X76147657Y-87997580D01*
X76052419Y-87997580D01*
X75909561Y-87949961D01*
X75814323Y-87854723D01*
X75766704Y-87759485D01*
X75719085Y-87569009D01*
X75719085Y-87426152D01*
X75766704Y-87235676D01*
X75814323Y-87140438D01*
X75909561Y-87045200D01*
X76052419Y-86997580D01*
X76147657Y-86997580D01*
X76290514Y-87045200D01*
X76338133Y-87092819D01*
X76814323Y-87997580D02*
X77004800Y-87997580D01*
X77100038Y-87949961D01*
X77147657Y-87902342D01*
X77242895Y-87759485D01*
X77290514Y-87569009D01*
X77290514Y-87188057D01*
X77242895Y-87092819D01*
X77195276Y-87045200D01*
X77100038Y-86997580D01*
X76909561Y-86997580D01*
X76814323Y-87045200D01*
X76766704Y-87092819D01*
X76719085Y-87188057D01*
X76719085Y-87426152D01*
X76766704Y-87521390D01*
X76814323Y-87569009D01*
X76909561Y-87616628D01*
X77100038Y-87616628D01*
X77195276Y-87569009D01*
X77242895Y-87521390D01*
X77290514Y-87426152D01*
%TO.C,C30*%
X70274742Y-74150457D02*
X70322361Y-74198076D01*
X70369980Y-74340933D01*
X70369980Y-74436171D01*
X70322361Y-74579028D01*
X70227123Y-74674266D01*
X70131885Y-74721885D01*
X69941409Y-74769504D01*
X69798552Y-74769504D01*
X69608076Y-74721885D01*
X69512838Y-74674266D01*
X69417600Y-74579028D01*
X69369980Y-74436171D01*
X69369980Y-74340933D01*
X69417600Y-74198076D01*
X69465219Y-74150457D01*
X69369980Y-73817123D02*
X69369980Y-73198076D01*
X69750933Y-73531409D01*
X69750933Y-73388552D01*
X69798552Y-73293314D01*
X69846171Y-73245695D01*
X69941409Y-73198076D01*
X70179504Y-73198076D01*
X70274742Y-73245695D01*
X70322361Y-73293314D01*
X70369980Y-73388552D01*
X70369980Y-73674266D01*
X70322361Y-73769504D01*
X70274742Y-73817123D01*
X69369980Y-72579028D02*
X69369980Y-72483790D01*
X69417600Y-72388552D01*
X69465219Y-72340933D01*
X69560457Y-72293314D01*
X69750933Y-72245695D01*
X69989028Y-72245695D01*
X70179504Y-72293314D01*
X70274742Y-72340933D01*
X70322361Y-72388552D01*
X70369980Y-72483790D01*
X70369980Y-72579028D01*
X70322361Y-72674266D01*
X70274742Y-72721885D01*
X70179504Y-72769504D01*
X69989028Y-72817123D01*
X69750933Y-72817123D01*
X69560457Y-72769504D01*
X69465219Y-72721885D01*
X69417600Y-72674266D01*
X69369980Y-72579028D01*
%TO.C,C6*%
X75933333Y-74107142D02*
X75885714Y-74154761D01*
X75742857Y-74202380D01*
X75647619Y-74202380D01*
X75504761Y-74154761D01*
X75409523Y-74059523D01*
X75361904Y-73964285D01*
X75314285Y-73773809D01*
X75314285Y-73630952D01*
X75361904Y-73440476D01*
X75409523Y-73345238D01*
X75504761Y-73250000D01*
X75647619Y-73202380D01*
X75742857Y-73202380D01*
X75885714Y-73250000D01*
X75933333Y-73297619D01*
X76790476Y-73202380D02*
X76600000Y-73202380D01*
X76504761Y-73250000D01*
X76457142Y-73297619D01*
X76361904Y-73440476D01*
X76314285Y-73630952D01*
X76314285Y-74011904D01*
X76361904Y-74107142D01*
X76409523Y-74154761D01*
X76504761Y-74202380D01*
X76695238Y-74202380D01*
X76790476Y-74154761D01*
X76838095Y-74107142D01*
X76885714Y-74011904D01*
X76885714Y-73773809D01*
X76838095Y-73678571D01*
X76790476Y-73630952D01*
X76695238Y-73583333D01*
X76504761Y-73583333D01*
X76409523Y-73630952D01*
X76361904Y-73678571D01*
X76314285Y-73773809D01*
%TO.C,R1*%
X51801733Y-92849180D02*
X51468400Y-92372990D01*
X51230304Y-92849180D02*
X51230304Y-91849180D01*
X51611257Y-91849180D01*
X51706495Y-91896800D01*
X51754114Y-91944419D01*
X51801733Y-92039657D01*
X51801733Y-92182514D01*
X51754114Y-92277752D01*
X51706495Y-92325371D01*
X51611257Y-92372990D01*
X51230304Y-92372990D01*
X52754114Y-92849180D02*
X52182685Y-92849180D01*
X52468400Y-92849180D02*
X52468400Y-91849180D01*
X52373161Y-91992038D01*
X52277923Y-92087276D01*
X52182685Y-92134895D01*
%TO.C,U4*%
X72814195Y-82810180D02*
X72814195Y-83619704D01*
X72861814Y-83714942D01*
X72909433Y-83762561D01*
X73004671Y-83810180D01*
X73195147Y-83810180D01*
X73290385Y-83762561D01*
X73338004Y-83714942D01*
X73385623Y-83619704D01*
X73385623Y-82810180D01*
X74290385Y-83143514D02*
X74290385Y-83810180D01*
X74052290Y-82762561D02*
X73814195Y-83476847D01*
X74433242Y-83476847D01*
X67814195Y-83524466D02*
X68290385Y-83524466D01*
X67718957Y-83810180D02*
X68052290Y-82810180D01*
X68385623Y-83810180D01*
X68576100Y-82810180D02*
X69147528Y-82810180D01*
X68861814Y-83810180D02*
X68861814Y-82810180D01*
X69433242Y-83762561D02*
X69576100Y-83810180D01*
X69814195Y-83810180D01*
X69909433Y-83762561D01*
X69957052Y-83714942D01*
X70004671Y-83619704D01*
X70004671Y-83524466D01*
X69957052Y-83429228D01*
X69909433Y-83381609D01*
X69814195Y-83333990D01*
X69623719Y-83286371D01*
X69528480Y-83238752D01*
X69480861Y-83191133D01*
X69433242Y-83095895D01*
X69433242Y-83000657D01*
X69480861Y-82905419D01*
X69528480Y-82857800D01*
X69623719Y-82810180D01*
X69861814Y-82810180D01*
X70004671Y-82857800D01*
X70385623Y-83524466D02*
X70861814Y-83524466D01*
X70290385Y-83810180D02*
X70623719Y-82810180D01*
X70957052Y-83810180D01*
X71290385Y-83810180D02*
X71290385Y-82810180D01*
X71623719Y-83524466D01*
X71957052Y-82810180D01*
X71957052Y-83810180D01*
X73004671Y-83810180D02*
X72671338Y-83333990D01*
X72433242Y-83810180D02*
X72433242Y-82810180D01*
X72814195Y-82810180D01*
X72909433Y-82857800D01*
X72957052Y-82905419D01*
X73004671Y-83000657D01*
X73004671Y-83143514D01*
X72957052Y-83238752D01*
X72909433Y-83286371D01*
X72814195Y-83333990D01*
X72433242Y-83333990D01*
X73338004Y-82810180D02*
X73957052Y-82810180D01*
X73623719Y-83191133D01*
X73766576Y-83191133D01*
X73861814Y-83238752D01*
X73909433Y-83286371D01*
X73957052Y-83381609D01*
X73957052Y-83619704D01*
X73909433Y-83714942D01*
X73861814Y-83762561D01*
X73766576Y-83810180D01*
X73480861Y-83810180D01*
X73385623Y-83762561D01*
X73338004Y-83714942D01*
X74814195Y-83143514D02*
X74814195Y-83810180D01*
X74576100Y-82762561D02*
X74338004Y-83476847D01*
X74957052Y-83476847D01*
X75623719Y-82810180D02*
X75623719Y-83524466D01*
X75576100Y-83667323D01*
X75480861Y-83762561D01*
X75338004Y-83810180D01*
X75242766Y-83810180D01*
X76623719Y-83810180D02*
X76052290Y-83810180D01*
X76338004Y-83810180D02*
X76338004Y-82810180D01*
X76242766Y-82953038D01*
X76147528Y-83048276D01*
X76052290Y-83095895D01*
X77195147Y-83238752D02*
X77099909Y-83191133D01*
X77052290Y-83143514D01*
X77004671Y-83048276D01*
X77004671Y-83000657D01*
X77052290Y-82905419D01*
X77099909Y-82857800D01*
X77195147Y-82810180D01*
X77385623Y-82810180D01*
X77480861Y-82857800D01*
X77528480Y-82905419D01*
X77576100Y-83000657D01*
X77576100Y-83048276D01*
X77528480Y-83143514D01*
X77480861Y-83191133D01*
X77385623Y-83238752D01*
X77195147Y-83238752D01*
X77099909Y-83286371D01*
X77052290Y-83333990D01*
X77004671Y-83429228D01*
X77004671Y-83619704D01*
X77052290Y-83714942D01*
X77099909Y-83762561D01*
X77195147Y-83810180D01*
X77385623Y-83810180D01*
X77480861Y-83762561D01*
X77528480Y-83714942D01*
X77576100Y-83619704D01*
X77576100Y-83429228D01*
X77528480Y-83333990D01*
X77480861Y-83286371D01*
X77385623Y-83238752D01*
X78338004Y-83286371D02*
X78480861Y-83333990D01*
X78528480Y-83381609D01*
X78576100Y-83476847D01*
X78576100Y-83619704D01*
X78528480Y-83714942D01*
X78480861Y-83762561D01*
X78385623Y-83810180D01*
X78004671Y-83810180D01*
X78004671Y-82810180D01*
X78338004Y-82810180D01*
X78433242Y-82857800D01*
X78480861Y-82905419D01*
X78528480Y-83000657D01*
X78528480Y-83095895D01*
X78480861Y-83191133D01*
X78433242Y-83238752D01*
X78338004Y-83286371D01*
X78004671Y-83286371D01*
X78861814Y-82810180D02*
X79433242Y-82810180D01*
X79147528Y-83810180D02*
X79147528Y-82810180D01*
X71753480Y-79439885D02*
X71753480Y-80011314D01*
X71753480Y-79725600D02*
X70753480Y-79725600D01*
X70896338Y-79820838D01*
X70991576Y-79916076D01*
X71039195Y-80011314D01*
X69705804Y-81249466D02*
X70181995Y-81249466D01*
X69610566Y-81535180D02*
X69943900Y-80535180D01*
X70277233Y-81535180D01*
X75732052Y-79820838D02*
X75684433Y-79916076D01*
X75636814Y-79963695D01*
X75541576Y-80011314D01*
X75493957Y-80011314D01*
X75398719Y-79963695D01*
X75351100Y-79916076D01*
X75303480Y-79820838D01*
X75303480Y-79630361D01*
X75351100Y-79535123D01*
X75398719Y-79487504D01*
X75493957Y-79439885D01*
X75541576Y-79439885D01*
X75636814Y-79487504D01*
X75684433Y-79535123D01*
X75732052Y-79630361D01*
X75732052Y-79820838D01*
X75779671Y-79916076D01*
X75827290Y-79963695D01*
X75922528Y-80011314D01*
X76113004Y-80011314D01*
X76208242Y-79963695D01*
X76255861Y-79916076D01*
X76303480Y-79820838D01*
X76303480Y-79630361D01*
X76255861Y-79535123D01*
X76208242Y-79487504D01*
X76113004Y-79439885D01*
X75922528Y-79439885D01*
X75827290Y-79487504D01*
X75779671Y-79535123D01*
X75732052Y-79630361D01*
X69658185Y-86085180D02*
X69658185Y-85085180D01*
X69658185Y-85561371D02*
X70229614Y-85561371D01*
X70229614Y-86085180D02*
X70229614Y-85085180D01*
X73576100Y-82810180D02*
X73576100Y-83048276D01*
X73338004Y-82953038D02*
X73576100Y-83048276D01*
X73814195Y-82953038D01*
X73433242Y-83238752D02*
X73576100Y-83048276D01*
X73718957Y-83238752D01*
%TO.C,C5*%
X66584533Y-82229942D02*
X66536914Y-82277561D01*
X66394057Y-82325180D01*
X66298819Y-82325180D01*
X66155961Y-82277561D01*
X66060723Y-82182323D01*
X66013104Y-82087085D01*
X65965485Y-81896609D01*
X65965485Y-81753752D01*
X66013104Y-81563276D01*
X66060723Y-81468038D01*
X66155961Y-81372800D01*
X66298819Y-81325180D01*
X66394057Y-81325180D01*
X66536914Y-81372800D01*
X66584533Y-81420419D01*
X67489295Y-81325180D02*
X67013104Y-81325180D01*
X66965485Y-81801371D01*
X67013104Y-81753752D01*
X67108342Y-81706133D01*
X67346438Y-81706133D01*
X67441676Y-81753752D01*
X67489295Y-81801371D01*
X67536914Y-81896609D01*
X67536914Y-82134704D01*
X67489295Y-82229942D01*
X67441676Y-82277561D01*
X67346438Y-82325180D01*
X67108342Y-82325180D01*
X67013104Y-82277561D01*
X66965485Y-82229942D01*
%TO.C,C15*%
X105507142Y-79012142D02*
X105459523Y-79059761D01*
X105316666Y-79107380D01*
X105221428Y-79107380D01*
X105078571Y-79059761D01*
X104983333Y-78964523D01*
X104935714Y-78869285D01*
X104888095Y-78678809D01*
X104888095Y-78535952D01*
X104935714Y-78345476D01*
X104983333Y-78250238D01*
X105078571Y-78155000D01*
X105221428Y-78107380D01*
X105316666Y-78107380D01*
X105459523Y-78155000D01*
X105507142Y-78202619D01*
X106459523Y-79107380D02*
X105888095Y-79107380D01*
X106173809Y-79107380D02*
X106173809Y-78107380D01*
X106078571Y-78250238D01*
X105983333Y-78345476D01*
X105888095Y-78393095D01*
X107364285Y-78107380D02*
X106888095Y-78107380D01*
X106840476Y-78583571D01*
X106888095Y-78535952D01*
X106983333Y-78488333D01*
X107221428Y-78488333D01*
X107316666Y-78535952D01*
X107364285Y-78583571D01*
X107411904Y-78678809D01*
X107411904Y-78916904D01*
X107364285Y-79012142D01*
X107316666Y-79059761D01*
X107221428Y-79107380D01*
X106983333Y-79107380D01*
X106888095Y-79059761D01*
X106840476Y-79012142D01*
%TO.C,C8*%
X68565733Y-87817942D02*
X68518114Y-87865561D01*
X68375257Y-87913180D01*
X68280019Y-87913180D01*
X68137161Y-87865561D01*
X68041923Y-87770323D01*
X67994304Y-87675085D01*
X67946685Y-87484609D01*
X67946685Y-87341752D01*
X67994304Y-87151276D01*
X68041923Y-87056038D01*
X68137161Y-86960800D01*
X68280019Y-86913180D01*
X68375257Y-86913180D01*
X68518114Y-86960800D01*
X68565733Y-87008419D01*
X69137161Y-87341752D02*
X69041923Y-87294133D01*
X68994304Y-87246514D01*
X68946685Y-87151276D01*
X68946685Y-87103657D01*
X68994304Y-87008419D01*
X69041923Y-86960800D01*
X69137161Y-86913180D01*
X69327638Y-86913180D01*
X69422876Y-86960800D01*
X69470495Y-87008419D01*
X69518114Y-87103657D01*
X69518114Y-87151276D01*
X69470495Y-87246514D01*
X69422876Y-87294133D01*
X69327638Y-87341752D01*
X69137161Y-87341752D01*
X69041923Y-87389371D01*
X68994304Y-87436990D01*
X68946685Y-87532228D01*
X68946685Y-87722704D01*
X68994304Y-87817942D01*
X69041923Y-87865561D01*
X69137161Y-87913180D01*
X69327638Y-87913180D01*
X69422876Y-87865561D01*
X69470495Y-87817942D01*
X69518114Y-87722704D01*
X69518114Y-87532228D01*
X69470495Y-87436990D01*
X69422876Y-87389371D01*
X69327638Y-87341752D01*
%TO.C,L4*%
X100577380Y-80991666D02*
X100577380Y-81467857D01*
X99577380Y-81467857D01*
X99910714Y-80229761D02*
X100577380Y-80229761D01*
X99529761Y-80467857D02*
X100244047Y-80705952D01*
X100244047Y-80086904D01*
%TO.C,C2*%
X76008333Y-78807142D02*
X75960714Y-78854761D01*
X75817857Y-78902380D01*
X75722619Y-78902380D01*
X75579761Y-78854761D01*
X75484523Y-78759523D01*
X75436904Y-78664285D01*
X75389285Y-78473809D01*
X75389285Y-78330952D01*
X75436904Y-78140476D01*
X75484523Y-78045238D01*
X75579761Y-77950000D01*
X75722619Y-77902380D01*
X75817857Y-77902380D01*
X75960714Y-77950000D01*
X76008333Y-77997619D01*
X76389285Y-77997619D02*
X76436904Y-77950000D01*
X76532142Y-77902380D01*
X76770238Y-77902380D01*
X76865476Y-77950000D01*
X76913095Y-77997619D01*
X76960714Y-78092857D01*
X76960714Y-78188095D01*
X76913095Y-78330952D01*
X76341666Y-78902380D01*
X76960714Y-78902380D01*
%TO.C,C19*%
X106832142Y-77507142D02*
X106784523Y-77554761D01*
X106641666Y-77602380D01*
X106546428Y-77602380D01*
X106403571Y-77554761D01*
X106308333Y-77459523D01*
X106260714Y-77364285D01*
X106213095Y-77173809D01*
X106213095Y-77030952D01*
X106260714Y-76840476D01*
X106308333Y-76745238D01*
X106403571Y-76650000D01*
X106546428Y-76602380D01*
X106641666Y-76602380D01*
X106784523Y-76650000D01*
X106832142Y-76697619D01*
X107784523Y-77602380D02*
X107213095Y-77602380D01*
X107498809Y-77602380D02*
X107498809Y-76602380D01*
X107403571Y-76745238D01*
X107308333Y-76840476D01*
X107213095Y-76888095D01*
X108260714Y-77602380D02*
X108451190Y-77602380D01*
X108546428Y-77554761D01*
X108594047Y-77507142D01*
X108689285Y-77364285D01*
X108736904Y-77173809D01*
X108736904Y-76792857D01*
X108689285Y-76697619D01*
X108641666Y-76650000D01*
X108546428Y-76602380D01*
X108355952Y-76602380D01*
X108260714Y-76650000D01*
X108213095Y-76697619D01*
X108165476Y-76792857D01*
X108165476Y-77030952D01*
X108213095Y-77126190D01*
X108260714Y-77173809D01*
X108355952Y-77221428D01*
X108546428Y-77221428D01*
X108641666Y-77173809D01*
X108689285Y-77126190D01*
X108736904Y-77030952D01*
%TO.C,C21*%
X103307142Y-80317857D02*
X103354761Y-80365476D01*
X103402380Y-80508333D01*
X103402380Y-80603571D01*
X103354761Y-80746428D01*
X103259523Y-80841666D01*
X103164285Y-80889285D01*
X102973809Y-80936904D01*
X102830952Y-80936904D01*
X102640476Y-80889285D01*
X102545238Y-80841666D01*
X102450000Y-80746428D01*
X102402380Y-80603571D01*
X102402380Y-80508333D01*
X102450000Y-80365476D01*
X102497619Y-80317857D01*
X102497619Y-79936904D02*
X102450000Y-79889285D01*
X102402380Y-79794047D01*
X102402380Y-79555952D01*
X102450000Y-79460714D01*
X102497619Y-79413095D01*
X102592857Y-79365476D01*
X102688095Y-79365476D01*
X102830952Y-79413095D01*
X103402380Y-79984523D01*
X103402380Y-79365476D01*
X103402380Y-78413095D02*
X103402380Y-78984523D01*
X103402380Y-78698809D02*
X102402380Y-78698809D01*
X102545238Y-78794047D01*
X102640476Y-78889285D01*
X102688095Y-78984523D01*
%TO.C,C11*%
X75321142Y-90609657D02*
X75368761Y-90657276D01*
X75416380Y-90800133D01*
X75416380Y-90895371D01*
X75368761Y-91038228D01*
X75273523Y-91133466D01*
X75178285Y-91181085D01*
X74987809Y-91228704D01*
X74844952Y-91228704D01*
X74654476Y-91181085D01*
X74559238Y-91133466D01*
X74464000Y-91038228D01*
X74416380Y-90895371D01*
X74416380Y-90800133D01*
X74464000Y-90657276D01*
X74511619Y-90609657D01*
X75416380Y-89657276D02*
X75416380Y-90228704D01*
X75416380Y-89942990D02*
X74416380Y-89942990D01*
X74559238Y-90038228D01*
X74654476Y-90133466D01*
X74702095Y-90228704D01*
X75416380Y-88704895D02*
X75416380Y-89276323D01*
X75416380Y-88990609D02*
X74416380Y-88990609D01*
X74559238Y-89085847D01*
X74654476Y-89181085D01*
X74702095Y-89276323D01*
%TO.C,C29*%
X73779942Y-74099657D02*
X73827561Y-74147276D01*
X73875180Y-74290133D01*
X73875180Y-74385371D01*
X73827561Y-74528228D01*
X73732323Y-74623466D01*
X73637085Y-74671085D01*
X73446609Y-74718704D01*
X73303752Y-74718704D01*
X73113276Y-74671085D01*
X73018038Y-74623466D01*
X72922800Y-74528228D01*
X72875180Y-74385371D01*
X72875180Y-74290133D01*
X72922800Y-74147276D01*
X72970419Y-74099657D01*
X72970419Y-73718704D02*
X72922800Y-73671085D01*
X72875180Y-73575847D01*
X72875180Y-73337752D01*
X72922800Y-73242514D01*
X72970419Y-73194895D01*
X73065657Y-73147276D01*
X73160895Y-73147276D01*
X73303752Y-73194895D01*
X73875180Y-73766323D01*
X73875180Y-73147276D01*
X73875180Y-72671085D02*
X73875180Y-72480609D01*
X73827561Y-72385371D01*
X73779942Y-72337752D01*
X73637085Y-72242514D01*
X73446609Y-72194895D01*
X73065657Y-72194895D01*
X72970419Y-72242514D01*
X72922800Y-72290133D01*
X72875180Y-72385371D01*
X72875180Y-72575847D01*
X72922800Y-72671085D01*
X72970419Y-72718704D01*
X73065657Y-72766323D01*
X73303752Y-72766323D01*
X73398990Y-72718704D01*
X73446609Y-72671085D01*
X73494228Y-72575847D01*
X73494228Y-72385371D01*
X73446609Y-72290133D01*
X73398990Y-72242514D01*
X73303752Y-72194895D01*
%TO.C,L1*%
X98877380Y-73791666D02*
X98877380Y-74267857D01*
X97877380Y-74267857D01*
X98877380Y-72934523D02*
X98877380Y-73505952D01*
X98877380Y-73220238D02*
X97877380Y-73220238D01*
X98020238Y-73315476D01*
X98115476Y-73410714D01*
X98163095Y-73505952D01*
%TO.C,SW1*%
X41593866Y-82957161D02*
X41736723Y-83004780D01*
X41974819Y-83004780D01*
X42070057Y-82957161D01*
X42117676Y-82909542D01*
X42165295Y-82814304D01*
X42165295Y-82719066D01*
X42117676Y-82623828D01*
X42070057Y-82576209D01*
X41974819Y-82528590D01*
X41784342Y-82480971D01*
X41689104Y-82433352D01*
X41641485Y-82385733D01*
X41593866Y-82290495D01*
X41593866Y-82195257D01*
X41641485Y-82100019D01*
X41689104Y-82052400D01*
X41784342Y-82004780D01*
X42022438Y-82004780D01*
X42165295Y-82052400D01*
X42498628Y-82004780D02*
X42736723Y-83004780D01*
X42927200Y-82290495D01*
X43117676Y-83004780D01*
X43355771Y-82004780D01*
X44260533Y-83004780D02*
X43689104Y-83004780D01*
X43974819Y-83004780D02*
X43974819Y-82004780D01*
X43879580Y-82147638D01*
X43784342Y-82242876D01*
X43689104Y-82290495D01*
%TO.C,C20*%
X96107142Y-75192857D02*
X96154761Y-75240476D01*
X96202380Y-75383333D01*
X96202380Y-75478571D01*
X96154761Y-75621428D01*
X96059523Y-75716666D01*
X95964285Y-75764285D01*
X95773809Y-75811904D01*
X95630952Y-75811904D01*
X95440476Y-75764285D01*
X95345238Y-75716666D01*
X95250000Y-75621428D01*
X95202380Y-75478571D01*
X95202380Y-75383333D01*
X95250000Y-75240476D01*
X95297619Y-75192857D01*
X95297619Y-74811904D02*
X95250000Y-74764285D01*
X95202380Y-74669047D01*
X95202380Y-74430952D01*
X95250000Y-74335714D01*
X95297619Y-74288095D01*
X95392857Y-74240476D01*
X95488095Y-74240476D01*
X95630952Y-74288095D01*
X96202380Y-74859523D01*
X96202380Y-74240476D01*
X95202380Y-73621428D02*
X95202380Y-73526190D01*
X95250000Y-73430952D01*
X95297619Y-73383333D01*
X95392857Y-73335714D01*
X95583333Y-73288095D01*
X95821428Y-73288095D01*
X96011904Y-73335714D01*
X96107142Y-73383333D01*
X96154761Y-73430952D01*
X96202380Y-73526190D01*
X96202380Y-73621428D01*
X96154761Y-73716666D01*
X96107142Y-73764285D01*
X96011904Y-73811904D01*
X95821428Y-73859523D01*
X95583333Y-73859523D01*
X95392857Y-73811904D01*
X95297619Y-73764285D01*
X95250000Y-73716666D01*
X95202380Y-73621428D01*
D11*
%TO.C,Y1*%
X69470238Y-77619761D02*
X69470238Y-78224523D01*
X69046904Y-76954523D02*
X69470238Y-77619761D01*
X69893571Y-76954523D01*
X70982142Y-78224523D02*
X70256428Y-78224523D01*
X70619285Y-78224523D02*
X70619285Y-76954523D01*
X70498333Y-77135952D01*
X70377380Y-77256904D01*
X70256428Y-77317380D01*
D10*
%TO.C,C24*%
X88107142Y-74317857D02*
X88154761Y-74365476D01*
X88202380Y-74508333D01*
X88202380Y-74603571D01*
X88154761Y-74746428D01*
X88059523Y-74841666D01*
X87964285Y-74889285D01*
X87773809Y-74936904D01*
X87630952Y-74936904D01*
X87440476Y-74889285D01*
X87345238Y-74841666D01*
X87250000Y-74746428D01*
X87202380Y-74603571D01*
X87202380Y-74508333D01*
X87250000Y-74365476D01*
X87297619Y-74317857D01*
X87297619Y-73936904D02*
X87250000Y-73889285D01*
X87202380Y-73794047D01*
X87202380Y-73555952D01*
X87250000Y-73460714D01*
X87297619Y-73413095D01*
X87392857Y-73365476D01*
X87488095Y-73365476D01*
X87630952Y-73413095D01*
X88202380Y-73984523D01*
X88202380Y-73365476D01*
X87535714Y-72508333D02*
X88202380Y-72508333D01*
X87154761Y-72746428D02*
X87869047Y-72984523D01*
X87869047Y-72365476D01*
%TO.C,BT1*%
X64949485Y-33100971D02*
X65092342Y-33148590D01*
X65139961Y-33196209D01*
X65187580Y-33291447D01*
X65187580Y-33434304D01*
X65139961Y-33529542D01*
X65092342Y-33577161D01*
X64997104Y-33624780D01*
X64616152Y-33624780D01*
X64616152Y-32624780D01*
X64949485Y-32624780D01*
X65044723Y-32672400D01*
X65092342Y-32720019D01*
X65139961Y-32815257D01*
X65139961Y-32910495D01*
X65092342Y-33005733D01*
X65044723Y-33053352D01*
X64949485Y-33100971D01*
X64616152Y-33100971D01*
X65473295Y-32624780D02*
X66044723Y-32624780D01*
X65759009Y-33624780D02*
X65759009Y-32624780D01*
X66901866Y-33624780D02*
X66330438Y-33624780D01*
X66616152Y-33624780D02*
X66616152Y-32624780D01*
X66520914Y-32767638D01*
X66425676Y-32862876D01*
X66330438Y-32910495D01*
%TO.C,L9*%
X80433333Y-73427380D02*
X79957142Y-73427380D01*
X79957142Y-72427380D01*
X80814285Y-73427380D02*
X81004761Y-73427380D01*
X81100000Y-73379761D01*
X81147619Y-73332142D01*
X81242857Y-73189285D01*
X81290476Y-72998809D01*
X81290476Y-72617857D01*
X81242857Y-72522619D01*
X81195238Y-72475000D01*
X81100000Y-72427380D01*
X80909523Y-72427380D01*
X80814285Y-72475000D01*
X80766666Y-72522619D01*
X80719047Y-72617857D01*
X80719047Y-72855952D01*
X80766666Y-72951190D01*
X80814285Y-72998809D01*
X80909523Y-73046428D01*
X81100000Y-73046428D01*
X81195238Y-72998809D01*
X81242857Y-72951190D01*
X81290476Y-72855952D01*
%TO.C,R2*%
X51852533Y-86211180D02*
X51519200Y-85734990D01*
X51281104Y-86211180D02*
X51281104Y-85211180D01*
X51662057Y-85211180D01*
X51757295Y-85258800D01*
X51804914Y-85306419D01*
X51852533Y-85401657D01*
X51852533Y-85544514D01*
X51804914Y-85639752D01*
X51757295Y-85687371D01*
X51662057Y-85734990D01*
X51281104Y-85734990D01*
X52233485Y-85306419D02*
X52281104Y-85258800D01*
X52376342Y-85211180D01*
X52614438Y-85211180D01*
X52709676Y-85258800D01*
X52757295Y-85306419D01*
X52804914Y-85401657D01*
X52804914Y-85496895D01*
X52757295Y-85639752D01*
X52185866Y-86211180D01*
X52804914Y-86211180D01*
%TO.C,C12*%
X79334342Y-90609657D02*
X79381961Y-90657276D01*
X79429580Y-90800133D01*
X79429580Y-90895371D01*
X79381961Y-91038228D01*
X79286723Y-91133466D01*
X79191485Y-91181085D01*
X79001009Y-91228704D01*
X78858152Y-91228704D01*
X78667676Y-91181085D01*
X78572438Y-91133466D01*
X78477200Y-91038228D01*
X78429580Y-90895371D01*
X78429580Y-90800133D01*
X78477200Y-90657276D01*
X78524819Y-90609657D01*
X79429580Y-89657276D02*
X79429580Y-90228704D01*
X79429580Y-89942990D02*
X78429580Y-89942990D01*
X78572438Y-90038228D01*
X78667676Y-90133466D01*
X78715295Y-90228704D01*
X78524819Y-89276323D02*
X78477200Y-89228704D01*
X78429580Y-89133466D01*
X78429580Y-88895371D01*
X78477200Y-88800133D01*
X78524819Y-88752514D01*
X78620057Y-88704895D01*
X78715295Y-88704895D01*
X78858152Y-88752514D01*
X79429580Y-89323942D01*
X79429580Y-88704895D01*
%TO.C,U1*%
X104208214Y-62361690D02*
X105536388Y-62361690D01*
X105692643Y-62283562D01*
X105770771Y-62205435D01*
X105848899Y-62049179D01*
X105848899Y-61736667D01*
X105770771Y-61580412D01*
X105692643Y-61502284D01*
X105536388Y-61424156D01*
X104208214Y-61424156D01*
X105848899Y-59783471D02*
X105848899Y-60721005D01*
X105848899Y-60252238D02*
X104208214Y-60252238D01*
X104442598Y-60408494D01*
X104598853Y-60564750D01*
X104676981Y-60721005D01*
%TO.C,C27*%
X80057142Y-75507142D02*
X80009523Y-75554761D01*
X79866666Y-75602380D01*
X79771428Y-75602380D01*
X79628571Y-75554761D01*
X79533333Y-75459523D01*
X79485714Y-75364285D01*
X79438095Y-75173809D01*
X79438095Y-75030952D01*
X79485714Y-74840476D01*
X79533333Y-74745238D01*
X79628571Y-74650000D01*
X79771428Y-74602380D01*
X79866666Y-74602380D01*
X80009523Y-74650000D01*
X80057142Y-74697619D01*
X80438095Y-74697619D02*
X80485714Y-74650000D01*
X80580952Y-74602380D01*
X80819047Y-74602380D01*
X80914285Y-74650000D01*
X80961904Y-74697619D01*
X81009523Y-74792857D01*
X81009523Y-74888095D01*
X80961904Y-75030952D01*
X80390476Y-75602380D01*
X81009523Y-75602380D01*
X81342857Y-74602380D02*
X82009523Y-74602380D01*
X81580952Y-75602380D01*
%TO.C,C22*%
X92207142Y-72792857D02*
X92254761Y-72840476D01*
X92302380Y-72983333D01*
X92302380Y-73078571D01*
X92254761Y-73221428D01*
X92159523Y-73316666D01*
X92064285Y-73364285D01*
X91873809Y-73411904D01*
X91730952Y-73411904D01*
X91540476Y-73364285D01*
X91445238Y-73316666D01*
X91350000Y-73221428D01*
X91302380Y-73078571D01*
X91302380Y-72983333D01*
X91350000Y-72840476D01*
X91397619Y-72792857D01*
X91397619Y-72411904D02*
X91350000Y-72364285D01*
X91302380Y-72269047D01*
X91302380Y-72030952D01*
X91350000Y-71935714D01*
X91397619Y-71888095D01*
X91492857Y-71840476D01*
X91588095Y-71840476D01*
X91730952Y-71888095D01*
X92302380Y-72459523D01*
X92302380Y-71840476D01*
X91397619Y-71459523D02*
X91350000Y-71411904D01*
X91302380Y-71316666D01*
X91302380Y-71078571D01*
X91350000Y-70983333D01*
X91397619Y-70935714D01*
X91492857Y-70888095D01*
X91588095Y-70888095D01*
X91730952Y-70935714D01*
X92302380Y-71507142D01*
X92302380Y-70888095D01*
%TO.C,C28*%
X88932142Y-83442857D02*
X88979761Y-83490476D01*
X89027380Y-83633333D01*
X89027380Y-83728571D01*
X88979761Y-83871428D01*
X88884523Y-83966666D01*
X88789285Y-84014285D01*
X88598809Y-84061904D01*
X88455952Y-84061904D01*
X88265476Y-84014285D01*
X88170238Y-83966666D01*
X88075000Y-83871428D01*
X88027380Y-83728571D01*
X88027380Y-83633333D01*
X88075000Y-83490476D01*
X88122619Y-83442857D01*
X88122619Y-83061904D02*
X88075000Y-83014285D01*
X88027380Y-82919047D01*
X88027380Y-82680952D01*
X88075000Y-82585714D01*
X88122619Y-82538095D01*
X88217857Y-82490476D01*
X88313095Y-82490476D01*
X88455952Y-82538095D01*
X89027380Y-83109523D01*
X89027380Y-82490476D01*
X88455952Y-81919047D02*
X88408333Y-82014285D01*
X88360714Y-82061904D01*
X88265476Y-82109523D01*
X88217857Y-82109523D01*
X88122619Y-82061904D01*
X88075000Y-82014285D01*
X88027380Y-81919047D01*
X88027380Y-81728571D01*
X88075000Y-81633333D01*
X88122619Y-81585714D01*
X88217857Y-81538095D01*
X88265476Y-81538095D01*
X88360714Y-81585714D01*
X88408333Y-81633333D01*
X88455952Y-81728571D01*
X88455952Y-81919047D01*
X88503571Y-82014285D01*
X88551190Y-82061904D01*
X88646428Y-82109523D01*
X88836904Y-82109523D01*
X88932142Y-82061904D01*
X88979761Y-82014285D01*
X89027380Y-81919047D01*
X89027380Y-81728571D01*
X88979761Y-81633333D01*
X88932142Y-81585714D01*
X88836904Y-81538095D01*
X88646428Y-81538095D01*
X88551190Y-81585714D01*
X88503571Y-81633333D01*
X88455952Y-81728571D01*
%TO.C,U2*%
X104208214Y-43210090D02*
X105536388Y-43210090D01*
X105692643Y-43131962D01*
X105770771Y-43053835D01*
X105848899Y-42897579D01*
X105848899Y-42585067D01*
X105770771Y-42428812D01*
X105692643Y-42350684D01*
X105536388Y-42272556D01*
X104208214Y-42272556D01*
X104364470Y-41569405D02*
X104286342Y-41491277D01*
X104208214Y-41335022D01*
X104208214Y-40944382D01*
X104286342Y-40788127D01*
X104364470Y-40709999D01*
X104520726Y-40631871D01*
X104676981Y-40631871D01*
X104911365Y-40709999D01*
X105848899Y-41647533D01*
X105848899Y-40631871D01*
%TO.C,C18*%
X109207142Y-73992857D02*
X109254761Y-74040476D01*
X109302380Y-74183333D01*
X109302380Y-74278571D01*
X109254761Y-74421428D01*
X109159523Y-74516666D01*
X109064285Y-74564285D01*
X108873809Y-74611904D01*
X108730952Y-74611904D01*
X108540476Y-74564285D01*
X108445238Y-74516666D01*
X108350000Y-74421428D01*
X108302380Y-74278571D01*
X108302380Y-74183333D01*
X108350000Y-74040476D01*
X108397619Y-73992857D01*
X109302380Y-73040476D02*
X109302380Y-73611904D01*
X109302380Y-73326190D02*
X108302380Y-73326190D01*
X108445238Y-73421428D01*
X108540476Y-73516666D01*
X108588095Y-73611904D01*
X108730952Y-72469047D02*
X108683333Y-72564285D01*
X108635714Y-72611904D01*
X108540476Y-72659523D01*
X108492857Y-72659523D01*
X108397619Y-72611904D01*
X108350000Y-72564285D01*
X108302380Y-72469047D01*
X108302380Y-72278571D01*
X108350000Y-72183333D01*
X108397619Y-72135714D01*
X108492857Y-72088095D01*
X108540476Y-72088095D01*
X108635714Y-72135714D01*
X108683333Y-72183333D01*
X108730952Y-72278571D01*
X108730952Y-72469047D01*
X108778571Y-72564285D01*
X108826190Y-72611904D01*
X108921428Y-72659523D01*
X109111904Y-72659523D01*
X109207142Y-72611904D01*
X109254761Y-72564285D01*
X109302380Y-72469047D01*
X109302380Y-72278571D01*
X109254761Y-72183333D01*
X109207142Y-72135714D01*
X109111904Y-72088095D01*
X108921428Y-72088095D01*
X108826190Y-72135714D01*
X108778571Y-72183333D01*
X108730952Y-72278571D01*
%TO.C,C13*%
X78357142Y-84932142D02*
X78309523Y-84979761D01*
X78166666Y-85027380D01*
X78071428Y-85027380D01*
X77928571Y-84979761D01*
X77833333Y-84884523D01*
X77785714Y-84789285D01*
X77738095Y-84598809D01*
X77738095Y-84455952D01*
X77785714Y-84265476D01*
X77833333Y-84170238D01*
X77928571Y-84075000D01*
X78071428Y-84027380D01*
X78166666Y-84027380D01*
X78309523Y-84075000D01*
X78357142Y-84122619D01*
X79309523Y-85027380D02*
X78738095Y-85027380D01*
X79023809Y-85027380D02*
X79023809Y-84027380D01*
X78928571Y-84170238D01*
X78833333Y-84265476D01*
X78738095Y-84313095D01*
X79642857Y-84027380D02*
X80261904Y-84027380D01*
X79928571Y-84408333D01*
X80071428Y-84408333D01*
X80166666Y-84455952D01*
X80214285Y-84503571D01*
X80261904Y-84598809D01*
X80261904Y-84836904D01*
X80214285Y-84932142D01*
X80166666Y-84979761D01*
X80071428Y-85027380D01*
X79785714Y-85027380D01*
X79690476Y-84979761D01*
X79642857Y-84932142D01*
%TO.C,L5*%
X107308333Y-80277380D02*
X106832142Y-80277380D01*
X106832142Y-79277380D01*
X108117857Y-79277380D02*
X107641666Y-79277380D01*
X107594047Y-79753571D01*
X107641666Y-79705952D01*
X107736904Y-79658333D01*
X107975000Y-79658333D01*
X108070238Y-79705952D01*
X108117857Y-79753571D01*
X108165476Y-79848809D01*
X108165476Y-80086904D01*
X108117857Y-80182142D01*
X108070238Y-80229761D01*
X107975000Y-80277380D01*
X107736904Y-80277380D01*
X107641666Y-80229761D01*
X107594047Y-80182142D01*
%TO.C,C1*%
X81113333Y-88021142D02*
X81065714Y-88068761D01*
X80922857Y-88116380D01*
X80827619Y-88116380D01*
X80684761Y-88068761D01*
X80589523Y-87973523D01*
X80541904Y-87878285D01*
X80494285Y-87687809D01*
X80494285Y-87544952D01*
X80541904Y-87354476D01*
X80589523Y-87259238D01*
X80684761Y-87164000D01*
X80827619Y-87116380D01*
X80922857Y-87116380D01*
X81065714Y-87164000D01*
X81113333Y-87211619D01*
X82065714Y-88116380D02*
X81494285Y-88116380D01*
X81780000Y-88116380D02*
X81780000Y-87116380D01*
X81684761Y-87259238D01*
X81589523Y-87354476D01*
X81494285Y-87402095D01*
%TO.C,L6*%
X94777380Y-80966666D02*
X94777380Y-81442857D01*
X93777380Y-81442857D01*
X93777380Y-80204761D02*
X93777380Y-80395238D01*
X93825000Y-80490476D01*
X93872619Y-80538095D01*
X94015476Y-80633333D01*
X94205952Y-80680952D01*
X94586904Y-80680952D01*
X94682142Y-80633333D01*
X94729761Y-80585714D01*
X94777380Y-80490476D01*
X94777380Y-80300000D01*
X94729761Y-80204761D01*
X94682142Y-80157142D01*
X94586904Y-80109523D01*
X94348809Y-80109523D01*
X94253571Y-80157142D01*
X94205952Y-80204761D01*
X94158333Y-80300000D01*
X94158333Y-80490476D01*
X94205952Y-80585714D01*
X94253571Y-80633333D01*
X94348809Y-80680952D01*
%TO.C,C7*%
X70918342Y-87542666D02*
X70965961Y-87590285D01*
X71013580Y-87733142D01*
X71013580Y-87828380D01*
X70965961Y-87971238D01*
X70870723Y-88066476D01*
X70775485Y-88114095D01*
X70585009Y-88161714D01*
X70442152Y-88161714D01*
X70251676Y-88114095D01*
X70156438Y-88066476D01*
X70061200Y-87971238D01*
X70013580Y-87828380D01*
X70013580Y-87733142D01*
X70061200Y-87590285D01*
X70108819Y-87542666D01*
X70013580Y-87209333D02*
X70013580Y-86542666D01*
X71013580Y-86971238D01*
%TO.C,L7*%
X88852380Y-76761666D02*
X88852380Y-77237857D01*
X87852380Y-77237857D01*
X87852380Y-76523571D02*
X87852380Y-75856904D01*
X88852380Y-76285476D01*
%TO.C,L8*%
X88777380Y-79891666D02*
X88777380Y-80367857D01*
X87777380Y-80367857D01*
X88205952Y-79415476D02*
X88158333Y-79510714D01*
X88110714Y-79558333D01*
X88015476Y-79605952D01*
X87967857Y-79605952D01*
X87872619Y-79558333D01*
X87825000Y-79510714D01*
X87777380Y-79415476D01*
X87777380Y-79225000D01*
X87825000Y-79129761D01*
X87872619Y-79082142D01*
X87967857Y-79034523D01*
X88015476Y-79034523D01*
X88110714Y-79082142D01*
X88158333Y-79129761D01*
X88205952Y-79225000D01*
X88205952Y-79415476D01*
X88253571Y-79510714D01*
X88301190Y-79558333D01*
X88396428Y-79605952D01*
X88586904Y-79605952D01*
X88682142Y-79558333D01*
X88729761Y-79510714D01*
X88777380Y-79415476D01*
X88777380Y-79225000D01*
X88729761Y-79129761D01*
X88682142Y-79082142D01*
X88586904Y-79034523D01*
X88396428Y-79034523D01*
X88301190Y-79082142D01*
X88253571Y-79129761D01*
X88205952Y-79225000D01*
%TO.C,C16*%
X101882142Y-75092857D02*
X101929761Y-75140476D01*
X101977380Y-75283333D01*
X101977380Y-75378571D01*
X101929761Y-75521428D01*
X101834523Y-75616666D01*
X101739285Y-75664285D01*
X101548809Y-75711904D01*
X101405952Y-75711904D01*
X101215476Y-75664285D01*
X101120238Y-75616666D01*
X101025000Y-75521428D01*
X100977380Y-75378571D01*
X100977380Y-75283333D01*
X101025000Y-75140476D01*
X101072619Y-75092857D01*
X101977380Y-74140476D02*
X101977380Y-74711904D01*
X101977380Y-74426190D02*
X100977380Y-74426190D01*
X101120238Y-74521428D01*
X101215476Y-74616666D01*
X101263095Y-74711904D01*
X100977380Y-73283333D02*
X100977380Y-73473809D01*
X101025000Y-73569047D01*
X101072619Y-73616666D01*
X101215476Y-73711904D01*
X101405952Y-73759523D01*
X101786904Y-73759523D01*
X101882142Y-73711904D01*
X101929761Y-73664285D01*
X101977380Y-73569047D01*
X101977380Y-73378571D01*
X101929761Y-73283333D01*
X101882142Y-73235714D01*
X101786904Y-73188095D01*
X101548809Y-73188095D01*
X101453571Y-73235714D01*
X101405952Y-73283333D01*
X101358333Y-73378571D01*
X101358333Y-73569047D01*
X101405952Y-73664285D01*
X101453571Y-73711904D01*
X101548809Y-73759523D01*
%TO.C,C4*%
X75983333Y-76507142D02*
X75935714Y-76554761D01*
X75792857Y-76602380D01*
X75697619Y-76602380D01*
X75554761Y-76554761D01*
X75459523Y-76459523D01*
X75411904Y-76364285D01*
X75364285Y-76173809D01*
X75364285Y-76030952D01*
X75411904Y-75840476D01*
X75459523Y-75745238D01*
X75554761Y-75650000D01*
X75697619Y-75602380D01*
X75792857Y-75602380D01*
X75935714Y-75650000D01*
X75983333Y-75697619D01*
X76840476Y-75935714D02*
X76840476Y-76602380D01*
X76602380Y-75554761D02*
X76364285Y-76269047D01*
X76983333Y-76269047D01*
%TO.C,C17*%
X108282142Y-82972857D02*
X108329761Y-83020476D01*
X108377380Y-83163333D01*
X108377380Y-83258571D01*
X108329761Y-83401428D01*
X108234523Y-83496666D01*
X108139285Y-83544285D01*
X107948809Y-83591904D01*
X107805952Y-83591904D01*
X107615476Y-83544285D01*
X107520238Y-83496666D01*
X107425000Y-83401428D01*
X107377380Y-83258571D01*
X107377380Y-83163333D01*
X107425000Y-83020476D01*
X107472619Y-82972857D01*
X108377380Y-82020476D02*
X108377380Y-82591904D01*
X108377380Y-82306190D02*
X107377380Y-82306190D01*
X107520238Y-82401428D01*
X107615476Y-82496666D01*
X107663095Y-82591904D01*
X107377380Y-81687142D02*
X107377380Y-81020476D01*
X108377380Y-81449047D01*
D12*
%TO.C,U3*%
X104503285Y-70132342D02*
X104503285Y-70520914D01*
X104526142Y-70566628D01*
X104549000Y-70589485D01*
X104594714Y-70612342D01*
X104686142Y-70612342D01*
X104731857Y-70589485D01*
X104754714Y-70566628D01*
X104777571Y-70520914D01*
X104777571Y-70132342D01*
X104960428Y-70132342D02*
X105257571Y-70132342D01*
X105097571Y-70315200D01*
X105166142Y-70315200D01*
X105211857Y-70338057D01*
X105234714Y-70360914D01*
X105257571Y-70406628D01*
X105257571Y-70520914D01*
X105234714Y-70566628D01*
X105211857Y-70589485D01*
X105166142Y-70612342D01*
X105029000Y-70612342D01*
X104983285Y-70589485D01*
X104960428Y-70566628D01*
D10*
%TO.C,C23*%
X97807142Y-80197857D02*
X97854761Y-80245476D01*
X97902380Y-80388333D01*
X97902380Y-80483571D01*
X97854761Y-80626428D01*
X97759523Y-80721666D01*
X97664285Y-80769285D01*
X97473809Y-80816904D01*
X97330952Y-80816904D01*
X97140476Y-80769285D01*
X97045238Y-80721666D01*
X96950000Y-80626428D01*
X96902380Y-80483571D01*
X96902380Y-80388333D01*
X96950000Y-80245476D01*
X96997619Y-80197857D01*
X96997619Y-79816904D02*
X96950000Y-79769285D01*
X96902380Y-79674047D01*
X96902380Y-79435952D01*
X96950000Y-79340714D01*
X96997619Y-79293095D01*
X97092857Y-79245476D01*
X97188095Y-79245476D01*
X97330952Y-79293095D01*
X97902380Y-79864523D01*
X97902380Y-79245476D01*
X96902380Y-78912142D02*
X96902380Y-78293095D01*
X97283333Y-78626428D01*
X97283333Y-78483571D01*
X97330952Y-78388333D01*
X97378571Y-78340714D01*
X97473809Y-78293095D01*
X97711904Y-78293095D01*
X97807142Y-78340714D01*
X97854761Y-78388333D01*
X97902380Y-78483571D01*
X97902380Y-78769285D01*
X97854761Y-78864523D01*
X97807142Y-78912142D01*
%TO.C,C26*%
X91882142Y-81117857D02*
X91929761Y-81165476D01*
X91977380Y-81308333D01*
X91977380Y-81403571D01*
X91929761Y-81546428D01*
X91834523Y-81641666D01*
X91739285Y-81689285D01*
X91548809Y-81736904D01*
X91405952Y-81736904D01*
X91215476Y-81689285D01*
X91120238Y-81641666D01*
X91025000Y-81546428D01*
X90977380Y-81403571D01*
X90977380Y-81308333D01*
X91025000Y-81165476D01*
X91072619Y-81117857D01*
X91072619Y-80736904D02*
X91025000Y-80689285D01*
X90977380Y-80594047D01*
X90977380Y-80355952D01*
X91025000Y-80260714D01*
X91072619Y-80213095D01*
X91167857Y-80165476D01*
X91263095Y-80165476D01*
X91405952Y-80213095D01*
X91977380Y-80784523D01*
X91977380Y-80165476D01*
X90977380Y-79308333D02*
X90977380Y-79498809D01*
X91025000Y-79594047D01*
X91072619Y-79641666D01*
X91215476Y-79736904D01*
X91405952Y-79784523D01*
X91786904Y-79784523D01*
X91882142Y-79736904D01*
X91929761Y-79689285D01*
X91977380Y-79594047D01*
X91977380Y-79403571D01*
X91929761Y-79308333D01*
X91882142Y-79260714D01*
X91786904Y-79213095D01*
X91548809Y-79213095D01*
X91453571Y-79260714D01*
X91405952Y-79308333D01*
X91358333Y-79403571D01*
X91358333Y-79594047D01*
X91405952Y-79689285D01*
X91453571Y-79736904D01*
X91548809Y-79784523D01*
%TO.C,L2*%
X106527380Y-80841666D02*
X106527380Y-81317857D01*
X105527380Y-81317857D01*
X105622619Y-80555952D02*
X105575000Y-80508333D01*
X105527380Y-80413095D01*
X105527380Y-80175000D01*
X105575000Y-80079761D01*
X105622619Y-80032142D01*
X105717857Y-79984523D01*
X105813095Y-79984523D01*
X105955952Y-80032142D01*
X106527380Y-80603571D01*
X106527380Y-79984523D01*
%TO.C,C3*%
X65974933Y-83635142D02*
X65927314Y-83682761D01*
X65784457Y-83730380D01*
X65689219Y-83730380D01*
X65546361Y-83682761D01*
X65451123Y-83587523D01*
X65403504Y-83492285D01*
X65355885Y-83301809D01*
X65355885Y-83158952D01*
X65403504Y-82968476D01*
X65451123Y-82873238D01*
X65546361Y-82778000D01*
X65689219Y-82730380D01*
X65784457Y-82730380D01*
X65927314Y-82778000D01*
X65974933Y-82825619D01*
X66308266Y-82730380D02*
X66927314Y-82730380D01*
X66593980Y-83111333D01*
X66736838Y-83111333D01*
X66832076Y-83158952D01*
X66879695Y-83206571D01*
X66927314Y-83301809D01*
X66927314Y-83539904D01*
X66879695Y-83635142D01*
X66832076Y-83682761D01*
X66736838Y-83730380D01*
X66451123Y-83730380D01*
X66355885Y-83682761D01*
X66308266Y-83635142D01*
%TO.C,C10*%
X71257142Y-90609657D02*
X71304761Y-90657276D01*
X71352380Y-90800133D01*
X71352380Y-90895371D01*
X71304761Y-91038228D01*
X71209523Y-91133466D01*
X71114285Y-91181085D01*
X70923809Y-91228704D01*
X70780952Y-91228704D01*
X70590476Y-91181085D01*
X70495238Y-91133466D01*
X70400000Y-91038228D01*
X70352380Y-90895371D01*
X70352380Y-90800133D01*
X70400000Y-90657276D01*
X70447619Y-90609657D01*
X71352380Y-89657276D02*
X71352380Y-90228704D01*
X71352380Y-89942990D02*
X70352380Y-89942990D01*
X70495238Y-90038228D01*
X70590476Y-90133466D01*
X70638095Y-90228704D01*
X70352380Y-89038228D02*
X70352380Y-88942990D01*
X70400000Y-88847752D01*
X70447619Y-88800133D01*
X70542857Y-88752514D01*
X70733333Y-88704895D01*
X70971428Y-88704895D01*
X71161904Y-88752514D01*
X71257142Y-88800133D01*
X71304761Y-88847752D01*
X71352380Y-88942990D01*
X71352380Y-89038228D01*
X71304761Y-89133466D01*
X71257142Y-89181085D01*
X71161904Y-89228704D01*
X70971428Y-89276323D01*
X70733333Y-89276323D01*
X70542857Y-89228704D01*
X70447619Y-89181085D01*
X70400000Y-89133466D01*
X70352380Y-89038228D01*
%TO.C,C25*%
X86132142Y-73642857D02*
X86179761Y-73690476D01*
X86227380Y-73833333D01*
X86227380Y-73928571D01*
X86179761Y-74071428D01*
X86084523Y-74166666D01*
X85989285Y-74214285D01*
X85798809Y-74261904D01*
X85655952Y-74261904D01*
X85465476Y-74214285D01*
X85370238Y-74166666D01*
X85275000Y-74071428D01*
X85227380Y-73928571D01*
X85227380Y-73833333D01*
X85275000Y-73690476D01*
X85322619Y-73642857D01*
X85322619Y-73261904D02*
X85275000Y-73214285D01*
X85227380Y-73119047D01*
X85227380Y-72880952D01*
X85275000Y-72785714D01*
X85322619Y-72738095D01*
X85417857Y-72690476D01*
X85513095Y-72690476D01*
X85655952Y-72738095D01*
X86227380Y-73309523D01*
X86227380Y-72690476D01*
X85227380Y-71785714D02*
X85227380Y-72261904D01*
X85703571Y-72309523D01*
X85655952Y-72261904D01*
X85608333Y-72166666D01*
X85608333Y-71928571D01*
X85655952Y-71833333D01*
X85703571Y-71785714D01*
X85798809Y-71738095D01*
X86036904Y-71738095D01*
X86132142Y-71785714D01*
X86179761Y-71833333D01*
X86227380Y-71928571D01*
X86227380Y-72166666D01*
X86179761Y-72261904D01*
X86132142Y-72309523D01*
D12*
%TO.C,C31*%
X110528980Y-40388000D02*
X110247820Y-40388000D01*
X110528980Y-39368000D02*
X110247820Y-39368000D01*
%TO.C,R1*%
X52076236Y-90876800D02*
X51860564Y-90876800D01*
X52076236Y-91596800D02*
X51860564Y-91596800D01*
%TO.C,U4*%
X70451900Y-80233600D02*
X70451900Y-86482000D01*
X76700300Y-86482000D02*
X76700300Y-80233600D01*
X73901220Y-86355000D02*
X73901220Y-86609000D01*
X73901220Y-80360600D02*
X73901220Y-80106600D01*
X76573300Y-83682920D02*
X76827300Y-83682920D01*
X70451900Y-86482000D02*
X76700300Y-86482000D01*
X70578900Y-83682920D02*
X70324900Y-83682920D01*
X76700300Y-80233600D02*
X70451900Y-80233600D01*
D13*
%TO.C,XC1*%
X113125200Y-42334000D02*
X112325200Y-42334000D01*
X113125200Y-42134000D02*
X112725200Y-42334000D01*
X114225200Y-43634000D02*
X114225200Y-43434000D01*
X113125200Y-42334000D02*
X113125200Y-42134000D01*
X111225200Y-43634000D02*
X111225200Y-43434000D01*
X113125200Y-44734000D02*
X112325200Y-44734000D01*
D12*
%TO.C,SW1*%
X45177200Y-83552400D02*
X40677200Y-83552400D01*
X39427200Y-86052400D02*
X39427200Y-87552400D01*
X46427200Y-87552400D02*
X46427200Y-86052400D01*
X40677200Y-90052400D02*
X45177200Y-90052400D01*
D14*
%TO.C,Y1*%
X74602800Y-77520800D02*
X74602800Y-77520800D01*
X74502800Y-77520800D02*
X74502800Y-77520800D01*
X74602800Y-77520800D02*
X74602800Y-77520800D01*
X74602800Y-77520800D02*
G75*
G03*
X74502800Y-77520800I-50000J0D01*
G01*
X74602800Y-77520800D02*
G75*
G03*
X74502800Y-77520800I-50000J0D01*
G01*
X74502800Y-77520800D02*
G75*
G03*
X74602800Y-77520800I50000J0D01*
G01*
D12*
%TO.C,BT1*%
X38465200Y-66052400D02*
X38465200Y-35852400D01*
X92965200Y-35852400D02*
X92965200Y-66052400D01*
X92965200Y-66052400D02*
X38465200Y-66052400D01*
X38465200Y-35852400D02*
X92965200Y-35852400D01*
%TO.C,R2*%
X51911364Y-86558800D02*
X52127036Y-86558800D01*
X51911364Y-87278800D02*
X52127036Y-87278800D01*
D15*
%TO.C,U1*%
X103378000Y-55118000D02*
X98704400Y-55118000D01*
X98704400Y-65684400D02*
X103378000Y-65684400D01*
X98704400Y-55118000D02*
X98704400Y-65684400D01*
X103378000Y-65684400D02*
X103378000Y-55118000D01*
%TO.C,U2*%
X98704400Y-46532800D02*
X103378000Y-46532800D01*
X103378000Y-46532800D02*
X103378000Y-35966400D01*
X98704400Y-35966400D02*
X98704400Y-46532800D01*
X103378000Y-35966400D02*
X98704400Y-35966400D01*
D16*
%TO.C,U3*%
X106150000Y-71200000D02*
X105880000Y-71200000D01*
X106150000Y-73600000D02*
X105880000Y-73600000D01*
X103750000Y-73600000D02*
X103750000Y-73330000D01*
X106150000Y-73600000D02*
X106150000Y-73330000D01*
X103750000Y-71200000D02*
X103750000Y-71470000D01*
X103750000Y-71200000D02*
X104020000Y-71200000D01*
X103750000Y-73600000D02*
X104020000Y-73600000D01*
X106150000Y-71200000D02*
X106150000Y-71470000D01*
D13*
X103180000Y-71900000D02*
G75*
G03*
X103180000Y-71900000I-100000J0D01*
G01*
D12*
%TO.C,J1*%
X111516300Y-74730800D02*
X111516300Y-75230800D01*
X111516300Y-75230800D02*
X112016300Y-74980800D01*
X112016300Y-74980800D02*
X111516300Y-74730800D01*
%TD*%
M02*
